SplineFontDB: 3.0
FontName: UnicaOne-Regular
FullName: Unica One
FamilyName: Unica One
Weight: Book
Copyright: Copyright (c) 2012, Eduardo Tunni (http://www.tipo.net.ar), with Reserved Font Name 'Unica'
Version: 1.001
ItalicAngle: 0
UnderlinePosition: -50
UnderlineWidth: 50
Ascent: 800
Descent: 200
sfntRevision: 0x00010042
LayerCount: 2
Layer: 0 1 "Back"  1
Layer: 1 1 "Fore"  0
XUID: [1021 117 1431646858 10949834]
FSType: 0
OS2Version: 3
OS2_WeightWidthSlopeOnly: 0
OS2_UseTypoMetrics: 1
CreationTime: 1329873180
ModificationTime: 1351616939
PfmFamily: 17
TTFWeight: 400
TTFWidth: 5
LineGap: 0
VLineGap: 0
Panose: 2 0 5 6 0 0 0 2 0 4
OS2TypoAscent: 917
OS2TypoAOffset: 0
OS2TypoDescent: -265
OS2TypoDOffset: 0
OS2TypoLinegap: 0
OS2WinAscent: 917
OS2WinAOffset: 0
OS2WinDescent: 265
OS2WinDOffset: 0
HheadAscent: 917
HheadAOffset: 0
HheadDescent: -265
HheadDOffset: 0
OS2SubXSize: 650
OS2SubYSize: 600
OS2SubXOff: 0
OS2SubYOff: 75
OS2SupXSize: 650
OS2SupYSize: 600
OS2SupXOff: 0
OS2SupYOff: 350
OS2StrikeYSize: 50
OS2StrikeYPos: 390
OS2Vendor: 'TIPO'
OS2CodePages: 20000093.00000000
OS2UnicodeRanges: a000002f.5000204b.00000000.00000000
Lookup: 258 0 0 "'kern' Horizontal Kerning in Latin lookup 0"  {"'kern' Horizontal Kerning in Latin lookup 0 subtable"  } ['kern' ('latn' <'dflt' > ) ]
DEI: 91125
KernClass2: 9+ 9 "'kern' Horizontal Kerning in Latin lookup 0 subtable" 
 70 L l Lacute lacute uni013B uni013C Lcaron lcaron Lslash lslash fl f_f_l
 84 A Agrave Aacute Acircumflex Atilde Adieresis Aring Amacron Abreve Aogonek Aringacute
 37 Y Yacute Ycircumflex Ydieresis Ygrave
 41 V W v Wcircumflex Wgrave Wacute Wdieresis
 7 F f f_f
 37 y yacute ydieresis ycircumflex ygrave
 3 P p
 21 T uni0162 Tcaron Tbar
 23 r racute uni0157 rcaron
 21 T uni0162 Tcaron Tbar
 41 V W v Wcircumflex Wgrave Wacute Wdieresis
 37 Y Yacute Ycircumflex Ydieresis Ygrave
 37 y yacute ydieresis ycircumflex ygrave
 84 A Agrave Aacute Acircumflex Atilde Adieresis Aring Amacron Abreve Aogonek Aringacute

StartChar: exclam
Encoding: 33 33 4
Width: 290
GlyphClass: 2
Flags: W
LayerCount: 2
Fore
SplineSet
180 0 m 1,0,-1
 110 0 l 1,1,-1
 110 110 l 1,2,-1
 180 110 l 1,3,-1
 180 0 l 1,0,-1
105 650 m 1,4,-1
 185 650 l 1,5,-1
 185 405 l 1,6,-1
 170 210 l 1,7,-1
 120 210 l 1,8,-1
 105 405 l 1,9,-1
 105 650 l 1,4,-1
EndSplineSet
EndChar

StartChar: quotedbl
Encoding: 34 34 5
Width: 410
GlyphClass: 2
Flags: W
LayerCount: 2
Fore
SplineSet
85 665 m 1,0,-1
 175 665 l 1,1,-1
 175 605 l 1,2,-1
 145 440 l 1,3,-1
 115 440 l 1,4,-1
 85 605 l 1,5,-1
 85 665 l 1,0,-1
235 665 m 1,6,-1
 325 665 l 1,7,-1
 325 605 l 1,8,-1
 295 440 l 1,9,-1
 265 440 l 1,10,-1
 235 605 l 1,11,-1
 235 665 l 1,6,-1
EndSplineSet
EndChar

StartChar: numbersign
Encoding: 35 35 6
Width: 630
GlyphClass: 2
Flags: W
LayerCount: 2
Fore
SplineSet
40 195 m 1,0,-1
 40 255 l 1,1,-1
 149 255 l 1,2,-1
 170 395 l 1,3,-1
 71 395 l 1,4,-1
 71 455 l 1,5,-1
 180 455 l 1,6,-1
 210 650 l 1,7,-1
 270 650 l 1,8,-1
 240 455 l 1,9,-1
 430 455 l 1,10,-1
 460 650 l 1,11,-1
 520 650 l 1,12,-1
 490 455 l 1,13,-1
 590 455 l 1,14,-1
 590 395 l 1,15,-1
 480 395 l 1,16,-1
 459 255 l 1,17,-1
 559 255 l 1,18,-1
 559 195 l 1,19,-1
 450 195 l 1,20,-1
 420 0 l 1,21,-1
 360 0 l 1,22,-1
 390 195 l 1,23,-1
 200 195 l 1,24,-1
 170 0 l 1,25,-1
 110 0 l 1,26,-1
 140 195 l 1,27,-1
 40 195 l 1,0,-1
230 395 m 1,28,-1
 209 255 l 1,29,-1
 399 255 l 1,30,-1
 420 395 l 1,31,-1
 230 395 l 1,28,-1
EndSplineSet
EndChar

StartChar: dollar
Encoding: 36 36 7
Width: 510
GlyphClass: 2
Flags: W
LayerCount: 2
Fore
SplineSet
230 -100 m 1,0,-1
 230 -14 l 1,1,2
 86 -4 86 -4 86 125 c 2,3,-1
 86 210 l 1,4,-1
 156 210 l 1,5,-1
 156 121 l 2,6,7
 156 56 156 56 230 46 c 1,8,-1
 230 302 l 1,9,-1
 140 390 l 2,10,11
 109 421 109 421 97.5 450.5 c 128,-1,12
 86 480 86 480 86 525 c 0,13,14
 86 654 86 654 230 664 c 1,15,-1
 230 750 l 1,16,-1
 280 750 l 1,17,-1
 280 664 l 1,18,19
 414 652 414 652 414 525 c 2,20,-1
 414 440 l 1,21,-1
 344 440 l 1,22,-1
 344 529 l 2,23,24
 344 590 344 590 280 602 c 1,25,-1
 280 350 l 1,26,-1
 373 261 l 1,27,28
 402 229 402 229 413 199.5 c 128,-1,29
 424 170 424 170 424 125 c 0,30,31
 424 -4 424 -4 280 -14 c 1,32,-1
 280 -100 l 1,33,-1
 230 -100 l 1,0,-1
156 529 m 0,34,35
 156 495 156 495 163 475 c 128,-1,36
 170 455 170 455 194 433 c 2,37,-1
 230 398 l 1,38,-1
 230 604 l 1,39,40
 156 595 156 595 156 529 c 0,34,35
354 121 m 0,41,42
 354 154 354 154 346.5 174.5 c 128,-1,43
 339 195 339 195 316 218 c 2,44,-1
 280 253 l 1,45,-1
 280 46 l 1,46,47
 354 56 354 56 354 121 c 0,41,42
EndSplineSet
EndChar

StartChar: percent
Encoding: 37 37 8
Width: 650
GlyphClass: 2
Flags: W
LayerCount: 2
Fore
SplineSet
260 -60 m 1,0,-1
 215 -60 l 1,1,-1
 390 710 l 1,2,-1
 435 710 l 1,3,-1
 260 -60 l 1,0,-1
265 592 m 2,4,-1
 265 439 l 2,5,6
 265 404 265 404 242.5 383.5 c 128,-1,7
 220 363 220 363 175.5 363 c 128,-1,8
 131 363 131 363 108 383 c 128,-1,9
 85 403 85 403 85 439 c 2,10,-1
 85 592 l 2,11,12
 85 668 85 668 175 668 c 0,13,14
 219 668 219 668 242 648 c 128,-1,15
 265 628 265 628 265 592 c 2,4,-1
217 439 m 2,16,-1
 217 592 l 2,17,18
 217 625 217 625 175 625 c 128,-1,19
 133 625 133 625 133 592 c 2,20,-1
 133 439 l 2,21,22
 133 406 133 406 175 406 c 128,-1,23
 217 406 217 406 217 439 c 2,16,-1
565 219 m 2,24,-1
 565 66 l 2,25,26
 565 31 565 31 542.5 10.5 c 128,-1,27
 520 -10 520 -10 475.5 -10 c 128,-1,28
 431 -10 431 -10 408 10 c 128,-1,29
 385 30 385 30 385 66 c 2,30,-1
 385 219 l 2,31,32
 385 295 385 295 475 295 c 0,33,34
 519 295 519 295 542 275 c 128,-1,35
 565 255 565 255 565 219 c 2,24,-1
517 66 m 2,36,-1
 517 219 l 2,37,38
 517 252 517 252 475 252 c 128,-1,39
 433 252 433 252 433 219 c 2,40,-1
 433 66 l 2,41,42
 433 33 433 33 475 33 c 128,-1,43
 517 33 517 33 517 66 c 2,36,-1
EndSplineSet
EndChar

StartChar: ampersand
Encoding: 38 38 9
Width: 510
GlyphClass: 2
Flags: W
LayerCount: 2
Fore
SplineSet
70 125 m 2,0,-1
 70 215 l 2,1,2
 70 322 70 322 142 349 c 1,3,4
 90 430 90 430 90 475 c 2,5,-1
 90 525 l 2,6,7
 90 592 90 592 131.5 628.5 c 128,-1,8
 173 665 173 665 257 665 c 0,9,10
 418 665 418 665 418 525 c 2,11,-1
 418 440 l 1,12,-1
 348 440 l 1,13,-1
 348 529 l 2,14,15
 348 565 348 565 324.5 585 c 128,-1,16
 301 605 301 605 254 605 c 128,-1,17
 207 605 207 605 183.5 585 c 128,-1,18
 160 565 160 565 160 529 c 2,19,-1
 160 475 l 2,20,21
 160 439 160 439 215 360 c 1,22,-1
 489 360 l 1,23,-1
 489 300 l 1,24,-1
 408 300 l 1,25,-1
 408 125 l 2,26,27
 408 -15 408 -15 239 -15 c 128,-1,28
 70 -15 70 -15 70 125 c 2,0,-1
338 121 m 2,29,-1
 338 300 l 1,30,-1
 209 300 l 2,31,32
 140 300 140 300 140 215 c 2,33,-1
 140 121 l 2,34,35
 140 85 140 85 165 65 c 128,-1,36
 190 45 190 45 239 45 c 128,-1,37
 288 45 288 45 313 65 c 128,-1,38
 338 85 338 85 338 121 c 2,29,-1
EndSplineSet
EndChar

StartChar: quotesingle
Encoding: 39 39 10
Width: 260
GlyphClass: 2
Flags: W
LayerCount: 2
Fore
SplineSet
85 665 m 1,0,-1
 175 665 l 1,1,-1
 175 605 l 1,2,-1
 145 440 l 1,3,-1
 115 440 l 1,4,-1
 85 605 l 1,5,-1
 85 665 l 1,0,-1
EndSplineSet
EndChar

StartChar: parenleft
Encoding: 40 40 11
Width: 322
GlyphClass: 2
Flags: W
LayerCount: 2
Fore
SplineSet
85 75 m 2,0,-1
 85 575 l 2,1,2
 85 642 85 642 128 678.5 c 128,-1,3
 171 715 171 715 257 715 c 1,4,-1
 257 655 l 1,5,6
 155 655 155 655 155 575 c 2,7,-1
 155 75 l 2,8,9
 155 -5 155 -5 256 -5 c 1,10,-1
 256 -65 l 1,11,12
 171 -65 171 -65 128 -28.5 c 128,-1,13
 85 8 85 8 85 75 c 2,0,-1
EndSplineSet
EndChar

StartChar: parenright
Encoding: 41 41 12
Width: 322
GlyphClass: 2
Flags: W
LayerCount: 2
Fore
SplineSet
197 575 m 2,0,-1
 197 75 l 2,1,2
 197 8 197 8 154 -28.5 c 128,-1,3
 111 -65 111 -65 26 -65 c 1,4,-1
 26 -5 l 1,5,6
 127 -5 127 -5 127 75 c 2,7,-1
 127 575 l 2,8,9
 127 655 127 655 25 655 c 1,10,-1
 25 715 l 1,11,12
 111 715 111 715 154 678.5 c 128,-1,13
 197 642 197 642 197 575 c 2,0,-1
EndSplineSet
EndChar

StartChar: asterisk
Encoding: 42 42 13
Width: 382
GlyphClass: 2
Flags: W
LayerCount: 2
Fore
SplineSet
166 580 m 1,0,-1
 166 680 l 1,1,-1
 216 680 l 1,2,-1
 216 580 l 1,3,-1
 315 606 l 1,4,-1
 327 560 l 1,5,-1
 228 534 l 1,6,-1
 291 454 l 1,7,-1
 254 424 l 1,8,-1
 191 504 l 1,9,-1
 228 534 l 1,10,-1
 216 580 l 1,11,-1
 166 580 l 1,0,-1
154 534 m 1,12,-1
 55 560 l 1,13,-1
 67 606 l 1,14,-1
 166 580 l 1,15,-1
 154 534 l 1,12,-1
191 504 m 1,16,-1
 128 424 l 1,17,-1
 91 454 l 1,18,-1
 154 534 l 1,19,-1
 191 504 l 1,16,-1
EndSplineSet
EndChar

StartChar: plus
Encoding: 43 43 14
Width: 510
GlyphClass: 2
Flags: W
LayerCount: 2
Fore
SplineSet
225 485 m 1,0,-1
 285 485 l 1,1,-1
 285 355 l 1,2,-1
 415 355 l 1,3,-1
 415 295 l 1,4,-1
 285 295 l 1,5,-1
 285 165 l 1,6,-1
 225 165 l 1,7,-1
 225 295 l 1,8,-1
 95 295 l 1,9,-1
 95 355 l 1,10,-1
 225 355 l 1,11,-1
 225 485 l 1,0,-1
EndSplineSet
EndChar

StartChar: comma
Encoding: 44 44 15
Width: 260
GlyphClass: 2
Flags: W
LayerCount: 2
Fore
SplineSet
85 110 m 1,0,-1
 175 110 l 1,1,-1
 175 15 l 1,2,-1
 126 -111 l 1,3,-1
 94 -105 l 1,4,-1
 109 0 l 1,5,-1
 85 9 l 1,6,-1
 85 110 l 1,0,-1
EndSplineSet
EndChar

StartChar: hyphen
Encoding: 45 45 16
Width: 490
GlyphClass: 2
Flags: W
LayerCount: 2
Fore
SplineSet
95 300 m 1,0,-1
 95 360 l 1,1,-1
 395 360 l 1,2,-1
 395 300 l 1,3,-1
 95 300 l 1,0,-1
EndSplineSet
EndChar

StartChar: period
Encoding: 46 46 17
Width: 260
GlyphClass: 2
Flags: W
LayerCount: 2
Fore
SplineSet
175 0 m 1,0,-1
 85 0 l 1,1,-1
 85 110 l 1,2,-1
 175 110 l 1,3,-1
 175 0 l 1,0,-1
EndSplineSet
EndChar

StartChar: slash
Encoding: 47 47 18
Width: 380
GlyphClass: 2
Flags: W
LayerCount: 2
Fore
SplineSet
120 -100 m 1,0,-1
 60 -100 l 1,1,-1
 260 750 l 1,2,-1
 320 750 l 1,3,-1
 120 -100 l 1,0,-1
EndSplineSet
EndChar

StartChar: zero
Encoding: 48 48 19
Width: 510
GlyphClass: 2
Flags: W
LayerCount: 2
Fore
SplineSet
425 525 m 2,0,-1
 425 125 l 2,1,2
 425 58 425 58 382.5 21.5 c 128,-1,3
 340 -15 340 -15 255.5 -15 c 128,-1,4
 171 -15 171 -15 128 21.5 c 128,-1,5
 85 58 85 58 85 125 c 2,6,-1
 85 525 l 2,7,8
 85 592 85 592 127.5 628.5 c 128,-1,9
 170 665 170 665 254.5 665 c 128,-1,10
 339 665 339 665 382 628.5 c 128,-1,11
 425 592 425 592 425 525 c 2,0,-1
355 125 m 2,12,-1
 355 525 l 2,13,14
 355 605 355 605 255 605 c 128,-1,15
 155 605 155 605 155 525 c 2,16,-1
 155 125 l 2,17,18
 155 45 155 45 255 45 c 128,-1,19
 355 45 355 45 355 125 c 2,12,-1
EndSplineSet
EndChar

StartChar: one
Encoding: 49 49 20
Width: 510
GlyphClass: 2
Flags: W
LayerCount: 2
Fore
SplineSet
306 650 m 1,0,-1
 306 60 l 1,1,-1
 416 60 l 1,2,-1
 416 0 l 1,3,-1
 126 0 l 1,4,-1
 126 60 l 1,5,-1
 236 60 l 1,6,-1
 236 581 l 1,7,-1
 102 504 l 1,8,-1
 72 555 l 1,9,-1
 236 650 l 1,10,-1
 306 650 l 1,0,-1
EndSplineSet
EndChar

StartChar: two
Encoding: 50 50 21
Width: 510
GlyphClass: 2
Flags: W
LayerCount: 2
Fore
SplineSet
90 0 m 1,0,-1
 90 60 l 1,1,-1
 280 329 l 2,2,3
 284 334 284 334 295 350 c 128,-1,4
 306 366 306 366 311 373 c 128,-1,5
 316 380 316 380 325 394 c 128,-1,6
 334 408 334 408 338.5 416.5 c 128,-1,7
 343 425 343 425 348 436 c 0,8,9
 358 456 358 456 358 475 c 2,10,-1
 358 529 l 2,11,12
 358 565 358 565 334.5 585 c 128,-1,13
 311 605 311 605 264 605 c 128,-1,14
 217 605 217 605 193.5 585 c 128,-1,15
 170 565 170 565 170 529 c 2,16,-1
 170 440 l 1,17,-1
 100 440 l 1,18,-1
 100 525 l 2,19,20
 100 665 100 665 261 665 c 0,21,22
 345 665 345 665 386.5 628.5 c 128,-1,23
 428 592 428 592 428 525 c 2,24,-1
 428 475 l 2,25,26
 428 441 428 441 406.5 400.5 c 128,-1,27
 385 360 385 360 334 287 c 2,28,-1
 175 60 l 1,29,-1
 427 60 l 1,30,-1
 427 0 l 1,31,-1
 90 0 l 1,0,-1
EndSplineSet
EndChar

StartChar: three
Encoding: 51 51 22
Width: 510
GlyphClass: 2
Flags: W
LayerCount: 2
Fore
SplineSet
415 525 m 2,0,-1
 415 435 l 2,1,2
 415 350 415 350 344 326 c 1,3,4
 425 304 425 304 425 215 c 2,5,-1
 425 125 l 2,6,7
 425 -15 425 -15 256 -15 c 128,-1,8
 87 -15 87 -15 87 125 c 2,9,-1
 87 210 l 1,10,-1
 157 210 l 1,11,-1
 157 121 l 2,12,13
 157 85 157 85 182 65 c 128,-1,14
 207 45 207 45 256 45 c 128,-1,15
 305 45 305 45 330 65 c 128,-1,16
 355 85 355 85 355 121 c 2,17,-1
 355 215 l 2,18,19
 355 247 355 247 331 273.5 c 128,-1,20
 307 300 307 300 266 300 c 2,21,-1
 165 300 l 1,22,-1
 165 350 l 1,23,-1
 256 350 l 2,24,25
 298 350 298 350 321.5 376 c 128,-1,26
 345 402 345 402 345 435 c 2,27,-1
 345 529 l 2,28,29
 345 565 345 565 321.5 585 c 128,-1,30
 298 605 298 605 251 605 c 128,-1,31
 204 605 204 605 180.5 585 c 128,-1,32
 157 565 157 565 157 529 c 2,33,-1
 157 440 l 1,34,-1
 87 440 l 1,35,-1
 87 525 l 2,36,37
 87 665 87 665 248 665 c 0,38,39
 332 665 332 665 373.5 628.5 c 128,-1,40
 415 592 415 592 415 525 c 2,0,-1
EndSplineSet
EndChar

StartChar: four
Encoding: 52 52 23
Width: 510
GlyphClass: 2
Flags: W
LayerCount: 2
Fore
SplineSet
366 650 m 1,0,-1
 366 210 l 1,1,-1
 416 210 l 1,2,-1
 416 150 l 1,3,-1
 366 150 l 1,4,-1
 366 0 l 1,5,-1
 296 0 l 1,6,-1
 296 150 l 1,7,-1
 31 150 l 1,8,-1
 31 210 l 1,9,-1
 296 650 l 1,10,-1
 366 650 l 1,0,-1
296 210 m 1,11,-1
 296 534 l 1,12,-1
 101 210 l 1,13,-1
 296 210 l 1,11,-1
EndSplineSet
EndChar

StartChar: five
Encoding: 53 53 24
Width: 510
GlyphClass: 2
Flags: W
LayerCount: 2
Fore
SplineSet
167 590 m 1,0,-1
 167 390 l 1,1,-1
 266 390 l 2,2,3
 343 390 343 390 384 351 c 128,-1,4
 425 312 425 312 425 245 c 2,5,-1
 425 125 l 2,6,7
 425 -15 425 -15 256 -15 c 128,-1,8
 87 -15 87 -15 87 125 c 2,9,-1
 87 210 l 1,10,-1
 157 210 l 1,11,-1
 157 121 l 2,12,13
 157 85 157 85 182 65 c 128,-1,14
 207 45 207 45 256 45 c 128,-1,15
 305 45 305 45 330 65 c 128,-1,16
 355 85 355 85 355 121 c 2,17,-1
 355 245 l 2,18,19
 355 277 355 277 331 303.5 c 128,-1,20
 307 330 307 330 266 330 c 2,21,-1
 97 330 l 1,22,-1
 97 650 l 1,23,-1
 415 650 l 1,24,-1
 415 590 l 1,25,-1
 167 590 l 1,0,-1
EndSplineSet
EndChar

StartChar: six
Encoding: 54 54 25
Width: 510
GlyphClass: 2
Flags: W
LayerCount: 2
Fore
SplineSet
85 126 m 1,0,-1
 85 525 l 2,1,2
 85 665 85 665 254 665 c 128,-1,3
 423 665 423 665 423 525 c 2,4,-1
 423 460 l 1,5,-1
 353 460 l 1,6,-1
 353 529 l 2,7,8
 353 605 353 605 254 605 c 128,-1,9
 155 605 155 605 155 529 c 2,10,-1
 155 349 l 1,11,12
 189 385 189 385 264 385 c 128,-1,13
 339 385 339 385 382 348.5 c 128,-1,14
 425 312 425 312 425 245 c 2,15,-1
 425 125 l 2,16,17
 425 58 425 58 382.5 21.5 c 128,-1,18
 340 -15 340 -15 255.5 -15 c 128,-1,19
 171 -15 171 -15 128 21.5 c 128,-1,20
 85 58 85 58 85 125 c 1,21,-1
 86 126 l 1,22,-1
 85 126 l 1,0,-1
155 125 m 2,23,24
 155 45 155 45 255 45 c 128,-1,25
 355 45 355 45 355 125 c 2,26,-1
 355 245 l 2,27,28
 355 325 355 325 257.5 325 c 128,-1,29
 160 325 160 325 155 252 c 1,30,-1
 155 125 l 2,23,24
EndSplineSet
EndChar

StartChar: seven
Encoding: 55 55 26
Width: 510
GlyphClass: 2
Flags: W
LayerCount: 2
Fore
SplineSet
81 590 m 1,0,-1
 81 650 l 1,1,-1
 408 650 l 1,2,-1
 408 590 l 1,3,-1
 225 0 l 1,4,-1
 153 0 l 1,5,-1
 336 590 l 1,6,-1
 81 590 l 1,0,-1
EndSplineSet
EndChar

StartChar: eight
Encoding: 56 56 27
Width: 510
GlyphClass: 2
Flags: W
LayerCount: 2
Fore
SplineSet
86 125 m 2,0,-1
 86 220 l 2,1,2
 86 302 86 302 158 325 c 1,3,4
 86 346 86 346 86 430 c 2,5,-1
 86 525 l 2,6,7
 86 665 86 665 247 665 c 0,8,9
 331 665 331 665 372.5 628.5 c 128,-1,10
 414 592 414 592 414 525 c 2,11,-1
 414 430 l 2,12,13
 414 348 414 348 347 326 c 1,14,15
 424 305 424 305 424 220 c 2,16,-1
 424 125 l 2,17,18
 424 -15 424 -15 255 -15 c 128,-1,19
 86 -15 86 -15 86 125 c 2,0,-1
265 300 m 2,20,-1
 245 300 l 2,21,22
 203 300 203 300 179.5 276 c 128,-1,23
 156 252 156 252 156 220 c 2,24,-1
 156 121 l 2,25,26
 156 85 156 85 181 65 c 128,-1,27
 206 45 206 45 255 45 c 128,-1,28
 304 45 304 45 329 65 c 128,-1,29
 354 85 354 85 354 121 c 2,30,-1
 354 220 l 2,31,32
 354 252 354 252 330.5 276 c 128,-1,33
 307 300 307 300 265 300 c 2,20,-1
156 529 m 2,34,-1
 156 430 l 2,35,36
 156 397 156 397 179.5 373.5 c 128,-1,37
 203 350 203 350 245 350 c 2,38,-1
 255 350 l 2,39,40
 297 350 297 350 320.5 373.5 c 128,-1,41
 344 397 344 397 344 430 c 2,42,-1
 344 529 l 2,43,44
 344 565 344 565 320.5 585 c 128,-1,45
 297 605 297 605 250 605 c 128,-1,46
 203 605 203 605 179.5 585 c 128,-1,47
 156 565 156 565 156 529 c 2,34,-1
EndSplineSet
EndChar

StartChar: nine
Encoding: 57 57 28
Width: 510
GlyphClass: 2
Flags: W
LayerCount: 2
Fore
SplineSet
425 524 m 1,0,-1
 425 125 l 2,1,2
 425 -15 425 -15 256 -15 c 128,-1,3
 87 -15 87 -15 87 125 c 2,4,-1
 87 190 l 1,5,-1
 157 190 l 1,6,-1
 157 121 l 2,7,8
 157 45 157 45 256 45 c 128,-1,9
 355 45 355 45 355 121 c 2,10,-1
 355 300 l 1,11,12
 322 265 322 265 246.5 265 c 128,-1,13
 171 265 171 265 128 301.5 c 128,-1,14
 85 338 85 338 85 405 c 2,15,-1
 85 525 l 2,16,17
 85 592 85 592 127.5 628.5 c 128,-1,18
 170 665 170 665 254.5 665 c 128,-1,19
 339 665 339 665 382 628.5 c 128,-1,20
 425 592 425 592 425 525 c 1,21,-1
 424 524 l 1,22,-1
 425 524 l 1,0,-1
355 405 m 2,23,-1
 355 525 l 2,24,25
 355 605 355 605 255 605 c 128,-1,26
 155 605 155 605 155 525 c 2,27,-1
 155 405 l 2,28,29
 155 325 155 325 255 325 c 128,-1,30
 355 325 355 325 355 405 c 2,23,-1
EndSplineSet
EndChar

StartChar: colon
Encoding: 58 58 29
Width: 260
GlyphClass: 2
Flags: W
LayerCount: 2
Fore
SplineSet
175 0 m 1,0,-1
 85 0 l 1,1,-1
 85 110 l 1,2,-1
 175 110 l 1,3,-1
 175 0 l 1,0,-1
175 400 m 1,4,-1
 85 400 l 1,5,-1
 85 510 l 1,6,-1
 175 510 l 1,7,-1
 175 400 l 1,4,-1
EndSplineSet
EndChar

StartChar: semicolon
Encoding: 59 59 30
Width: 260
GlyphClass: 2
Flags: W
LayerCount: 2
Fore
SplineSet
85 110 m 1,0,-1
 175 110 l 1,1,-1
 175 15 l 1,2,-1
 126 -111 l 1,3,-1
 94 -105 l 1,4,-1
 109 0 l 1,5,-1
 85 9 l 1,6,-1
 85 110 l 1,0,-1
175 400 m 1,7,-1
 85 400 l 1,8,-1
 85 510 l 1,9,-1
 175 510 l 1,10,-1
 175 400 l 1,7,-1
EndSplineSet
EndChar

StartChar: less
Encoding: 60 60 31
Width: 510
GlyphClass: 2
Flags: W
LayerCount: 2
Fore
SplineSet
95 303 m 1,0,-1
 95 347 l 1,1,-1
 388 517 l 1,2,-1
 415 464 l 1,3,-1
 172 325 l 1,4,-1
 415 186 l 1,5,-1
 388 133 l 1,6,-1
 95 303 l 1,0,-1
EndSplineSet
EndChar

StartChar: equal
Encoding: 61 61 32
Width: 510
GlyphClass: 2
Flags: W
LayerCount: 2
Fore
SplineSet
415 275 m 1,0,-1
 415 215 l 1,1,-1
 95 215 l 1,2,-1
 95 275 l 1,3,-1
 415 275 l 1,0,-1
415 435 m 1,4,-1
 415 375 l 1,5,-1
 95 375 l 1,6,-1
 95 435 l 1,7,-1
 415 435 l 1,4,-1
EndSplineSet
EndChar

StartChar: greater
Encoding: 62 62 33
Width: 510
GlyphClass: 2
Flags: W
LayerCount: 2
Fore
SplineSet
415 347 m 1,0,-1
 415 303 l 1,1,-1
 122 133 l 1,2,-1
 95 186 l 1,3,-1
 338 325 l 1,4,-1
 95 464 l 1,5,-1
 122 517 l 1,6,-1
 415 347 l 1,0,-1
EndSplineSet
EndChar

StartChar: question
Encoding: 63 63 34
Width: 438
GlyphClass: 2
Flags: W
LayerCount: 2
Fore
SplineSet
246 0 m 1,0,-1
 176 0 l 1,1,-1
 176 110 l 1,2,-1
 246 110 l 1,3,-1
 246 0 l 1,0,-1
189 210 m 1,4,-1
 189 270 l 1,5,-1
 230 329 l 2,6,7
 234 334 234 334 245 350 c 128,-1,8
 256 366 256 366 261 373 c 128,-1,9
 266 380 266 380 275 394 c 128,-1,10
 284 408 284 408 288.5 416.5 c 128,-1,11
 293 425 293 425 298 436 c 0,12,13
 308 456 308 456 308 475 c 2,14,-1
 308 529 l 2,15,16
 308 565 308 565 284.5 585 c 128,-1,17
 261 605 261 605 214 605 c 128,-1,18
 167 605 167 605 143.5 585 c 128,-1,19
 120 565 120 565 120 529 c 2,20,-1
 120 440 l 1,21,-1
 50 440 l 1,22,-1
 50 525 l 2,23,24
 50 665 50 665 211 665 c 0,25,26
 295 665 295 665 336.5 628.5 c 128,-1,27
 378 592 378 592 378 525 c 2,28,-1
 378 475 l 2,29,30
 378 441 378 441 356.5 399.5 c 128,-1,31
 335 358 335 358 284 287 c 2,32,-1
 229 210 l 1,33,-1
 189 210 l 1,4,-1
EndSplineSet
EndChar

StartChar: at
Encoding: 64 64 35
Width: 746
GlyphClass: 2
Flags: W
LayerCount: 2
Fore
SplineSet
497 489 m 2,0,-1
 497 342 l 1,1,-1
 574 342 l 1,2,-1
 574 507 l 2,3,4
 574 670 574 670 373 670 c 128,-1,5
 172 670 172 670 172 507 c 2,6,-1
 172 143 l 2,7,8
 172 -20 172 -20 373 -20 c 128,-1,9
 574 -20 574 -20 574 143 c 2,10,-1
 574 168 l 1,11,-1
 626 168 l 1,12,-1
 626 143 l 2,13,14
 626 44 626 44 563 -10.5 c 128,-1,15
 500 -65 500 -65 374 -65 c 128,-1,16
 248 -65 248 -65 184 -10.5 c 128,-1,17
 120 44 120 44 120 143 c 2,18,-1
 120 507 l 2,19,20
 120 606 120 606 183 660.5 c 128,-1,21
 246 715 246 715 371.5 715 c 128,-1,22
 497 715 497 715 561.5 660.5 c 128,-1,23
 626 606 626 606 626 507 c 2,24,-1
 626 291 l 1,25,-1
 497 291 l 1,26,-1
 497 162 l 2,27,28
 497 51 497 51 368 51 c 128,-1,29
 239 51 239 51 239 162 c 2,30,-1
 239 235 l 2,31,32
 239 287 239 287 266 314.5 c 128,-1,33
 293 342 293 342 356 342 c 2,34,-1
 433 342 l 1,35,-1
 433 492 l 2,36,37
 433 518 433 518 417 533 c 128,-1,38
 401 548 401 548 371 548 c 0,39,40
 311 548 311 548 311 492 c 2,41,-1
 311 405 l 1,42,-1
 246 405 l 1,43,-1
 246 489 l 2,44,45
 246 600 246 600 371.5 600 c 128,-1,46
 497 600 497 600 497 489 c 2,0,-1
433 159 m 2,47,-1
 433 291 l 1,48,-1
 351 291 l 2,49,50
 305 291 305 291 305 238 c 2,51,-1
 305 158 l 2,52,53
 305 103 305 103 369 103 c 128,-1,54
 433 103 433 103 433 159 c 2,47,-1
EndSplineSet
EndChar

StartChar: A
Encoding: 65 65 36
Width: 479
GlyphClass: 2
Flags: W
LayerCount: 2
Fore
SplineSet
187 650 m 1,0,-1
 292 650 l 1,1,-1
 439 0 l 1,2,-1
 369 0 l 1,3,-1
 335 150 l 1,4,-1
 144 150 l 1,5,-1
 110 0 l 1,6,-1
 40 0 l 1,7,-1
 187 650 l 1,0,-1
239 572 m 1,8,-1
 157 210 l 1,9,-1
 321 210 l 1,10,-1
 239 572 l 1,8,-1
EndSplineSet
EndChar

StartChar: B
Encoding: 66 66 37
Width: 505
GlyphClass: 2
Flags: W
LayerCount: 2
Fore
SplineSet
100 650 m 1,0,-1
 251 650 l 2,1,2
 329 650 329 650 369.5 613 c 128,-1,3
 410 576 410 576 410 510 c 2,4,-1
 410 450 l 2,5,6
 410 365 410 365 339 341 c 1,7,8
 420 319 420 319 420 230 c 2,9,-1
 420 140 l 2,10,11
 420 73 420 73 380 36.5 c 128,-1,12
 340 0 340 0 261 0 c 2,13,-1
 100 0 l 1,14,-1
 100 650 l 1,0,-1
350 140 m 2,15,-1
 350 230 l 2,16,17
 350 262 350 262 326 288.5 c 128,-1,18
 302 315 302 315 261 315 c 2,19,-1
 170 315 l 1,20,-1
 170 60 l 1,21,-1
 261 60 l 2,22,23
 303 60 303 60 326.5 83.5 c 128,-1,24
 350 107 350 107 350 140 c 2,15,-1
340 450 m 2,25,-1
 340 510 l 2,26,27
 340 542 340 542 316.5 566 c 128,-1,28
 293 590 293 590 251 590 c 2,29,-1
 170 590 l 1,30,-1
 170 365 l 1,31,-1
 251 365 l 2,32,33
 293 365 293 365 316.5 391 c 128,-1,34
 340 417 340 417 340 450 c 2,25,-1
EndSplineSet
EndChar

StartChar: C
Encoding: 67 67 38
Width: 490
GlyphClass: 2
Flags: W
LayerCount: 2
Fore
SplineSet
345 125 m 2,0,-1
 345 180 l 1,1,-1
 415 180 l 1,2,-1
 415 125 l 2,3,4
 415 58 415 58 374 21.5 c 128,-1,5
 333 -15 333 -15 251 -15 c 128,-1,6
 169 -15 169 -15 127 21.5 c 128,-1,7
 85 58 85 58 85 125 c 2,8,-1
 85 525 l 2,9,10
 85 592 85 592 126 628.5 c 128,-1,11
 167 665 167 665 249 665 c 128,-1,12
 331 665 331 665 373 628.5 c 128,-1,13
 415 592 415 592 415 525 c 2,14,-1
 415 430 l 1,15,-1
 345 430 l 1,16,-1
 345 525 l 2,17,18
 345 605 345 605 250 605 c 128,-1,19
 155 605 155 605 155 525 c 2,20,-1
 155 125 l 2,21,22
 155 45 155 45 250 45 c 128,-1,23
 345 45 345 45 345 125 c 2,0,-1
EndSplineSet
EndChar

StartChar: D
Encoding: 68 68 39
Width: 505
GlyphClass: 2
Flags: W
LayerCount: 2
Fore
SplineSet
261 0 m 2,0,-1
 100 0 l 1,1,-1
 100 650 l 1,2,-1
 261 650 l 2,3,4
 339 650 339 650 379.5 613 c 128,-1,5
 420 576 420 576 420 510 c 2,6,-1
 420 140 l 2,7,8
 420 73 420 73 380 36.5 c 128,-1,9
 340 0 340 0 261 0 c 2,0,-1
350 140 m 2,10,-1
 350 510 l 2,11,12
 350 542 350 542 326.5 566 c 128,-1,13
 303 590 303 590 261 590 c 2,14,-1
 170 590 l 1,15,-1
 170 60 l 1,16,-1
 261 60 l 2,17,18
 303 60 303 60 326.5 83.5 c 128,-1,19
 350 107 350 107 350 140 c 2,10,-1
EndSplineSet
EndChar

StartChar: E
Encoding: 69 69 40
Width: 445
GlyphClass: 2
Flags: W
LayerCount: 2
Fore
SplineSet
395 0 m 1,0,-1
 100 0 l 1,1,-1
 100 650 l 1,2,-1
 385 650 l 1,3,-1
 385 590 l 1,4,-1
 170 590 l 1,5,-1
 170 360 l 1,6,-1
 345 360 l 1,7,-1
 345 300 l 1,8,-1
 170 300 l 1,9,-1
 170 60 l 1,10,-1
 395 60 l 1,11,-1
 395 0 l 1,0,-1
EndSplineSet
EndChar

StartChar: F
Encoding: 70 70 41
Width: 415
GlyphClass: 2
Flags: W
LayerCount: 2
Fore
SplineSet
170 0 m 1,0,-1
 100 0 l 1,1,-1
 100 650 l 1,2,-1
 375 650 l 1,3,-1
 375 590 l 1,4,-1
 170 590 l 1,5,-1
 170 360 l 1,6,-1
 335 360 l 1,7,-1
 335 300 l 1,8,-1
 170 300 l 1,9,-1
 170 0 l 1,0,-1
EndSplineSet
EndChar

StartChar: G
Encoding: 71 71 42
Width: 500
GlyphClass: 2
Flags: W
LayerCount: 2
Fore
SplineSet
233 270 m 1,0,-1
 233 330 l 1,1,-1
 415 330 l 1,2,-1
 415 0 l 1,3,-1
 385 0 l 1,4,-1
 359 64 l 1,5,6
 338 28 338 28 304 6.5 c 128,-1,7
 270 -15 270 -15 230 -15 c 0,8,9
 85 -15 85 -15 85 125 c 2,10,-1
 85 525 l 2,11,12
 85 592 85 592 126 628.5 c 128,-1,13
 167 665 167 665 249 665 c 128,-1,14
 331 665 331 665 373 628.5 c 128,-1,15
 415 592 415 592 415 525 c 2,16,-1
 415 470 l 1,17,-1
 345 470 l 1,18,-1
 345 525 l 2,19,20
 345 605 345 605 250 605 c 128,-1,21
 155 605 155 605 155 525 c 2,22,-1
 155 125 l 2,23,24
 155 87 155 87 171 66 c 128,-1,25
 187 45 187 45 229.5 45 c 128,-1,26
 272 45 272 45 308.5 79 c 128,-1,27
 345 113 345 113 345 145 c 2,28,-1
 345 270 l 1,29,-1
 233 270 l 1,0,-1
EndSplineSet
EndChar

StartChar: H
Encoding: 72 72 43
Width: 537
GlyphClass: 2
Flags: W
LayerCount: 2
Fore
SplineSet
170 0 m 1,0,-1
 100 0 l 1,1,-1
 100 650 l 1,2,-1
 170 650 l 1,3,-1
 170 360 l 1,4,-1
 367 360 l 1,5,-1
 367 650 l 1,6,-1
 437 650 l 1,7,-1
 437 0 l 1,8,-1
 367 0 l 1,9,-1
 367 300 l 1,10,-1
 170 300 l 1,11,-1
 170 0 l 1,0,-1
EndSplineSet
EndChar

StartChar: I
Encoding: 73 73 44
Width: 310
GlyphClass: 2
Flags: W
LayerCount: 2
Fore
SplineSet
240 60 m 1,0,-1
 240 0 l 1,1,-1
 70 0 l 1,2,-1
 70 60 l 1,3,-1
 120 60 l 1,4,-1
 120 590 l 1,5,-1
 70 590 l 1,6,-1
 70 650 l 1,7,-1
 240 650 l 1,8,-1
 240 590 l 1,9,-1
 190 590 l 1,10,-1
 190 60 l 1,11,-1
 240 60 l 1,0,-1
EndSplineSet
EndChar

StartChar: J
Encoding: 74 74 45
Width: 380
GlyphClass: 2
Flags: W
LayerCount: 2
Fore
SplineSet
90 650 m 1,0,-1
 290 650 l 1,1,-1
 290 115 l 2,2,3
 290 51 290 51 254 18 c 128,-1,4
 218 -15 218 -15 154 -15 c 128,-1,5
 90 -15 90 -15 55 18 c 128,-1,6
 20 51 20 51 20 115 c 2,7,-1
 20 180 l 1,8,-1
 90 180 l 1,9,-1
 90 111 l 2,10,11
 90 45 90 45 154 45 c 0,12,13
 220 45 220 45 220 111 c 2,14,-1
 220 590 l 1,15,-1
 90 590 l 1,16,-1
 90 650 l 1,0,-1
EndSplineSet
EndChar

StartChar: K
Encoding: 75 75 46
Width: 455
GlyphClass: 2
Flags: W
LayerCount: 2
Fore
SplineSet
171 0 m 1,0,-1
 101 0 l 1,1,-1
 101 650 l 1,2,-1
 171 650 l 1,3,-1
 171 374 l 1,4,-1
 345 650 l 1,5,-1
 423 650 l 1,6,-1
 246 370 l 1,7,-1
 435 0 l 1,8,-1
 358 0 l 1,9,-1
 204 303 l 1,10,-1
 171 250 l 1,11,-1
 171 0 l 1,0,-1
EndSplineSet
EndChar

StartChar: L
Encoding: 76 76 47
Width: 373
GlyphClass: 2
Flags: W
LayerCount: 2
Fore
SplineSet
100 0 m 1,0,-1
 100 650 l 1,1,-1
 170 650 l 1,2,-1
 170 60 l 1,3,-1
 353 60 l 1,4,-1
 353 0 l 1,5,-1
 100 0 l 1,0,-1
EndSplineSet
EndChar

StartChar: M
Encoding: 77 77 48
Width: 639
GlyphClass: 2
Flags: W
LayerCount: 2
Fore
SplineSet
170 0 m 1,0,-1
 100 0 l 1,1,-1
 100 650 l 1,2,-1
 205 650 l 1,3,-1
 319 221 l 1,4,-1
 434 650 l 1,5,-1
 539 650 l 1,6,-1
 539 0 l 1,7,-1
 469 0 l 1,8,-1
 469 538 l 1,9,-1
 352 100 l 1,10,-1
 287 100 l 1,11,-1
 170 538 l 1,12,-1
 170 0 l 1,0,-1
EndSplineSet
EndChar

StartChar: N
Encoding: 78 78 49
Width: 557
GlyphClass: 2
Flags: W
LayerCount: 2
Fore
SplineSet
170 0 m 1,0,-1
 100 0 l 1,1,-1
 100 650 l 1,2,-1
 170 650 l 1,3,-1
 387 150 l 1,4,-1
 387 650 l 1,5,-1
 457 650 l 1,6,-1
 457 0 l 1,7,-1
 387 0 l 1,8,-1
 170 500 l 1,9,-1
 170 0 l 1,0,-1
EndSplineSet
EndChar

StartChar: O
Encoding: 79 79 50
Width: 510
GlyphClass: 2
Flags: W
LayerCount: 2
Fore
SplineSet
425 525 m 2,0,-1
 425 125 l 2,1,2
 425 58 425 58 382.5 21.5 c 128,-1,3
 340 -15 340 -15 255.5 -15 c 128,-1,4
 171 -15 171 -15 128 21.5 c 128,-1,5
 85 58 85 58 85 125 c 2,6,-1
 85 525 l 2,7,8
 85 592 85 592 127.5 628.5 c 128,-1,9
 170 665 170 665 254.5 665 c 128,-1,10
 339 665 339 665 382 628.5 c 128,-1,11
 425 592 425 592 425 525 c 2,0,-1
355 125 m 2,12,-1
 355 525 l 2,13,14
 355 605 355 605 255 605 c 128,-1,15
 155 605 155 605 155 525 c 2,16,-1
 155 125 l 2,17,18
 155 45 155 45 255 45 c 128,-1,19
 355 45 355 45 355 125 c 2,12,-1
EndSplineSet
EndChar

StartChar: P
Encoding: 80 80 51
Width: 460
GlyphClass: 2
Flags: W
LayerCount: 2
Fore
SplineSet
160 0 m 1,0,-1
 90 0 l 1,1,-1
 90 650 l 1,2,-1
 241 650 l 2,3,4
 319 650 319 650 359.5 613 c 128,-1,5
 400 576 400 576 400 510 c 2,6,-1
 400 340 l 2,7,8
 400 273 400 273 360 236.5 c 128,-1,9
 320 200 320 200 241 200 c 2,10,-1
 160 200 l 1,11,-1
 160 0 l 1,0,-1
330 340 m 2,12,-1
 330 510 l 2,13,14
 330 548 330 548 307 569 c 128,-1,15
 284 590 284 590 241 590 c 2,16,-1
 160 590 l 1,17,-1
 160 260 l 1,18,-1
 241 260 l 2,19,20
 330 260 330 260 330 340 c 2,12,-1
EndSplineSet
EndChar

StartChar: Q
Encoding: 81 81 52
Width: 510
GlyphClass: 2
Flags: W
LayerCount: 2
Fore
SplineSet
425 525 m 2,0,-1
 425 125 l 2,1,2
 425 2 425 2 290 -13 c 1,3,-1
 320 -142 l 1,4,-1
 260 -142 l 1,5,-1
 230 -14 l 1,6,7
 85 -2 85 -2 85 125 c 2,8,-1
 85 525 l 2,9,10
 85 592 85 592 127.5 628.5 c 128,-1,11
 170 665 170 665 254.5 665 c 128,-1,12
 339 665 339 665 382 628.5 c 128,-1,13
 425 592 425 592 425 525 c 2,0,-1
355 125 m 2,14,-1
 355 525 l 2,15,16
 355 605 355 605 255 605 c 128,-1,17
 155 605 155 605 155 525 c 2,18,-1
 155 125 l 2,19,20
 155 45 155 45 255 45 c 128,-1,21
 355 45 355 45 355 125 c 2,14,-1
EndSplineSet
EndChar

StartChar: R
Encoding: 82 82 53
Width: 485
GlyphClass: 2
Flags: W
LayerCount: 2
Fore
SplineSet
170 0 m 1,0,-1
 100 0 l 1,1,-1
 100 650 l 1,2,-1
 251 650 l 2,3,4
 329 650 329 650 369.5 613 c 128,-1,5
 410 576 410 576 410 510 c 2,6,-1
 410 370 l 2,7,8
 410 268 410 268 322 240 c 1,9,-1
 445 0 l 1,10,-1
 368 0 l 1,11,-1
 251 230 l 1,12,-1
 170 230 l 1,13,-1
 170 0 l 1,0,-1
340 370 m 2,14,-1
 340 510 l 2,15,16
 340 548 340 548 317 569 c 128,-1,17
 294 590 294 590 251 590 c 2,18,-1
 170 590 l 1,19,-1
 170 290 l 1,20,-1
 251 290 l 2,21,22
 340 290 340 290 340 370 c 2,14,-1
EndSplineSet
EndChar

StartChar: S
Encoding: 83 83 54
Width: 498
GlyphClass: 2
Flags: W
LayerCount: 2
Fore
SplineSet
418 125 m 0,0,1
 418 -15 418 -15 249 -15 c 128,-1,2
 80 -15 80 -15 80 125 c 2,3,-1
 80 210 l 1,4,-1
 150 210 l 1,5,-1
 150 121 l 2,6,7
 150 85 150 85 175 65 c 128,-1,8
 200 45 200 45 249 45 c 128,-1,9
 298 45 298 45 323 65 c 128,-1,10
 348 85 348 85 348 119.5 c 128,-1,11
 348 154 348 154 340.5 174.5 c 128,-1,12
 333 195 333 195 310 218 c 2,13,-1
 134 390 l 2,14,15
 103 421 103 421 91.5 450.5 c 128,-1,16
 80 480 80 480 80 525 c 0,17,18
 80 592 80 592 121.5 628.5 c 128,-1,19
 163 665 163 665 247 665 c 0,20,21
 408 665 408 665 408 525 c 2,22,-1
 408 440 l 1,23,-1
 338 440 l 1,24,-1
 338 529 l 2,25,26
 338 565 338 565 314.5 585 c 128,-1,27
 291 605 291 605 244 605 c 128,-1,28
 197 605 197 605 173.5 585 c 128,-1,29
 150 565 150 565 150 530 c 128,-1,30
 150 495 150 495 157 475 c 128,-1,31
 164 455 164 455 188 433 c 2,32,-1
 367 261 l 1,33,34
 396 229 396 229 407 199.5 c 128,-1,35
 418 170 418 170 418 125 c 0,0,1
EndSplineSet
EndChar

StartChar: T
Encoding: 84 84 55
Width: 390
GlyphClass: 2
Flags: W
LayerCount: 2
Fore
SplineSet
360 650 m 1,0,-1
 360 590 l 1,1,-1
 230 590 l 1,2,-1
 230 0 l 1,3,-1
 160 0 l 1,4,-1
 160 590 l 1,5,-1
 30 590 l 1,6,-1
 30 650 l 1,7,-1
 360 650 l 1,0,-1
EndSplineSet
EndChar

StartChar: U
Encoding: 85 85 56
Width: 520
GlyphClass: 2
Flags: W
LayerCount: 2
Fore
SplineSet
360 125 m 2,0,-1
 360 650 l 1,1,-1
 430 650 l 1,2,-1
 430 125 l 2,3,4
 430 58 430 58 387.5 21.5 c 128,-1,5
 345 -15 345 -15 260.5 -15 c 128,-1,6
 176 -15 176 -15 133 21.5 c 128,-1,7
 90 58 90 58 90 125 c 2,8,-1
 90 650 l 1,9,-1
 160 650 l 1,10,-1
 160 125 l 2,11,12
 160 45 160 45 260 45 c 128,-1,13
 360 45 360 45 360 125 c 2,0,-1
EndSplineSet
EndChar

StartChar: V
Encoding: 86 86 57
Width: 479
GlyphClass: 2
Flags: W
LayerCount: 2
Fore
SplineSet
292 0 m 1,0,-1
 187 0 l 1,1,-1
 40 650 l 1,2,-1
 110 650 l 1,3,-1
 239 77 l 1,4,-1
 369 650 l 1,5,-1
 439 650 l 1,6,-1
 292 0 l 1,0,-1
EndSplineSet
EndChar

StartChar: W
Encoding: 87 87 58
Width: 683
GlyphClass: 2
Flags: W
LayerCount: 2
Fore
SplineSet
240 0 m 1,0,-1
 142 0 l 1,1,-1
 45 650 l 1,2,-1
 115 650 l 1,3,-1
 197 101 l 1,4,-1
 304 650 l 1,5,-1
 379 650 l 1,6,-1
 486 101 l 1,7,-1
 568 650 l 1,8,-1
 638 650 l 1,9,-1
 541 0 l 1,10,-1
 443 0 l 1,11,-1
 341 519 l 1,12,-1
 240 0 l 1,0,-1
EndSplineSet
EndChar

StartChar: X
Encoding: 88 88 59
Width: 452
GlyphClass: 2
Flags: W
LayerCount: 2
Fore
SplineSet
412 0 m 1,0,-1
 339 0 l 1,1,-1
 226 253 l 1,2,-1
 113 0 l 1,3,-1
 40 0 l 1,4,-1
 190 335 l 1,5,-1
 50 650 l 1,6,-1
 123 650 l 1,7,-1
 230 408 l 1,8,-1
 339 650 l 1,9,-1
 412 650 l 1,10,-1
 267 326 l 1,11,-1
 412 0 l 1,0,-1
EndSplineSet
EndChar

StartChar: Y
Encoding: 89 89 60
Width: 450
GlyphClass: 2
Flags: W
LayerCount: 2
Fore
SplineSet
260 0 m 1,0,-1
 190 0 l 1,1,-1
 190 233 l 1,2,-1
 25 650 l 1,3,-1
 99 650 l 1,4,-1
 225 315 l 1,5,-1
 351 650 l 1,6,-1
 425 650 l 1,7,-1
 260 232 l 1,8,-1
 260 0 l 1,0,-1
EndSplineSet
EndChar

StartChar: Z
Encoding: 90 90 61
Width: 417
GlyphClass: 2
Flags: W
LayerCount: 2
Fore
SplineSet
50 590 m 1,0,-1
 50 650 l 1,1,-1
 377 650 l 1,2,-1
 377 590 l 1,3,-1
 108 60 l 1,4,-1
 372 60 l 1,5,-1
 372 0 l 1,6,-1
 35 0 l 1,7,-1
 35 60 l 1,8,-1
 304 590 l 1,9,-1
 50 590 l 1,0,-1
EndSplineSet
EndChar

StartChar: bracketleft
Encoding: 91 91 62
Width: 322
GlyphClass: 2
Flags: W
LayerCount: 2
Fore
SplineSet
85 -60 m 1,0,-1
 85 710 l 1,1,-1
 257 710 l 1,2,-1
 257 650 l 1,3,-1
 155 650 l 1,4,-1
 155 0 l 1,5,-1
 256 0 l 1,6,-1
 256 -60 l 1,7,-1
 85 -60 l 1,0,-1
EndSplineSet
EndChar

StartChar: backslash
Encoding: 92 92 63
Width: 380
GlyphClass: 2
Flags: W
LayerCount: 2
Fore
SplineSet
320 -100 m 1,0,-1
 260 -100 l 1,1,-1
 60 750 l 1,2,-1
 120 750 l 1,3,-1
 320 -100 l 1,0,-1
EndSplineSet
EndChar

StartChar: bracketright
Encoding: 93 93 64
Width: 322
GlyphClass: 2
Flags: W
LayerCount: 2
Fore
SplineSet
197 710 m 1,0,-1
 197 -60 l 1,1,-1
 26 -60 l 1,2,-1
 26 0 l 1,3,-1
 127 0 l 1,4,-1
 127 650 l 1,5,-1
 25 650 l 1,6,-1
 25 710 l 1,7,-1
 197 710 l 1,0,-1
EndSplineSet
EndChar

StartChar: asciicircum
Encoding: 94 94 65
Width: 510
GlyphClass: 2
Flags: W
LayerCount: 2
Fore
SplineSet
233 650 m 1,0,-1
 277 650 l 1,1,-1
 410 422 l 1,2,-1
 357 395 l 1,3,-1
 255 573 l 1,4,-1
 153 395 l 1,5,-1
 100 422 l 1,6,-1
 233 650 l 1,0,-1
EndSplineSet
EndChar

StartChar: underscore
Encoding: 95 95 66
Width: 420
GlyphClass: 2
Flags: W
LayerCount: 2
Fore
SplineSet
401 0 m 1,0,-1
 401 -60 l 1,1,-1
 19 -60 l 1,2,-1
 19 0 l 1,3,-1
 401 0 l 1,0,-1
EndSplineSet
EndChar

StartChar: grave
Encoding: 96 96 67
Width: 317
GlyphClass: 2
Flags: W
LayerCount: 2
Fore
SplineSet
128 755 m 1,0,-1
 90 793 l 1,1,-1
 144 847 l 1,2,-1
 267 724 l 1,3,-1
 241 698 l 1,4,-1
 128 755 l 1,0,-1
EndSplineSet
EndChar

StartChar: a
Encoding: 97 97 68
Width: 500
GlyphClass: 2
Flags: W
LayerCount: 2
Fore
SplineSet
410 0 m 1,0,-1
 380 0 l 1,1,-1
 354 64 l 1,2,3
 333 28 333 28 299 6.5 c 128,-1,4
 265 -15 265 -15 224 -15 c 0,5,6
 80 -15 80 -15 80 125 c 2,7,-1
 80 225 l 2,8,9
 80 365 80 365 224 365 c 2,10,-1
 340 365 l 1,11,-1
 340 529 l 2,12,13
 340 565 340 565 317 585 c 128,-1,14
 294 605 294 605 249 605 c 0,15,16
 160 605 160 605 160 529 c 2,17,-1
 160 470 l 1,18,-1
 90 470 l 1,19,-1
 90 525 l 2,20,21
 90 592 90 592 129.5 628.5 c 128,-1,22
 169 665 169 665 249 665 c 128,-1,23
 329 665 329 665 369.5 628.5 c 128,-1,24
 410 592 410 592 410 525 c 2,25,-1
 410 0 l 1,0,-1
340 305 m 1,26,-1
 224 305 l 2,27,28
 182 305 182 305 166 284 c 128,-1,29
 150 263 150 263 150 225 c 2,30,-1
 150 125 l 2,31,32
 150 87 150 87 166 66 c 128,-1,33
 182 45 182 45 224 45 c 128,-1,34
 266 45 266 45 302 77.5 c 128,-1,35
 338 110 338 110 340 142 c 1,36,-1
 340 305 l 1,26,-1
EndSplineSet
EndChar

StartChar: b
Encoding: 98 98 69
Width: 505
GlyphClass: 2
Flags: W
LayerCount: 2
Fore
SplineSet
100 650 m 1,0,-1
 251 650 l 2,1,2
 329 650 329 650 369.5 613 c 128,-1,3
 410 576 410 576 410 510 c 2,4,-1
 410 450 l 2,5,6
 410 365 410 365 339 341 c 1,7,8
 420 319 420 319 420 230 c 2,9,-1
 420 140 l 2,10,11
 420 73 420 73 380 36.5 c 128,-1,12
 340 0 340 0 261 0 c 2,13,-1
 100 0 l 1,14,-1
 100 650 l 1,0,-1
350 140 m 2,15,-1
 350 230 l 2,16,17
 350 268 350 268 327 291.5 c 128,-1,18
 304 315 304 315 261 315 c 2,19,-1
 170 315 l 1,20,-1
 170 60 l 1,21,-1
 261 60 l 2,22,23
 350 60 350 60 350 140 c 2,15,-1
340 450 m 2,24,-1
 340 510 l 2,25,26
 340 548 340 548 317 569 c 128,-1,27
 294 590 294 590 251 590 c 2,28,-1
 170 590 l 1,29,-1
 170 365 l 1,30,-1
 251 365 l 2,31,32
 295 365 295 365 317.5 388 c 128,-1,33
 340 411 340 411 340 450 c 2,24,-1
EndSplineSet
EndChar

StartChar: c
Encoding: 99 99 70
Width: 490
GlyphClass: 2
Flags: W
LayerCount: 2
Fore
SplineSet
345 125 m 2,0,-1
 345 180 l 1,1,-1
 415 180 l 1,2,-1
 415 125 l 2,3,4
 415 58 415 58 374 21.5 c 128,-1,5
 333 -15 333 -15 251 -15 c 128,-1,6
 169 -15 169 -15 127 21.5 c 128,-1,7
 85 58 85 58 85 125 c 2,8,-1
 85 525 l 2,9,10
 85 592 85 592 126 628.5 c 128,-1,11
 167 665 167 665 249 665 c 128,-1,12
 331 665 331 665 373 628.5 c 128,-1,13
 415 592 415 592 415 525 c 2,14,-1
 415 430 l 1,15,-1
 345 430 l 1,16,-1
 345 525 l 2,17,18
 345 605 345 605 250 605 c 128,-1,19
 155 605 155 605 155 525 c 2,20,-1
 155 125 l 2,21,22
 155 45 155 45 250 45 c 128,-1,23
 345 45 345 45 345 125 c 2,0,-1
EndSplineSet
EndChar

StartChar: d
Encoding: 100 100 71
Width: 505
GlyphClass: 2
Flags: W
LayerCount: 2
Fore
SplineSet
261 0 m 2,0,-1
 100 0 l 1,1,-1
 100 650 l 1,2,-1
 261 650 l 2,3,4
 339 650 339 650 379.5 613 c 128,-1,5
 420 576 420 576 420 510 c 2,6,-1
 420 140 l 2,7,8
 420 73 420 73 380 36.5 c 128,-1,9
 340 0 340 0 261 0 c 2,0,-1
350 140 m 2,10,-1
 350 510 l 2,11,12
 350 548 350 548 327 569 c 128,-1,13
 304 590 304 590 261 590 c 2,14,-1
 170 590 l 1,15,-1
 170 60 l 1,16,-1
 261 60 l 2,17,18
 350 60 350 60 350 140 c 2,10,-1
EndSplineSet
EndChar

StartChar: e
Encoding: 101 101 72
Width: 500
GlyphClass: 2
Flags: W
LayerCount: 2
Fore
SplineSet
345 125 m 2,0,-1
 345 180 l 1,1,-1
 415 180 l 1,2,-1
 415 125 l 2,3,4
 415 58 415 58 374 21.5 c 128,-1,5
 333 -15 333 -15 251 -15 c 128,-1,6
 169 -15 169 -15 127 21.5 c 128,-1,7
 85 58 85 58 85 125 c 2,8,-1
 85 525 l 2,9,10
 85 592 85 592 126 628.5 c 128,-1,11
 167 665 167 665 249 665 c 128,-1,12
 331 665 331 665 373 628.5 c 128,-1,13
 415 592 415 592 415 525 c 2,14,-1
 415 305 l 1,15,-1
 155 305 l 1,16,-1
 155 125 l 2,17,18
 155 45 155 45 250 45 c 128,-1,19
 345 45 345 45 345 125 c 2,0,-1
155 525 m 2,20,-1
 155 365 l 1,21,-1
 345 365 l 1,22,-1
 345 525 l 2,23,24
 345 605 345 605 250 605 c 128,-1,25
 155 605 155 605 155 525 c 2,20,-1
EndSplineSet
EndChar

StartChar: f
Encoding: 102 102 73
Width: 415
GlyphClass: 2
Flags: W
LayerCount: 2
Fore
SplineSet
170 0 m 1,0,-1
 100 0 l 1,1,-1
 100 650 l 1,2,-1
 375 650 l 1,3,-1
 375 590 l 1,4,-1
 170 590 l 1,5,-1
 170 360 l 1,6,-1
 335 360 l 1,7,-1
 335 300 l 1,8,-1
 170 300 l 1,9,-1
 170 0 l 1,0,-1
EndSplineSet
EndChar

StartChar: g
Encoding: 103 103 74
Width: 500
GlyphClass: 2
Flags: W
LayerCount: 2
Fore
SplineSet
233 270 m 1,0,-1
 233 330 l 1,1,-1
 415 330 l 1,2,-1
 415 125 l 2,3,4
 415 58 415 58 374 21.5 c 128,-1,5
 333 -15 333 -15 251 -15 c 128,-1,6
 169 -15 169 -15 127 21.5 c 128,-1,7
 85 58 85 58 85 125 c 2,8,-1
 85 525 l 2,9,10
 85 592 85 592 126 628.5 c 128,-1,11
 167 665 167 665 249 665 c 128,-1,12
 331 665 331 665 373 628.5 c 128,-1,13
 415 592 415 592 415 525 c 2,14,-1
 415 470 l 1,15,-1
 345 470 l 1,16,-1
 345 525 l 2,17,18
 345 605 345 605 250 605 c 128,-1,19
 155 605 155 605 155 525 c 2,20,-1
 155 125 l 2,21,22
 155 45 155 45 250 45 c 128,-1,23
 345 45 345 45 345 125 c 2,24,-1
 345 270 l 1,25,-1
 233 270 l 1,0,-1
EndSplineSet
EndChar

StartChar: h
Encoding: 104 104 75
Width: 537
GlyphClass: 2
Flags: W
LayerCount: 2
Fore
SplineSet
170 0 m 1,0,-1
 100 0 l 1,1,-1
 100 650 l 1,2,-1
 170 650 l 1,3,-1
 170 360 l 1,4,-1
 367 360 l 1,5,-1
 367 650 l 1,6,-1
 437 650 l 1,7,-1
 437 0 l 1,8,-1
 367 0 l 1,9,-1
 367 300 l 1,10,-1
 170 300 l 1,11,-1
 170 0 l 1,0,-1
EndSplineSet
EndChar

StartChar: i
Encoding: 105 105 76
Width: 270
GlyphClass: 2
Flags: W
LayerCount: 2
Fore
SplineSet
170 0 m 1,0,-1
 100 0 l 1,1,-1
 100 650 l 1,2,-1
 170 650 l 1,3,-1
 170 0 l 1,0,-1
EndSplineSet
EndChar

StartChar: j
Encoding: 106 106 77
Width: 380
GlyphClass: 2
Flags: W
LayerCount: 2
Fore
SplineSet
220 650 m 1,0,-1
 290 650 l 1,1,-1
 290 115 l 2,2,3
 290 51 290 51 254 18 c 128,-1,4
 218 -15 218 -15 154 -15 c 128,-1,5
 90 -15 90 -15 55 18 c 128,-1,6
 20 51 20 51 20 115 c 2,7,-1
 20 180 l 1,8,-1
 90 180 l 1,9,-1
 90 111 l 2,10,11
 90 45 90 45 154 45 c 0,12,13
 220 45 220 45 220 111 c 2,14,-1
 220 650 l 1,0,-1
EndSplineSet
EndChar

StartChar: k
Encoding: 107 107 78
Width: 455
GlyphClass: 2
Flags: W
LayerCount: 2
Fore
SplineSet
171 0 m 1,0,-1
 101 0 l 1,1,-1
 101 650 l 1,2,-1
 171 650 l 1,3,-1
 171 374 l 1,4,-1
 345 650 l 1,5,-1
 423 650 l 1,6,-1
 246 370 l 1,7,-1
 435 0 l 1,8,-1
 358 0 l 1,9,-1
 204 303 l 1,10,-1
 171 250 l 1,11,-1
 171 0 l 1,0,-1
EndSplineSet
EndChar

StartChar: l
Encoding: 108 108 79
Width: 373
GlyphClass: 2
Flags: W
LayerCount: 2
Fore
SplineSet
100 0 m 1,0,-1
 100 650 l 1,1,-1
 170 650 l 1,2,-1
 170 60 l 1,3,-1
 353 60 l 1,4,-1
 353 0 l 1,5,-1
 100 0 l 1,0,-1
EndSplineSet
EndChar

StartChar: m
Encoding: 109 109 80
Width: 770
GlyphClass: 2
Flags: W
LayerCount: 2
Fore
SplineSet
170 0 m 1,0,-1
 100 0 l 1,1,-1
 100 650 l 1,2,-1
 130 650 l 1,3,-1
 155 586 l 1,4,5
 176 622 176 622 210 643.5 c 128,-1,6
 244 665 244 665 284 665 c 0,7,8
 385 665 385 665 413 592 c 1,9,10
 461 665 461 665 539 665 c 0,11,12
 680 665 680 665 680 525 c 2,13,-1
 680 0 l 1,14,-1
 610 0 l 1,15,-1
 610 525 l 2,16,17
 610 605 610 605 538 605 c 0,18,19
 496 605 496 605 460.5 571 c 128,-1,20
 425 537 425 537 425 505 c 2,21,-1
 425 0 l 1,22,-1
 355 0 l 1,23,-1
 355 525 l 2,24,25
 355 605 355 605 283 605 c 0,26,27
 241 605 241 605 205.5 572.5 c 128,-1,28
 170 540 170 540 170 508 c 2,29,-1
 170 0 l 1,0,-1
EndSplineSet
EndChar

StartChar: n
Encoding: 110 110 81
Width: 525
GlyphClass: 2
Flags: W
LayerCount: 2
Fore
SplineSet
170 0 m 1,0,-1
 100 0 l 1,1,-1
 100 650 l 1,2,-1
 130 650 l 1,3,-1
 155 585 l 1,4,5
 203 665 203 665 288 665 c 0,6,7
 435 665 435 665 435 525 c 2,8,-1
 435 0 l 1,9,-1
 365 0 l 1,10,-1
 365 525 l 2,11,12
 365 563 365 563 348.5 584 c 128,-1,13
 332 605 332 605 288 605 c 128,-1,14
 244 605 244 605 207 571 c 128,-1,15
 170 537 170 537 170 505 c 2,16,-1
 170 0 l 1,0,-1
EndSplineSet
EndChar

StartChar: o
Encoding: 111 111 82
Width: 510
GlyphClass: 2
Flags: W
LayerCount: 2
Fore
SplineSet
425 525 m 2,0,-1
 425 125 l 2,1,2
 425 58 425 58 382.5 21.5 c 128,-1,3
 340 -15 340 -15 255.5 -15 c 128,-1,4
 171 -15 171 -15 128 21.5 c 128,-1,5
 85 58 85 58 85 125 c 2,6,-1
 85 525 l 2,7,8
 85 592 85 592 127.5 628.5 c 128,-1,9
 170 665 170 665 254.5 665 c 128,-1,10
 339 665 339 665 382 628.5 c 128,-1,11
 425 592 425 592 425 525 c 2,0,-1
355 125 m 2,12,-1
 355 525 l 2,13,14
 355 605 355 605 255 605 c 128,-1,15
 155 605 155 605 155 525 c 2,16,-1
 155 125 l 2,17,18
 155 45 155 45 255 45 c 128,-1,19
 355 45 355 45 355 125 c 2,12,-1
EndSplineSet
EndChar

StartChar: p
Encoding: 112 112 83
Width: 460
GlyphClass: 2
Flags: W
LayerCount: 2
Fore
SplineSet
160 0 m 1,0,-1
 90 0 l 1,1,-1
 90 650 l 1,2,-1
 241 650 l 2,3,4
 319 650 319 650 359.5 613 c 128,-1,5
 400 576 400 576 400 510 c 2,6,-1
 400 340 l 2,7,8
 400 273 400 273 360 236.5 c 128,-1,9
 320 200 320 200 241 200 c 2,10,-1
 160 200 l 1,11,-1
 160 0 l 1,0,-1
330 340 m 2,12,-1
 330 510 l 2,13,14
 330 548 330 548 307 569 c 128,-1,15
 284 590 284 590 241 590 c 2,16,-1
 160 590 l 1,17,-1
 160 260 l 1,18,-1
 241 260 l 2,19,20
 330 260 330 260 330 340 c 2,12,-1
EndSplineSet
EndChar

StartChar: q
Encoding: 113 113 84
Width: 510
GlyphClass: 2
Flags: W
LayerCount: 2
Fore
SplineSet
425 525 m 2,0,-1
 425 125 l 2,1,2
 425 51 425 51 365 18 c 1,3,-1
 510 -10 l 1,4,-1
 499 -63 l 1,5,-1
 256 -15 l 1,6,7
 171 -15 171 -15 128 21.5 c 128,-1,8
 85 58 85 58 85 125 c 2,9,-1
 85 525 l 2,10,11
 85 592 85 592 127.5 628.5 c 128,-1,12
 170 665 170 665 254.5 665 c 128,-1,13
 339 665 339 665 382 628.5 c 128,-1,14
 425 592 425 592 425 525 c 2,0,-1
355 125 m 2,15,-1
 355 525 l 2,16,17
 355 605 355 605 255 605 c 128,-1,18
 155 605 155 605 155 525 c 2,19,-1
 155 125 l 2,20,21
 155 45 155 45 255 45 c 128,-1,22
 355 45 355 45 355 125 c 2,15,-1
EndSplineSet
EndChar

StartChar: r
Encoding: 114 114 85
Width: 400
GlyphClass: 2
Flags: W
LayerCount: 2
Fore
SplineSet
170 0 m 1,0,-1
 100 0 l 1,1,-1
 100 650 l 1,2,-1
 130 650 l 1,3,-1
 159 576 l 1,4,5
 191 665 191 665 261 665 c 0,6,7
 380 665 380 665 380 535 c 2,8,-1
 380 470 l 1,9,-1
 313 470 l 1,10,-1
 313 539 l 2,11,12
 313 605 313 605 258 605 c 0,13,14
 225 605 225 605 197.5 567 c 128,-1,15
 170 529 170 529 170 457 c 2,16,-1
 170 0 l 1,0,-1
EndSplineSet
EndChar

StartChar: s
Encoding: 115 115 86
Width: 498
GlyphClass: 2
Flags: W
LayerCount: 2
Fore
SplineSet
418 125 m 0,0,1
 418 -15 418 -15 249 -15 c 128,-1,2
 80 -15 80 -15 80 125 c 2,3,-1
 80 210 l 1,4,-1
 150 210 l 1,5,-1
 150 121 l 2,6,7
 150 85 150 85 175 65 c 128,-1,8
 200 45 200 45 249 45 c 128,-1,9
 298 45 298 45 323 65 c 128,-1,10
 348 85 348 85 348 119.5 c 128,-1,11
 348 154 348 154 340.5 174.5 c 128,-1,12
 333 195 333 195 310 218 c 2,13,-1
 134 390 l 2,14,15
 103 421 103 421 91.5 450.5 c 128,-1,16
 80 480 80 480 80 525 c 0,17,18
 80 592 80 592 121.5 628.5 c 128,-1,19
 163 665 163 665 247 665 c 0,20,21
 408 665 408 665 408 525 c 2,22,-1
 408 440 l 1,23,-1
 338 440 l 1,24,-1
 338 529 l 2,25,26
 338 565 338 565 314.5 585 c 128,-1,27
 291 605 291 605 244 605 c 128,-1,28
 197 605 197 605 173.5 585 c 128,-1,29
 150 565 150 565 150 530 c 128,-1,30
 150 495 150 495 157 475 c 128,-1,31
 164 455 164 455 188 433 c 2,32,-1
 367 261 l 1,33,34
 396 229 396 229 407 199.5 c 128,-1,35
 418 170 418 170 418 125 c 0,0,1
EndSplineSet
EndChar

StartChar: t
Encoding: 116 116 87
Width: 375
GlyphClass: 2
Flags: W
LayerCount: 2
Fore
SplineSet
85 650 m 1,0,-1
 305 650 l 1,1,-1
 305 590 l 1,2,-1
 155 590 l 1,3,-1
 155 111 l 2,4,5
 155 83 155 83 169.5 64 c 128,-1,6
 184 45 184 45 210.5 45 c 128,-1,7
 237 45 237 45 251 63.5 c 128,-1,8
 265 82 265 82 265 111 c 2,9,-1
 265 230 l 1,10,-1
 335 230 l 1,11,-1
 335 115 l 2,12,13
 335 52 335 52 301.5 18.5 c 128,-1,14
 268 -15 268 -15 211 -15 c 128,-1,15
 154 -15 154 -15 119.5 18.5 c 128,-1,16
 85 52 85 52 85 115 c 2,17,-1
 85 650 l 1,0,-1
EndSplineSet
EndChar

StartChar: u
Encoding: 117 117 88
Width: 525
GlyphClass: 2
Flags: W
LayerCount: 2
Fore
SplineSet
90 125 m 2,0,-1
 90 650 l 1,1,-1
 160 650 l 1,2,-1
 160 125 l 2,3,4
 160 87 160 87 176.5 66 c 128,-1,5
 193 45 193 45 237 45 c 128,-1,6
 281 45 281 45 318 79 c 128,-1,7
 355 113 355 113 355 145 c 2,8,-1
 355 650 l 1,9,-1
 425 650 l 1,10,-1
 425 0 l 1,11,-1
 395 0 l 1,12,-1
 369 64 l 1,13,14
 347 28 347 28 312.5 6.5 c 128,-1,15
 278 -15 278 -15 237 -15 c 0,16,17
 90 -15 90 -15 90 125 c 2,0,-1
EndSplineSet
EndChar

StartChar: v
Encoding: 118 118 89
Width: 479
GlyphClass: 2
Flags: W
LayerCount: 2
Fore
SplineSet
292 0 m 1,0,-1
 187 0 l 1,1,-1
 40 650 l 1,2,-1
 110 650 l 1,3,-1
 239 77 l 1,4,-1
 369 650 l 1,5,-1
 439 650 l 1,6,-1
 292 0 l 1,0,-1
EndSplineSet
EndChar

StartChar: w
Encoding: 119 119 90
Width: 760
GlyphClass: 2
Flags: W
LayerCount: 2
Fore
SplineSet
345 125 m 2,0,-1
 345 650 l 1,1,-1
 415 650 l 1,2,-1
 415 125 l 2,3,4
 415 45 415 45 507.5 45 c 128,-1,5
 600 45 600 45 600 125 c 2,6,-1
 600 650 l 1,7,-1
 670 650 l 1,8,-1
 670 125 l 2,9,10
 670 59 670 59 628 22 c 128,-1,11
 586 -15 586 -15 503.5 -15 c 128,-1,12
 421 -15 421 -15 380 43 c 1,13,14
 341 -15 341 -15 257.5 -15 c 128,-1,15
 174 -15 174 -15 132 22 c 128,-1,16
 90 59 90 59 90 125 c 2,17,-1
 90 650 l 1,18,-1
 160 650 l 1,19,-1
 160 125 l 2,20,21
 160 45 160 45 252.5 45 c 128,-1,22
 345 45 345 45 345 125 c 2,0,-1
EndSplineSet
EndChar

StartChar: x
Encoding: 120 120 91
Width: 452
GlyphClass: 2
Flags: W
LayerCount: 2
Fore
SplineSet
412 0 m 1,0,-1
 339 0 l 1,1,-1
 226 253 l 1,2,-1
 113 0 l 1,3,-1
 40 0 l 1,4,-1
 190 335 l 1,5,-1
 50 650 l 1,6,-1
 123 650 l 1,7,-1
 230 408 l 1,8,-1
 339 650 l 1,9,-1
 412 650 l 1,10,-1
 267 326 l 1,11,-1
 412 0 l 1,0,-1
EndSplineSet
EndChar

StartChar: y
Encoding: 121 121 92
Width: 470
GlyphClass: 2
Flags: W
LayerCount: 2
Fore
SplineSet
271 0 m 1,0,-1
 201 0 l 1,1,-1
 201 184 l 1,2,3
 65 199 65 199 65 322 c 2,4,-1
 65 650 l 1,5,-1
 135 650 l 1,6,-1
 135 322 l 2,7,8
 135 242 135 242 235 242 c 128,-1,9
 335 242 335 242 335 322 c 2,10,-1
 335 650 l 1,11,-1
 405 650 l 1,12,-1
 405 322 l 2,13,14
 405 199 405 199 271 184 c 1,15,-1
 271 0 l 1,0,-1
EndSplineSet
EndChar

StartChar: z
Encoding: 122 122 93
Width: 417
GlyphClass: 2
Flags: W
LayerCount: 2
Fore
SplineSet
50 590 m 1,0,-1
 50 650 l 1,1,-1
 377 650 l 1,2,-1
 377 590 l 1,3,-1
 108 60 l 1,4,-1
 372 60 l 1,5,-1
 372 0 l 1,6,-1
 35 0 l 1,7,-1
 35 60 l 1,8,-1
 304 590 l 1,9,-1
 50 590 l 1,0,-1
EndSplineSet
EndChar

StartChar: braceleft
Encoding: 123 123 94
Width: 322
GlyphClass: 2
Flags: W
LayerCount: 2
Fore
SplineSet
85 75 m 2,0,-1
 85 244 l 2,1,2
 85 266 85 266 69.5 283 c 128,-1,3
 54 300 54 300 26 300 c 1,4,-1
 26 350 l 1,5,6
 54 350 54 350 69.5 367 c 128,-1,7
 85 384 85 384 85 406 c 2,8,-1
 85 575 l 2,9,10
 85 642 85 642 128 678.5 c 128,-1,11
 171 715 171 715 257 715 c 1,12,-1
 257 655 l 1,13,14
 155 655 155 655 155 575 c 2,15,-1
 155 406 l 2,16,17
 155 344 155 344 85 328 c 1,18,-1
 85 320 l 1,19,20
 155 304 155 304 155 244 c 2,21,-1
 155 75 l 2,22,23
 155 -5 155 -5 257 -5 c 1,24,-1
 257 -65 l 1,25,26
 171 -65 171 -65 128 -28.5 c 128,-1,27
 85 8 85 8 85 75 c 2,0,-1
EndSplineSet
EndChar

StartChar: bar
Encoding: 124 124 95
Width: 270
GlyphClass: 2
Flags: W
LayerCount: 2
Fore
SplineSet
110 -100 m 1,0,-1
 110 750 l 1,1,-1
 170 750 l 1,2,-1
 170 -100 l 1,3,-1
 110 -100 l 1,0,-1
EndSplineSet
EndChar

StartChar: braceright
Encoding: 125 125 96
Width: 322
GlyphClass: 2
Flags: W
LayerCount: 2
Fore
SplineSet
197 244 m 2,0,-1
 197 75 l 2,1,2
 197 8 197 8 154 -28.5 c 128,-1,3
 111 -65 111 -65 25 -65 c 1,4,-1
 25 -5 l 1,5,6
 127 -5 127 -5 127 75 c 2,7,-1
 127 244 l 2,8,9
 127 304 127 304 197 320 c 1,10,-1
 197 328 l 1,11,12
 127 344 127 344 127 406 c 2,13,-1
 127 575 l 2,14,15
 127 655 127 655 25 655 c 1,16,-1
 25 715 l 1,17,18
 111 715 111 715 154 678.5 c 128,-1,19
 197 642 197 642 197 575 c 2,20,-1
 197 406 l 2,21,22
 197 384 197 384 212.5 367 c 128,-1,23
 228 350 228 350 256 350 c 1,24,-1
 256 300 l 1,25,26
 228 300 228 300 212.5 283 c 128,-1,27
 197 266 197 266 197 244 c 2,0,-1
EndSplineSet
EndChar

StartChar: asciitilde
Encoding: 126 126 97
Width: 510
GlyphClass: 2
Flags: W
LayerCount: 2
Fore
SplineSet
415 295 m 1,0,1
 381 318 381 318 347 318 c 128,-1,2
 313 318 313 318 256.5 293.5 c 128,-1,3
 200 269 200 269 162.5 269 c 128,-1,4
 125 269 125 269 95 295 c 1,5,-1
 95 355 l 1,6,7
 126 329 126 329 159 329 c 128,-1,8
 192 329 192 329 248.5 353.5 c 128,-1,9
 305 378 305 378 341.5 378 c 128,-1,10
 378 378 378 378 415 355 c 1,11,-1
 415 295 l 1,0,1
EndSplineSet
EndChar

StartChar: exclamdown
Encoding: 161 161 99
Width: 290
GlyphClass: 2
Flags: W
LayerCount: 2
Fore
SplineSet
110 650 m 1,0,-1
 180 650 l 1,1,-1
 180 540 l 1,2,-1
 110 540 l 1,3,-1
 110 650 l 1,0,-1
105 0 m 1,4,-1
 105 245 l 1,5,-1
 120 440 l 1,6,-1
 170 440 l 1,7,-1
 185 245 l 1,8,-1
 185 0 l 1,9,-1
 105 0 l 1,4,-1
EndSplineSet
EndChar

StartChar: cent
Encoding: 162 162 100
Width: 510
GlyphClass: 2
Flags: W
LayerCount: 2
Fore
SplineSet
245 -100 m 1,0,-1
 245 35 l 1,1,2
 171 39 171 39 133 75.5 c 128,-1,3
 95 112 95 112 95 175 c 2,4,-1
 95 475 l 2,5,6
 95 608 95 608 245 614 c 1,7,-1
 245 750 l 1,8,-1
 295 750 l 1,9,-1
 295 613 l 1,10,11
 359 605 359 605 392 569.5 c 128,-1,12
 425 534 425 534 425 475 c 2,13,-1
 425 410 l 1,14,-1
 355 410 l 1,15,-1
 355 475 l 2,16,17
 355 536 355 536 295 551 c 1,18,-1
 295 98 l 1,19,20
 355 111 355 111 355 175 c 2,21,-1
 355 200 l 1,22,-1
 425 200 l 1,23,-1
 425 175 l 2,24,25
 425 52 425 52 295 37 c 1,26,-1
 295 -100 l 1,27,-1
 245 -100 l 1,0,-1
165 175 m 2,28,29
 165 102 165 102 245 95 c 1,30,-1
 245 554 l 1,31,32
 165 548 165 548 165 475 c 2,33,-1
 165 175 l 2,28,29
EndSplineSet
EndChar

StartChar: sterling
Encoding: 163 163 101
Width: 510
GlyphClass: 2
Flags: W
LayerCount: 2
Fore
SplineSet
428 60 m 1,0,-1
 428 0 l 1,1,-1
 61 0 l 1,2,-1
 91 55 l 1,3,-1
 95 260 l 1,4,-1
 50 260 l 1,5,-1
 50 310 l 1,6,-1
 96 310 l 1,7,-1
 100 525 l 2,8,9
 103 665 103 665 267 665 c 0,10,11
 342 665 342 665 380 628.5 c 128,-1,12
 418 592 418 592 418 525 c 2,13,-1
 418 440 l 1,14,-1
 348 440 l 1,15,-1
 348 529 l 2,16,17
 348 565 348 565 327 585 c 128,-1,18
 306 605 306 605 264 605 c 0,19,20
 172 605 172 605 170 529 c 2,21,-1
 166 310 l 1,22,-1
 358 310 l 1,23,-1
 358 260 l 1,24,-1
 165 260 l 1,25,-1
 161 60 l 1,26,-1
 428 60 l 1,0,-1
EndSplineSet
EndChar

StartChar: currency
Encoding: 164 164 102
Width: 510
GlyphClass: 2
Flags: W
LayerCount: 2
Fore
SplineSet
406 350 m 2,0,-1
 406 300 l 2,1,2
 406 256 406 256 390 225 c 1,3,-1
 488 127 l 1,4,-1
 453 92 l 1,5,-1
 358 187 l 1,6,7
 322 160 322 160 257 160 c 128,-1,8
 192 160 192 160 153 188 c 1,9,-1
 57 92 l 1,10,-1
 22 127 l 1,11,-1
 121 226 l 1,12,13
 106 257 106 257 106 300 c 2,14,-1
 106 350 l 2,15,16
 106 395 106 395 121 424 c 1,17,-1
 22 523 l 1,18,-1
 57 558 l 1,19,-1
 153 462 l 1,20,21
 190 490 190 490 254 490 c 128,-1,22
 318 490 318 490 357 462 c 1,23,-1
 453 558 l 1,24,-1
 488 523 l 1,25,-1
 390 425 l 1,26,27
 406 394 406 394 406 350 c 2,0,-1
336 300 m 2,28,-1
 336 350 l 2,29,30
 336 430 336 430 255 430 c 0,31,32
 176 430 176 430 176 350 c 2,33,-1
 176 300 l 2,34,35
 176 220 176 220 257 220 c 0,36,37
 336 220 336 220 336 300 c 2,28,-1
EndSplineSet
EndChar

StartChar: yen
Encoding: 165 165 103
Width: 510
GlyphClass: 2
Flags: W
LayerCount: 2
Fore
SplineSet
290 0 m 1,0,-1
 220 0 l 1,1,-1
 220 110 l 1,2,-1
 75 110 l 1,3,-1
 75 160 l 1,4,-1
 220 160 l 1,5,-1
 220 233 l 1,6,-1
 209 260 l 1,7,-1
 75 260 l 1,8,-1
 75 310 l 1,9,-1
 189 310 l 1,10,-1
 55 650 l 1,11,-1
 129 650 l 1,12,-1
 255 315 l 1,13,-1
 381 650 l 1,14,-1
 455 650 l 1,15,-1
 320 310 l 1,16,-1
 435 310 l 1,17,-1
 435 260 l 1,18,-1
 300 260 l 1,19,-1
 290 233 l 1,20,-1
 290 160 l 1,21,-1
 435 160 l 1,22,-1
 435 110 l 1,23,-1
 290 110 l 1,24,-1
 290 0 l 1,0,-1
EndSplineSet
EndChar

StartChar: brokenbar
Encoding: 166 166 104
Width: 270
GlyphClass: 2
Flags: W
LayerCount: 2
Fore
SplineSet
110 -100 m 1,0,-1
 110 220 l 1,1,-1
 170 220 l 1,2,-1
 170 -100 l 1,3,-1
 110 -100 l 1,0,-1
110 430 m 1,4,-1
 110 750 l 1,5,-1
 170 750 l 1,6,-1
 170 430 l 1,7,-1
 110 430 l 1,4,-1
EndSplineSet
EndChar

StartChar: section
Encoding: 167 167 105
Width: 478
GlyphClass: 2
Flags: W
LayerCount: 2
Fore
SplineSet
150 340 m 1,0,-1
 211 340 l 1,1,-1
 350 202 l 2,2,3
 408 144 408 144 408 80 c 2,4,-1
 408 70 l 2,5,6
 408 3 408 3 366.5 -33.5 c 128,-1,7
 325 -70 325 -70 241 -70 c 0,8,9
 80 -70 80 -70 80 70 c 2,10,-1
 80 125 l 1,11,-1
 150 125 l 1,12,-1
 150 66 l 2,13,14
 150 30 150 30 173.5 10 c 128,-1,15
 197 -10 197 -10 244 -10 c 128,-1,16
 291 -10 291 -10 314.5 10 c 128,-1,17
 338 30 338 30 338 66 c 2,18,-1
 338 80 l 2,19,20
 338 104 338 104 323.5 125.5 c 128,-1,21
 309 147 309 147 257 199 c 2,22,-1
 150 305 l 1,23,-1
 150 340 l 1,0,-1
328 325 m 1,24,-1
 267 325 l 1,25,-1
 128 463 l 2,26,27
 70 521 70 521 70 585 c 2,28,-1
 70 595 l 2,29,30
 70 662 70 662 111.5 698.5 c 128,-1,31
 153 735 153 735 237 735 c 0,32,33
 398 735 398 735 398 595 c 2,34,-1
 398 540 l 1,35,-1
 328 540 l 1,36,-1
 328 599 l 2,37,38
 328 635 328 635 304.5 655 c 128,-1,39
 281 675 281 675 234 675 c 128,-1,40
 187 675 187 675 163.5 655 c 128,-1,41
 140 635 140 635 140 599 c 2,42,-1
 140 585 l 2,43,44
 140 561 140 561 154.5 539.5 c 128,-1,45
 169 518 169 518 221 466 c 2,46,-1
 328 360 l 1,47,-1
 328 325 l 1,24,-1
EndSplineSet
EndChar

StartChar: dieresis
Encoding: 168 168 106
Width: 380
GlyphClass: 2
Flags: W
LayerCount: 2
Fore
SplineSet
155 715 m 1,0,-1
 85 715 l 1,1,-1
 85 825 l 1,2,-1
 155 825 l 1,3,-1
 155 715 l 1,0,-1
295 715 m 1,4,-1
 225 715 l 1,5,-1
 225 825 l 1,6,-1
 295 825 l 1,7,-1
 295 715 l 1,4,-1
EndSplineSet
EndChar

StartChar: copyright
Encoding: 169 169 107
Width: 500
GlyphClass: 2
Flags: W
LayerCount: 2
Fore
SplineSet
289 366 m 2,0,-1
 289 400 l 1,1,-1
 337 400 l 1,2,-1
 337 366 l 2,3,4
 337 330 337 330 315 310 c 128,-1,5
 293 290 293 290 249.5 290 c 128,-1,6
 206 290 206 290 184 310 c 128,-1,7
 162 330 162 330 162 366 c 2,8,-1
 162 519 l 2,9,10
 162 595 162 595 249.5 595 c 128,-1,11
 337 595 337 595 337 519 c 2,12,-1
 337 466 l 1,13,-1
 289 466 l 1,14,-1
 289 519 l 2,15,16
 289 552 289 552 249.5 552 c 128,-1,17
 210 552 210 552 210 519 c 2,18,-1
 210 366 l 2,19,20
 210 333 210 333 249.5 333 c 128,-1,21
 289 333 289 333 289 366 c 2,0,-1
420 525 m 2,22,-1
 420 358 l 2,23,24
 420 291 420 291 377.5 254.5 c 128,-1,25
 335 218 335 218 250.5 218 c 128,-1,26
 166 218 166 218 123 254.5 c 128,-1,27
 80 291 80 291 80 358 c 2,28,-1
 80 525 l 2,29,30
 80 592 80 592 122.5 628.5 c 128,-1,31
 165 665 165 665 249.5 665 c 128,-1,32
 334 665 334 665 377 628.5 c 128,-1,33
 420 592 420 592 420 525 c 2,22,-1
385 358 m 2,34,-1
 385 525 l 2,35,36
 385 635 385 635 250 635 c 128,-1,37
 115 635 115 635 115 525 c 2,38,-1
 115 358 l 2,39,40
 115 248 115 248 250 248 c 128,-1,41
 385 248 385 248 385 358 c 2,34,-1
EndSplineSet
EndChar

StartChar: ordfeminine
Encoding: 170 170 108
Width: 344
GlyphClass: 2
Flags: W
LayerCount: 2
Fore
SplineSet
254 398 m 1,0,-1
 238 398 l 1,1,-1
 219 430 l 1,2,3
 194 390 194 390 157 390 c 0,4,5
 80 390 80 390 80 465 c 2,6,-1
 80 483 l 2,7,8
 80 558 80 558 157 558 c 2,9,-1
 207 558 l 1,10,-1
 207 622 l 2,11,12
 207 653 207 653 169.5 653 c 128,-1,13
 132 653 132 653 132 622 c 2,14,-1
 132 597 l 1,15,-1
 85 597 l 1,16,-1
 85 620 l 2,17,18
 85 695 85 695 169.5 695 c 128,-1,19
 254 695 254 695 254 620 c 2,20,-1
 254 398 l 1,0,-1
157 433 m 0,21,22
 175 433 175 433 191 446.5 c 128,-1,23
 207 460 207 460 207 473 c 2,24,-1
 207 517 l 1,25,-1
 157 517 l 2,26,27
 128 517 128 517 128 485 c 2,28,-1
 128 465 l 2,29,30
 128 433 128 433 157 433 c 0,21,22
EndSplineSet
EndChar

StartChar: guillemotleft
Encoding: 171 171 109
Width: 452
GlyphClass: 2
Flags: W
LayerCount: 2
Fore
SplineSet
125 325 m 1,0,-1
 242 176 l 1,1,-1
 193 133 l 1,2,-1
 60 303 l 1,3,-1
 60 347 l 1,4,-1
 193 517 l 1,5,-1
 242 474 l 1,6,-1
 125 325 l 1,0,-1
295 325 m 1,7,-1
 412 176 l 1,8,-1
 363 133 l 1,9,-1
 230 303 l 1,10,-1
 230 347 l 1,11,-1
 363 517 l 1,12,-1
 412 474 l 1,13,-1
 295 325 l 1,7,-1
EndSplineSet
EndChar

StartChar: logicalnot
Encoding: 172 172 110
Width: 510
GlyphClass: 2
Flags: W
LayerCount: 2
Fore
SplineSet
361 295 m 1,0,-1
 95 295 l 1,1,-1
 95 355 l 1,2,-1
 415 355 l 1,3,-1
 415 175 l 1,4,-1
 361 175 l 1,5,-1
 361 295 l 1,0,-1
EndSplineSet
EndChar

StartChar: registered
Encoding: 174 174 111
Width: 500
GlyphClass: 2
Flags: W
LayerCount: 2
Fore
SplineSet
420 525 m 2,0,-1
 420 358 l 2,1,2
 420 291 420 291 377.5 254.5 c 128,-1,3
 335 218 335 218 250.5 218 c 128,-1,4
 166 218 166 218 123 254.5 c 128,-1,5
 80 291 80 291 80 358 c 2,6,-1
 80 525 l 2,7,8
 80 592 80 592 122.5 628.5 c 128,-1,9
 165 665 165 665 249.5 665 c 128,-1,10
 334 665 334 665 377 628.5 c 128,-1,11
 420 592 420 592 420 525 c 2,0,-1
385 358 m 2,12,-1
 385 525 l 2,13,14
 385 635 385 635 250 635 c 128,-1,15
 115 635 115 635 115 525 c 2,16,-1
 115 358 l 2,17,18
 115 248 115 248 250 248 c 128,-1,19
 385 248 385 248 385 358 c 2,12,-1
217 300 m 1,20,-1
 169 300 l 1,21,-1
 169 585 l 1,22,-1
 249 585 l 2,23,24
 291 585 291 585 312.5 564.5 c 128,-1,25
 334 544 334 544 334 509 c 2,26,-1
 334 478 l 2,27,28
 334 427 334 427 294 411 c 1,29,-1
 350 300 l 1,30,-1
 298 300 l 1,31,-1
 248 403 l 1,32,-1
 217 403 l 1,33,-1
 217 300 l 1,20,-1
286 478 m 2,34,-1
 286 509 l 2,35,36
 286 542 286 542 249 542 c 2,37,-1
 217 542 l 1,38,-1
 217 446 l 1,39,-1
 249 446 l 2,40,41
 286 446 286 446 286 478 c 2,34,-1
EndSplineSet
EndChar

StartChar: macron
Encoding: 175 175 112
Width: 366
GlyphClass: 2
Flags: W
LayerCount: 2
Fore
SplineSet
75 740 m 1,0,-1
 75 800 l 1,1,-1
 291 800 l 1,2,-1
 291 740 l 1,3,-1
 75 740 l 1,0,-1
EndSplineSet
EndChar

StartChar: degree
Encoding: 176 176 113
Width: 379
GlyphClass: 2
Flags: W
LayerCount: 2
Fore
SplineSet
294 590 m 2,0,-1
 294 466 l 2,1,2
 294 391 294 391 189.5 391 c 128,-1,3
 85 391 85 391 85 466 c 2,4,-1
 85 590 l 2,5,6
 85 665 85 665 189.5 665 c 128,-1,7
 294 665 294 665 294 590 c 2,0,-1
246 466 m 2,8,-1
 246 590 l 2,9,10
 246 623 246 623 189.5 623 c 128,-1,11
 133 623 133 623 133 590 c 2,12,-1
 133 466 l 2,13,14
 133 434 133 434 189.5 434 c 128,-1,15
 246 434 246 434 246 466 c 2,8,-1
EndSplineSet
EndChar

StartChar: plusminus
Encoding: 177 177 114
Width: 510
GlyphClass: 2
Flags: W
LayerCount: 2
Fore
SplineSet
225 485 m 1,0,-1
 285 485 l 1,1,-1
 285 355 l 1,2,-1
 415 355 l 1,3,-1
 415 295 l 1,4,-1
 285 295 l 1,5,-1
 285 165 l 1,6,-1
 225 165 l 1,7,-1
 225 295 l 1,8,-1
 95 295 l 1,9,-1
 95 355 l 1,10,-1
 225 355 l 1,11,-1
 225 485 l 1,0,-1
415 60 m 1,12,-1
 415 0 l 1,13,-1
 95 0 l 1,14,-1
 95 60 l 1,15,-1
 415 60 l 1,12,-1
EndSplineSet
EndChar

StartChar: twosuperior
Encoding: 178 178 115
Width: 305
GlyphClass: 2
Flags: W
LayerCount: 2
Fore
SplineSet
64 365 m 1,0,-1
 64 404 l 1,1,-1
 165 528 l 2,2,3
 195 566 195 566 195 580 c 2,4,-1
 195 586 l 2,5,6
 195 617 195 617 156 617 c 128,-1,7
 117 617 117 617 117 586 c 2,8,-1
 117 566 l 1,9,-1
 69 566 l 1,10,-1
 69 584 l 2,11,12
 69 660 69 660 156 660 c 128,-1,13
 243 660 243 660 243 584 c 2,14,-1
 243 580 l 2,15,16
 243 550 243 550 196 493 c 2,17,-1
 125 408 l 1,18,-1
 242 408 l 1,19,-1
 242 365 l 1,20,-1
 64 365 l 1,0,-1
EndSplineSet
EndChar

StartChar: threesuperior
Encoding: 179 179 116
Width: 305
GlyphClass: 2
Flags: W
LayerCount: 2
Fore
SplineSet
236 584 m 2,0,-1
 236 557 l 2,1,2
 236 520 236 520 202 504 c 1,3,4
 241 490 241 490 241 450 c 2,5,-1
 241 431 l 2,6,7
 241 355 241 355 151.5 355 c 128,-1,8
 62 355 62 355 62 431 c 2,9,-1
 62 444 l 1,10,-1
 110 444 l 1,11,-1
 110 429 l 2,12,13
 110 398 110 398 151.5 398 c 128,-1,14
 193 398 193 398 193 429 c 2,15,-1
 193 450 l 2,16,17
 193 463 193 463 183 474 c 128,-1,18
 173 485 173 485 157 485 c 2,19,-1
 110 485 l 1,20,-1
 110 523 l 1,21,-1
 152 523 l 2,22,23
 169 523 169 523 178.5 533.5 c 128,-1,24
 188 544 188 544 188 557 c 2,25,-1
 188 586 l 2,26,27
 188 617 188 617 149 617 c 128,-1,28
 110 617 110 617 110 586 c 2,29,-1
 110 566 l 1,30,-1
 62 566 l 1,31,-1
 62 584 l 2,32,33
 62 660 62 660 149 660 c 128,-1,34
 236 660 236 660 236 584 c 2,0,-1
EndSplineSet
EndChar

StartChar: acute
Encoding: 180 180 117
Width: 317
GlyphClass: 2
Flags: W
LayerCount: 2
Fore
SplineSet
277 793 m 1,0,-1
 239 755 l 1,1,-1
 126 698 l 1,2,-1
 100 724 l 1,3,-1
 223 847 l 1,4,-1
 277 793 l 1,0,-1
EndSplineSet
EndChar

StartChar: mu
Encoding: 181 181 118
Width: 525
GlyphClass: 2
Flags: W
LayerCount: 2
Fore
SplineSet
90 550 m 1,0,-1
 160 550 l 1,1,-1
 160 125 l 2,2,3
 160 87 160 87 176.5 66 c 128,-1,4
 193 45 193 45 237 45 c 128,-1,5
 281 45 281 45 318 79 c 128,-1,6
 355 113 355 113 355 145 c 2,7,-1
 355 550 l 1,8,-1
 425 550 l 1,9,-1
 425 0 l 1,10,-1
 395 0 l 1,11,-1
 369 64 l 1,12,13
 347 28 347 28 312.5 6.5 c 128,-1,14
 278 -15 278 -15 237 -15 c 0,15,16
 172 -15 172 -15 141 18 c 1,17,-1
 160 -100 l 1,18,-1
 160 -250 l 1,19,-1
 90 -250 l 1,20,-1
 90 550 l 1,0,-1
EndSplineSet
EndChar

StartChar: paragraph
Encoding: 182 182 119
Width: 478
GlyphClass: 2
Flags: W
LayerCount: 2
Fore
SplineSet
239 0 m 1,0,-1
 169 0 l 1,1,-1
 169 276 l 1,2,-1
 144 307 l 2,3,4
 89 374 89 374 69.5 407.5 c 128,-1,5
 50 441 50 441 50 475 c 2,6,-1
 50 525 l 2,7,8
 50 592 50 592 91.5 628.5 c 128,-1,9
 133 665 133 665 217 665 c 0,10,11
 378 665 378 665 378 525 c 2,12,-1
 378 0 l 1,13,-1
 308 0 l 1,14,-1
 308 529 l 2,15,16
 308 565 308 565 284.5 585 c 128,-1,17
 261 605 261 605 214 605 c 128,-1,18
 167 605 167 605 143.5 585 c 128,-1,19
 120 565 120 565 120 529 c 2,20,-1
 120 475 l 2,21,22
 120 451 120 451 134 430.5 c 128,-1,23
 148 410 148 410 153 403 c 128,-1,24
 158 396 158 396 176 375 c 128,-1,25
 194 354 194 354 198 349 c 2,26,-1
 239 300 l 1,27,-1
 239 0 l 1,0,-1
EndSplineSet
EndChar

StartChar: periodcentered
Encoding: 183 183 120
Width: 260
GlyphClass: 2
Flags: W
LayerCount: 2
Fore
SplineSet
175 270 m 1,0,-1
 85 270 l 1,1,-1
 85 380 l 1,2,-1
 175 380 l 1,3,-1
 175 270 l 1,0,-1
EndSplineSet
EndChar

StartChar: cedilla
Encoding: 184 184 121
Width: 305
GlyphClass: 2
Flags: W
LayerCount: 2
Fore
SplineSet
167 -62 m 2,0,1
 208 -62 208 -62 229.5 -83.5 c 128,-1,2
 251 -105 251 -105 251 -141 c 2,3,-1
 251 -164 l 2,4,5
 251 -240 251 -240 161.5 -240 c 128,-1,6
 72 -240 72 -240 72 -164 c 2,7,-1
 72 -156 l 1,8,-1
 120 -156 l 1,9,-1
 120 -166 l 2,10,11
 120 -197 120 -197 161.5 -197 c 128,-1,12
 203 -197 203 -197 203 -166 c 2,13,-1
 203 -141 l 2,14,15
 203 -127 203 -127 193 -116 c 128,-1,16
 183 -105 183 -105 167 -105 c 2,17,-1
 107 -105 l 1,18,-1
 128 2 l 1,19,-1
 175 2 l 1,20,-1
 162 -62 l 1,21,-1
 167 -62 l 2,0,1
EndSplineSet
EndChar

StartChar: onesuperior
Encoding: 185 185 122
Width: 305
GlyphClass: 2
Flags: W
LayerCount: 2
Fore
SplineSet
188 650 m 1,0,-1
 188 365 l 1,1,-1
 140 365 l 1,2,-1
 140 598 l 1,3,-1
 78 563 l 1,4,-1
 57 598 l 1,5,-1
 145 650 l 1,6,-1
 188 650 l 1,0,-1
EndSplineSet
EndChar

StartChar: ordmasculine
Encoding: 186 186 123
Width: 349
GlyphClass: 2
Flags: W
LayerCount: 2
Fore
SplineSet
264 621 m 2,0,-1
 264 466 l 2,1,2
 264 391 264 391 174.5 391 c 128,-1,3
 85 391 85 391 85 466 c 2,4,-1
 85 621 l 2,5,6
 85 696 85 696 174.5 696 c 128,-1,7
 264 696 264 696 264 621 c 2,0,-1
216 466 m 2,8,-1
 216 621 l 2,9,10
 216 654 216 654 174.5 654 c 128,-1,11
 133 654 133 654 133 621 c 2,12,-1
 133 466 l 2,13,14
 133 434 133 434 174.5 434 c 128,-1,15
 216 434 216 434 216 466 c 2,8,-1
EndSplineSet
EndChar

StartChar: guillemotright
Encoding: 187 187 124
Width: 452
GlyphClass: 2
Flags: W
LayerCount: 2
Fore
SplineSet
327 325 m 1,0,-1
 210 474 l 1,1,-1
 259 517 l 1,2,-1
 392 347 l 1,3,-1
 392 303 l 1,4,-1
 259 133 l 1,5,-1
 210 176 l 1,6,-1
 327 325 l 1,0,-1
157 325 m 1,7,-1
 40 474 l 1,8,-1
 89 517 l 1,9,-1
 222 347 l 1,10,-1
 222 303 l 1,11,-1
 89 133 l 1,12,-1
 40 176 l 1,13,-1
 157 325 l 1,7,-1
EndSplineSet
EndChar

StartChar: onequarter
Encoding: 188 188 125
Width: 395
GlyphClass: 2
Flags: W
LayerCount: 2
Fore
SplineSet
70 316 m 1,0,-1
 70 345 l 1,1,-1
 325 345 l 1,2,-1
 325 316 l 1,3,-1
 70 316 l 1,0,-1
223 658 m 1,4,-1
 223 373 l 1,5,-1
 175 373 l 1,6,-1
 175 606 l 1,7,-1
 113 571 l 1,8,-1
 92 606 l 1,9,-1
 180 658 l 1,10,-1
 223 658 l 1,4,-1
254 285 m 1,11,-1
 254 96 l 1,12,-1
 279 96 l 1,13,-1
 279 53 l 1,14,-1
 254 53 l 1,15,-1
 254 0 l 1,16,-1
 206 0 l 1,17,-1
 206 53 l 1,18,-1
 76 53 l 1,19,-1
 76 92 l 1,20,-1
 209 285 l 1,21,-1
 254 285 l 1,11,-1
206 96 m 1,22,-1
 206 202 l 1,23,-1
 129 96 l 1,24,-1
 206 96 l 1,22,-1
EndSplineSet
EndChar

StartChar: onehalf
Encoding: 189 189 126
Width: 395
GlyphClass: 2
Flags: W
LayerCount: 2
Fore
SplineSet
70 316 m 1,0,-1
 70 345 l 1,1,-1
 325 345 l 1,2,-1
 325 316 l 1,3,-1
 70 316 l 1,0,-1
223 658 m 1,4,-1
 223 373 l 1,5,-1
 175 373 l 1,6,-1
 175 606 l 1,7,-1
 113 571 l 1,8,-1
 92 606 l 1,9,-1
 180 658 l 1,10,-1
 223 658 l 1,4,-1
108 0 m 1,11,-1
 108 39 l 1,12,-1
 209 163 l 2,13,14
 239 200 239 200 239 215 c 2,15,-1
 239 221 l 2,16,17
 239 252 239 252 200 252 c 128,-1,18
 161 252 161 252 161 221 c 2,19,-1
 161 201 l 1,20,-1
 113 201 l 1,21,-1
 113 219 l 2,22,23
 113 295 113 295 200 295 c 128,-1,24
 287 295 287 295 287 219 c 2,25,-1
 287 215 l 2,26,27
 287 185 287 185 240 128 c 2,28,-1
 169 43 l 1,29,-1
 286 43 l 1,30,-1
 286 0 l 1,31,-1
 108 0 l 1,11,-1
EndSplineSet
EndChar

StartChar: threequarters
Encoding: 190 190 127
Width: 395
GlyphClass: 2
Flags: W
LayerCount: 2
Fore
SplineSet
70 316 m 1,0,-1
 70 345 l 1,1,-1
 325 345 l 1,2,-1
 325 316 l 1,3,-1
 70 316 l 1,0,-1
282 592 m 2,4,-1
 282 565 l 2,5,6
 282 528 282 528 248 512 c 1,7,8
 287 498 287 498 287 458 c 2,9,-1
 287 439 l 2,10,11
 287 363 287 363 197.5 363 c 128,-1,12
 108 363 108 363 108 439 c 2,13,-1
 108 452 l 1,14,-1
 156 452 l 1,15,-1
 156 437 l 2,16,17
 156 406 156 406 197.5 406 c 128,-1,18
 239 406 239 406 239 437 c 2,19,-1
 239 458 l 2,20,21
 239 471 239 471 229 482 c 128,-1,22
 219 493 219 493 203 493 c 2,23,-1
 156 493 l 1,24,-1
 156 531 l 1,25,-1
 198 531 l 2,26,27
 215 531 215 531 224.5 541.5 c 128,-1,28
 234 552 234 552 234 565 c 2,29,-1
 234 594 l 2,30,31
 234 625 234 625 195 625 c 128,-1,32
 156 625 156 625 156 594 c 2,33,-1
 156 574 l 1,34,-1
 108 574 l 1,35,-1
 108 592 l 2,36,37
 108 668 108 668 195 668 c 128,-1,38
 282 668 282 668 282 592 c 2,4,-1
254 285 m 1,39,-1
 254 96 l 1,40,-1
 279 96 l 1,41,-1
 279 53 l 1,42,-1
 254 53 l 1,43,-1
 254 0 l 1,44,-1
 206 0 l 1,45,-1
 206 53 l 1,46,-1
 76 53 l 1,47,-1
 76 92 l 1,48,-1
 209 285 l 1,49,-1
 254 285 l 1,39,-1
206 96 m 1,50,-1
 206 202 l 1,51,-1
 129 96 l 1,52,-1
 206 96 l 1,50,-1
EndSplineSet
EndChar

StartChar: questiondown
Encoding: 191 191 128
Width: 438
GlyphClass: 2
Flags: W
LayerCount: 2
Fore
SplineSet
152 650 m 1,0,-1
 222 650 l 1,1,-1
 222 540 l 1,2,-1
 152 540 l 1,3,-1
 152 650 l 1,0,-1
209 440 m 1,4,-1
 209 380 l 1,5,-1
 168 321 l 2,6,7
 164 316 164 316 153 300 c 128,-1,8
 142 284 142 284 137 277 c 128,-1,9
 132 270 132 270 123 256 c 128,-1,10
 114 242 114 242 109.5 233.5 c 128,-1,11
 105 225 105 225 100 214 c 0,12,13
 90 194 90 194 90 175 c 2,14,-1
 90 121 l 2,15,16
 90 85 90 85 113.5 65 c 128,-1,17
 137 45 137 45 184 45 c 128,-1,18
 231 45 231 45 254.5 65 c 128,-1,19
 278 85 278 85 278 121 c 2,20,-1
 278 210 l 1,21,-1
 348 210 l 1,22,-1
 348 125 l 2,23,24
 348 -15 348 -15 187 -15 c 0,25,26
 103 -15 103 -15 61.5 21.5 c 128,-1,27
 20 58 20 58 20 125 c 2,28,-1
 20 175 l 2,29,30
 20 209 20 209 41.5 250.5 c 128,-1,31
 63 292 63 292 114 363 c 2,32,-1
 169 440 l 1,33,-1
 209 440 l 1,4,-1
EndSplineSet
EndChar

StartChar: Agrave
Encoding: 192 192 129
Width: 479
GlyphClass: 2
Flags: W
LayerCount: 2
Fore
SplineSet
187 650 m 1,0,-1
 292 650 l 1,1,-1
 439 0 l 1,2,-1
 369 0 l 1,3,-1
 335 150 l 1,4,-1
 144 150 l 1,5,-1
 110 0 l 1,6,-1
 40 0 l 1,7,-1
 187 650 l 1,0,-1
239 572 m 1,8,-1
 157 210 l 1,9,-1
 321 210 l 1,10,-1
 239 572 l 1,8,-1
189 755 m 1,11,-1
 151 793 l 1,12,-1
 205 847 l 1,13,-1
 328 724 l 1,14,-1
 302 698 l 1,15,-1
 189 755 l 1,11,-1
EndSplineSet
EndChar

StartChar: Aacute
Encoding: 193 193 130
Width: 479
GlyphClass: 2
Flags: W
LayerCount: 2
Fore
SplineSet
187 650 m 1,0,-1
 292 650 l 1,1,-1
 439 0 l 1,2,-1
 369 0 l 1,3,-1
 335 150 l 1,4,-1
 144 150 l 1,5,-1
 110 0 l 1,6,-1
 40 0 l 1,7,-1
 187 650 l 1,0,-1
239 572 m 1,8,-1
 157 210 l 1,9,-1
 321 210 l 1,10,-1
 239 572 l 1,8,-1
328 793 m 1,11,-1
 290 755 l 1,12,-1
 177 698 l 1,13,-1
 151 724 l 1,14,-1
 274 847 l 1,15,-1
 328 793 l 1,11,-1
EndSplineSet
EndChar

StartChar: Acircumflex
Encoding: 194 194 131
Width: 479
GlyphClass: 2
Flags: W
LayerCount: 2
Fore
SplineSet
187 650 m 1,0,-1
 292 650 l 1,1,-1
 439 0 l 1,2,-1
 369 0 l 1,3,-1
 335 150 l 1,4,-1
 144 150 l 1,5,-1
 110 0 l 1,6,-1
 40 0 l 1,7,-1
 187 650 l 1,0,-1
239 572 m 1,8,-1
 157 210 l 1,9,-1
 321 210 l 1,10,-1
 239 572 l 1,8,-1
239 760 m 1,11,-1
 151 698 l 1,12,-1
 125 724 l 1,13,-1
 223 837 l 1,14,-1
 255 837 l 1,15,-1
 353 724 l 1,16,-1
 327 698 l 1,17,-1
 239 760 l 1,11,-1
EndSplineSet
EndChar

StartChar: Atilde
Encoding: 195 195 132
Width: 479
GlyphClass: 2
Flags: W
LayerCount: 2
Fore
SplineSet
187 650 m 1,0,-1
 292 650 l 1,1,-1
 439 0 l 1,2,-1
 369 0 l 1,3,-1
 335 150 l 1,4,-1
 144 150 l 1,5,-1
 110 0 l 1,6,-1
 40 0 l 1,7,-1
 187 650 l 1,0,-1
239 572 m 1,8,-1
 157 210 l 1,9,-1
 321 210 l 1,10,-1
 239 572 l 1,8,-1
282 759 m 0,11,12
 267 759 267 759 239 740 c 128,-1,13
 211 721 211 721 185.5 721 c 128,-1,14
 160 721 160 721 142 741 c 128,-1,15
 124 761 124 761 121 795 c 1,16,-1
 162 809 l 1,17,18
 172 781 172 781 196 781 c 0,19,20
 211 781 211 781 239 800 c 128,-1,21
 267 819 267 819 292.5 819 c 128,-1,22
 318 819 318 819 336 799 c 128,-1,23
 354 779 354 779 357 745 c 1,24,-1
 316 731 l 1,25,26
 306 759 306 759 282 759 c 0,11,12
EndSplineSet
EndChar

StartChar: Adieresis
Encoding: 196 196 133
Width: 479
GlyphClass: 2
Flags: W
LayerCount: 2
Fore
SplineSet
187 650 m 1,0,-1
 292 650 l 1,1,-1
 439 0 l 1,2,-1
 369 0 l 1,3,-1
 335 150 l 1,4,-1
 144 150 l 1,5,-1
 110 0 l 1,6,-1
 40 0 l 1,7,-1
 187 650 l 1,0,-1
239 572 m 1,8,-1
 157 210 l 1,9,-1
 321 210 l 1,10,-1
 239 572 l 1,8,-1
204 715 m 1,11,-1
 134 715 l 1,12,-1
 134 825 l 1,13,-1
 204 825 l 1,14,-1
 204 715 l 1,11,-1
344 715 m 1,15,-1
 274 715 l 1,16,-1
 274 825 l 1,17,-1
 344 825 l 1,18,-1
 344 715 l 1,15,-1
EndSplineSet
EndChar

StartChar: Aring
Encoding: 197 197 134
Width: 479
GlyphClass: 2
Flags: W
LayerCount: 2
Fore
SplineSet
187 650 m 1,0,-1
 292 650 l 1,1,-1
 439 0 l 1,2,-1
 369 0 l 1,3,-1
 335 150 l 1,4,-1
 144 150 l 1,5,-1
 110 0 l 1,6,-1
 40 0 l 1,7,-1
 187 650 l 1,0,-1
239 572 m 1,8,-1
 157 210 l 1,9,-1
 321 210 l 1,10,-1
 239 572 l 1,8,-1
324 780 m 2,11,-1
 324 760 l 2,12,13
 324 685 324 685 239 685 c 128,-1,14
 154 685 154 685 154 760 c 2,15,-1
 154 780 l 2,16,17
 154 855 154 855 239 855 c 128,-1,18
 324 855 324 855 324 780 c 2,11,-1
204 780 m 2,19,-1
 204 760 l 2,20,21
 204 729 204 729 239 729 c 128,-1,22
 274 729 274 729 274 760 c 2,23,-1
 274 780 l 2,24,25
 274 811 274 811 239 811 c 128,-1,26
 204 811 204 811 204 780 c 2,19,-1
EndSplineSet
EndChar

StartChar: AE
Encoding: 198 198 135
Width: 680
GlyphClass: 2
Flags: W
LayerCount: 2
Fore
SplineSet
620 650 m 1,0,-1
 620 590 l 1,1,-1
 405 590 l 1,2,-1
 405 320 l 1,3,-1
 580 320 l 1,4,-1
 580 260 l 1,5,-1
 405 260 l 1,6,-1
 405 60 l 1,7,-1
 630 60 l 1,8,-1
 630 0 l 1,9,-1
 335 0 l 1,10,-1
 335 260 l 1,11,-1
 165 260 l 1,12,-1
 70 0 l 1,13,-1
 0 0 l 1,14,-1
 237 650 l 1,15,-1
 620 650 l 1,0,-1
335 320 m 1,16,-1
 335 590 l 1,17,-1
 285 590 l 1,18,-1
 187 320 l 1,19,-1
 335 320 l 1,16,-1
EndSplineSet
EndChar

StartChar: Ccedilla
Encoding: 199 199 136
Width: 490
GlyphClass: 2
Flags: W
LayerCount: 2
Fore
SplineSet
345 125 m 2,0,-1
 345 180 l 1,1,-1
 415 180 l 1,2,-1
 415 125 l 2,3,4
 415 -8 415 -8 264 -14 c 1,5,-1
 255 -62 l 1,6,-1
 260 -62 l 2,7,8
 301 -62 301 -62 322.5 -83.5 c 128,-1,9
 344 -105 344 -105 344 -141 c 2,10,-1
 344 -164 l 2,11,12
 344 -240 344 -240 254.5 -240 c 128,-1,13
 165 -240 165 -240 165 -164 c 2,14,-1
 165 -156 l 1,15,-1
 213 -156 l 1,16,-1
 213 -166 l 2,17,18
 213 -197 213 -197 254.5 -197 c 128,-1,19
 296 -197 296 -197 296 -166 c 2,20,-1
 296 -141 l 2,21,22
 296 -127 296 -127 286 -116 c 128,-1,23
 276 -105 276 -105 260 -105 c 2,24,-1
 200 -105 l 1,25,-1
 218 -13 l 1,26,27
 152 -6 152 -6 118.5 29.5 c 128,-1,28
 85 65 85 65 85 125 c 2,29,-1
 85 525 l 2,30,31
 85 592 85 592 126 628.5 c 128,-1,32
 167 665 167 665 249 665 c 128,-1,33
 331 665 331 665 373 628.5 c 128,-1,34
 415 592 415 592 415 525 c 2,35,-1
 415 430 l 1,36,-1
 345 430 l 1,37,-1
 345 525 l 2,38,39
 345 605 345 605 250 605 c 128,-1,40
 155 605 155 605 155 525 c 2,41,-1
 155 125 l 2,42,43
 155 45 155 45 250 45 c 128,-1,44
 345 45 345 45 345 125 c 2,0,-1
EndSplineSet
EndChar

StartChar: Egrave
Encoding: 200 200 137
Width: 445
GlyphClass: 2
Flags: W
LayerCount: 2
Fore
SplineSet
395 0 m 1,0,-1
 100 0 l 1,1,-1
 100 650 l 1,2,-1
 385 650 l 1,3,-1
 385 590 l 1,4,-1
 170 590 l 1,5,-1
 170 360 l 1,6,-1
 345 360 l 1,7,-1
 345 300 l 1,8,-1
 170 300 l 1,9,-1
 170 60 l 1,10,-1
 395 60 l 1,11,-1
 395 0 l 1,0,-1
192 755 m 1,12,-1
 154 793 l 1,13,-1
 208 847 l 1,14,-1
 331 724 l 1,15,-1
 305 698 l 1,16,-1
 192 755 l 1,12,-1
EndSplineSet
EndChar

StartChar: Eacute
Encoding: 201 201 138
Width: 445
GlyphClass: 2
Flags: W
LayerCount: 2
Fore
SplineSet
395 0 m 1,0,-1
 100 0 l 1,1,-1
 100 650 l 1,2,-1
 385 650 l 1,3,-1
 385 590 l 1,4,-1
 170 590 l 1,5,-1
 170 360 l 1,6,-1
 345 360 l 1,7,-1
 345 300 l 1,8,-1
 170 300 l 1,9,-1
 170 60 l 1,10,-1
 395 60 l 1,11,-1
 395 0 l 1,0,-1
341 793 m 1,12,-1
 303 755 l 1,13,-1
 190 698 l 1,14,-1
 164 724 l 1,15,-1
 287 847 l 1,16,-1
 341 793 l 1,12,-1
EndSplineSet
EndChar

StartChar: Ecircumflex
Encoding: 202 202 139
Width: 445
GlyphClass: 2
Flags: W
LayerCount: 2
Fore
SplineSet
395 0 m 1,0,-1
 100 0 l 1,1,-1
 100 650 l 1,2,-1
 385 650 l 1,3,-1
 385 590 l 1,4,-1
 170 590 l 1,5,-1
 170 360 l 1,6,-1
 345 360 l 1,7,-1
 345 300 l 1,8,-1
 170 300 l 1,9,-1
 170 60 l 1,10,-1
 395 60 l 1,11,-1
 395 0 l 1,0,-1
252 760 m 1,12,-1
 164 698 l 1,13,-1
 138 724 l 1,14,-1
 236 837 l 1,15,-1
 268 837 l 1,16,-1
 366 724 l 1,17,-1
 340 698 l 1,18,-1
 252 760 l 1,12,-1
EndSplineSet
EndChar

StartChar: Edieresis
Encoding: 203 203 140
Width: 445
GlyphClass: 2
Flags: W
LayerCount: 2
Fore
SplineSet
395 0 m 1,0,-1
 100 0 l 1,1,-1
 100 650 l 1,2,-1
 385 650 l 1,3,-1
 385 590 l 1,4,-1
 170 590 l 1,5,-1
 170 360 l 1,6,-1
 345 360 l 1,7,-1
 345 300 l 1,8,-1
 170 300 l 1,9,-1
 170 60 l 1,10,-1
 395 60 l 1,11,-1
 395 0 l 1,0,-1
217 715 m 1,12,-1
 147 715 l 1,13,-1
 147 825 l 1,14,-1
 217 825 l 1,15,-1
 217 715 l 1,12,-1
357 715 m 1,16,-1
 287 715 l 1,17,-1
 287 825 l 1,18,-1
 357 825 l 1,19,-1
 357 715 l 1,16,-1
EndSplineSet
EndChar

StartChar: Igrave
Encoding: 204 204 141
Width: 310
GlyphClass: 2
Flags: W
LayerCount: 2
Fore
SplineSet
240 60 m 1,0,-1
 240 0 l 1,1,-1
 70 0 l 1,2,-1
 70 60 l 1,3,-1
 120 60 l 1,4,-1
 120 590 l 1,5,-1
 70 590 l 1,6,-1
 70 650 l 1,7,-1
 240 650 l 1,8,-1
 240 590 l 1,9,-1
 190 590 l 1,10,-1
 190 60 l 1,11,-1
 240 60 l 1,0,-1
105 755 m 1,12,-1
 67 793 l 1,13,-1
 121 847 l 1,14,-1
 244 724 l 1,15,-1
 218 698 l 1,16,-1
 105 755 l 1,12,-1
EndSplineSet
EndChar

StartChar: Iacute
Encoding: 205 205 142
Width: 310
GlyphClass: 2
Flags: W
LayerCount: 2
Fore
SplineSet
240 60 m 1,0,-1
 240 0 l 1,1,-1
 70 0 l 1,2,-1
 70 60 l 1,3,-1
 120 60 l 1,4,-1
 120 590 l 1,5,-1
 70 590 l 1,6,-1
 70 650 l 1,7,-1
 240 650 l 1,8,-1
 240 590 l 1,9,-1
 190 590 l 1,10,-1
 190 60 l 1,11,-1
 240 60 l 1,0,-1
244 793 m 1,12,-1
 206 755 l 1,13,-1
 93 698 l 1,14,-1
 67 724 l 1,15,-1
 190 847 l 1,16,-1
 244 793 l 1,12,-1
EndSplineSet
EndChar

StartChar: Icircumflex
Encoding: 206 206 143
Width: 310
GlyphClass: 2
Flags: W
LayerCount: 2
Fore
SplineSet
240 60 m 1,0,-1
 240 0 l 1,1,-1
 70 0 l 1,2,-1
 70 60 l 1,3,-1
 120 60 l 1,4,-1
 120 590 l 1,5,-1
 70 590 l 1,6,-1
 70 650 l 1,7,-1
 240 650 l 1,8,-1
 240 590 l 1,9,-1
 190 590 l 1,10,-1
 190 60 l 1,11,-1
 240 60 l 1,0,-1
155 760 m 1,12,-1
 67 698 l 1,13,-1
 41 724 l 1,14,-1
 139 837 l 1,15,-1
 171 837 l 1,16,-1
 269 724 l 1,17,-1
 243 698 l 1,18,-1
 155 760 l 1,12,-1
EndSplineSet
EndChar

StartChar: Idieresis
Encoding: 207 207 144
Width: 310
GlyphClass: 2
Flags: W
LayerCount: 2
Fore
SplineSet
240 60 m 1,0,-1
 240 0 l 1,1,-1
 70 0 l 1,2,-1
 70 60 l 1,3,-1
 120 60 l 1,4,-1
 120 590 l 1,5,-1
 70 590 l 1,6,-1
 70 650 l 1,7,-1
 240 650 l 1,8,-1
 240 590 l 1,9,-1
 190 590 l 1,10,-1
 190 60 l 1,11,-1
 240 60 l 1,0,-1
120 715 m 1,12,-1
 50 715 l 1,13,-1
 50 825 l 1,14,-1
 120 825 l 1,15,-1
 120 715 l 1,12,-1
260 715 m 1,16,-1
 190 715 l 1,17,-1
 190 825 l 1,18,-1
 260 825 l 1,19,-1
 260 715 l 1,16,-1
EndSplineSet
EndChar

StartChar: Eth
Encoding: 208 208 145
Width: 505
GlyphClass: 2
Flags: W
LayerCount: 2
Fore
SplineSet
31 305 m 1,0,-1
 31 355 l 1,1,-1
 100 355 l 1,2,-1
 100 650 l 1,3,-1
 261 650 l 2,4,5
 339 650 339 650 379.5 613 c 128,-1,6
 420 576 420 576 420 510 c 2,7,-1
 420 140 l 2,8,9
 420 73 420 73 380 36.5 c 128,-1,10
 340 0 340 0 261 0 c 2,11,-1
 100 0 l 1,12,-1
 100 305 l 1,13,-1
 31 305 l 1,0,-1
350 140 m 2,14,-1
 350 510 l 2,15,16
 350 542 350 542 326.5 566 c 128,-1,17
 303 590 303 590 261 590 c 2,18,-1
 170 590 l 1,19,-1
 170 355 l 1,20,-1
 291 355 l 1,21,-1
 291 305 l 1,22,-1
 170 305 l 1,23,-1
 170 60 l 1,24,-1
 261 60 l 2,25,26
 303 60 303 60 326.5 83.5 c 128,-1,27
 350 107 350 107 350 140 c 2,14,-1
EndSplineSet
EndChar

StartChar: Ntilde
Encoding: 209 209 146
Width: 557
GlyphClass: 2
Flags: W
LayerCount: 2
Fore
SplineSet
170 0 m 1,0,-1
 100 0 l 1,1,-1
 100 650 l 1,2,-1
 170 650 l 1,3,-1
 387 150 l 1,4,-1
 387 650 l 1,5,-1
 457 650 l 1,6,-1
 457 0 l 1,7,-1
 387 0 l 1,8,-1
 170 500 l 1,9,-1
 170 0 l 1,0,-1
321 759 m 0,10,11
 306 759 306 759 278 740 c 128,-1,12
 250 721 250 721 224.5 721 c 128,-1,13
 199 721 199 721 181 741 c 128,-1,14
 163 761 163 761 160 795 c 1,15,-1
 201 809 l 1,16,17
 211 781 211 781 235 781 c 0,18,19
 250 781 250 781 278 800 c 128,-1,20
 306 819 306 819 331.5 819 c 128,-1,21
 357 819 357 819 375 799 c 128,-1,22
 393 779 393 779 396 745 c 1,23,-1
 355 731 l 1,24,25
 345 759 345 759 321 759 c 0,10,11
EndSplineSet
EndChar

StartChar: Ograve
Encoding: 210 210 147
Width: 510
GlyphClass: 2
Flags: W
LayerCount: 2
Fore
SplineSet
425 525 m 2,0,-1
 425 125 l 2,1,2
 425 58 425 58 382.5 21.5 c 128,-1,3
 340 -15 340 -15 255.5 -15 c 128,-1,4
 171 -15 171 -15 128 21.5 c 128,-1,5
 85 58 85 58 85 125 c 2,6,-1
 85 525 l 2,7,8
 85 592 85 592 127.5 628.5 c 128,-1,9
 170 665 170 665 254.5 665 c 128,-1,10
 339 665 339 665 382 628.5 c 128,-1,11
 425 592 425 592 425 525 c 2,0,-1
355 125 m 2,12,-1
 355 525 l 2,13,14
 355 605 355 605 255 605 c 128,-1,15
 155 605 155 605 155 525 c 2,16,-1
 155 125 l 2,17,18
 155 45 155 45 255 45 c 128,-1,19
 355 45 355 45 355 125 c 2,12,-1
204 755 m 1,20,-1
 166 793 l 1,21,-1
 220 847 l 1,22,-1
 343 724 l 1,23,-1
 317 698 l 1,24,-1
 204 755 l 1,20,-1
EndSplineSet
EndChar

StartChar: Oacute
Encoding: 211 211 148
Width: 510
GlyphClass: 2
Flags: W
LayerCount: 2
Fore
SplineSet
425 525 m 2,0,-1
 425 125 l 2,1,2
 425 58 425 58 382.5 21.5 c 128,-1,3
 340 -15 340 -15 255.5 -15 c 128,-1,4
 171 -15 171 -15 128 21.5 c 128,-1,5
 85 58 85 58 85 125 c 2,6,-1
 85 525 l 2,7,8
 85 592 85 592 127.5 628.5 c 128,-1,9
 170 665 170 665 254.5 665 c 128,-1,10
 339 665 339 665 382 628.5 c 128,-1,11
 425 592 425 592 425 525 c 2,0,-1
355 125 m 2,12,-1
 355 525 l 2,13,14
 355 605 355 605 255 605 c 128,-1,15
 155 605 155 605 155 525 c 2,16,-1
 155 125 l 2,17,18
 155 45 155 45 255 45 c 128,-1,19
 355 45 355 45 355 125 c 2,12,-1
343 793 m 1,20,-1
 305 755 l 1,21,-1
 192 698 l 1,22,-1
 166 724 l 1,23,-1
 289 847 l 1,24,-1
 343 793 l 1,20,-1
EndSplineSet
EndChar

StartChar: Ocircumflex
Encoding: 212 212 149
Width: 510
GlyphClass: 2
Flags: W
LayerCount: 2
Fore
SplineSet
425 525 m 2,0,-1
 425 125 l 2,1,2
 425 58 425 58 382.5 21.5 c 128,-1,3
 340 -15 340 -15 255.5 -15 c 128,-1,4
 171 -15 171 -15 128 21.5 c 128,-1,5
 85 58 85 58 85 125 c 2,6,-1
 85 525 l 2,7,8
 85 592 85 592 127.5 628.5 c 128,-1,9
 170 665 170 665 254.5 665 c 128,-1,10
 339 665 339 665 382 628.5 c 128,-1,11
 425 592 425 592 425 525 c 2,0,-1
355 125 m 2,12,-1
 355 525 l 2,13,14
 355 605 355 605 255 605 c 128,-1,15
 155 605 155 605 155 525 c 2,16,-1
 155 125 l 2,17,18
 155 45 155 45 255 45 c 128,-1,19
 355 45 355 45 355 125 c 2,12,-1
255 760 m 1,20,-1
 167 698 l 1,21,-1
 141 724 l 1,22,-1
 239 837 l 1,23,-1
 271 837 l 1,24,-1
 369 724 l 1,25,-1
 343 698 l 1,26,-1
 255 760 l 1,20,-1
EndSplineSet
EndChar

StartChar: Otilde
Encoding: 213 213 150
Width: 510
GlyphClass: 2
Flags: W
LayerCount: 2
Fore
SplineSet
425 525 m 2,0,-1
 425 125 l 2,1,2
 425 58 425 58 382.5 21.5 c 128,-1,3
 340 -15 340 -15 255.5 -15 c 128,-1,4
 171 -15 171 -15 128 21.5 c 128,-1,5
 85 58 85 58 85 125 c 2,6,-1
 85 525 l 2,7,8
 85 592 85 592 127.5 628.5 c 128,-1,9
 170 665 170 665 254.5 665 c 128,-1,10
 339 665 339 665 382 628.5 c 128,-1,11
 425 592 425 592 425 525 c 2,0,-1
355 125 m 2,12,-1
 355 525 l 2,13,14
 355 605 355 605 255 605 c 128,-1,15
 155 605 155 605 155 525 c 2,16,-1
 155 125 l 2,17,18
 155 45 155 45 255 45 c 128,-1,19
 355 45 355 45 355 125 c 2,12,-1
298 759 m 0,20,21
 283 759 283 759 255 740 c 128,-1,22
 227 721 227 721 201.5 721 c 128,-1,23
 176 721 176 721 158 741 c 128,-1,24
 140 761 140 761 137 795 c 1,25,-1
 178 809 l 1,26,27
 188 781 188 781 212 781 c 0,28,29
 227 781 227 781 255 800 c 128,-1,30
 283 819 283 819 308.5 819 c 128,-1,31
 334 819 334 819 352 799 c 128,-1,32
 370 779 370 779 373 745 c 1,33,-1
 332 731 l 1,34,35
 322 759 322 759 298 759 c 0,20,21
EndSplineSet
EndChar

StartChar: Odieresis
Encoding: 214 214 151
Width: 510
GlyphClass: 2
Flags: W
LayerCount: 2
Fore
SplineSet
425 525 m 2,0,-1
 425 125 l 2,1,2
 425 58 425 58 382.5 21.5 c 128,-1,3
 340 -15 340 -15 255.5 -15 c 128,-1,4
 171 -15 171 -15 128 21.5 c 128,-1,5
 85 58 85 58 85 125 c 2,6,-1
 85 525 l 2,7,8
 85 592 85 592 127.5 628.5 c 128,-1,9
 170 665 170 665 254.5 665 c 128,-1,10
 339 665 339 665 382 628.5 c 128,-1,11
 425 592 425 592 425 525 c 2,0,-1
355 125 m 2,12,-1
 355 525 l 2,13,14
 355 605 355 605 255 605 c 128,-1,15
 155 605 155 605 155 525 c 2,16,-1
 155 125 l 2,17,18
 155 45 155 45 255 45 c 128,-1,19
 355 45 355 45 355 125 c 2,12,-1
220 715 m 1,20,-1
 150 715 l 1,21,-1
 150 825 l 1,22,-1
 220 825 l 1,23,-1
 220 715 l 1,20,-1
360 715 m 1,24,-1
 290 715 l 1,25,-1
 290 825 l 1,26,-1
 360 825 l 1,27,-1
 360 715 l 1,24,-1
EndSplineSet
EndChar

StartChar: multiply
Encoding: 215 215 152
Width: 510
GlyphClass: 2
Flags: W
LayerCount: 2
Fore
SplineSet
103 435 m 1,0,-1
 145 477 l 1,1,-1
 255 367 l 1,2,-1
 365 477 l 1,3,-1
 407 435 l 1,4,-1
 297 325 l 1,5,-1
 407 215 l 1,6,-1
 365 173 l 1,7,-1
 255 283 l 1,8,-1
 145 173 l 1,9,-1
 103 215 l 1,10,-1
 213 325 l 1,11,-1
 103 435 l 1,0,-1
EndSplineSet
EndChar

StartChar: Oslash
Encoding: 216 216 153
Width: 510
GlyphClass: 2
Flags: W
LayerCount: 2
Fore
SplineSet
85 125 m 2,0,-1
 85 525 l 2,1,2
 85 592 85 592 127.5 628.5 c 128,-1,3
 170 665 170 665 254 665 c 0,4,5
 281 665 281 665 308 660 c 1,6,-1
 320 710 l 1,7,-1
 365 710 l 1,8,-1
 351 647 l 1,9,10
 425 614 425 614 425 525 c 2,11,-1
 425 125 l 2,12,13
 425 58 425 58 382.5 21.5 c 128,-1,14
 340 -15 340 -15 256 -15 c 0,15,16
 229 -15 229 -15 201 -10 c 1,17,-1
 190 -60 l 1,18,-1
 145 -60 l 1,19,-1
 159 2 l 1,20,21
 85 36 85 36 85 125 c 2,0,-1
355 125 m 2,22,-1
 355 525 l 2,23,24
 355 557 355 557 335 579 c 1,25,-1
 215 49 l 1,26,27
 231 45 231 45 256 45 c 0,28,29
 355 45 355 45 355 125 c 2,22,-1
155 125 m 2,30,31
 155 90 155 90 174 71 c 1,32,-1
 295 600 l 1,33,34
 275 605 275 605 254 605 c 0,35,36
 155 605 155 605 155 525 c 2,37,-1
 155 125 l 2,30,31
EndSplineSet
EndChar

StartChar: Ugrave
Encoding: 217 217 154
Width: 520
GlyphClass: 2
Flags: W
LayerCount: 2
Fore
SplineSet
360 125 m 2,0,-1
 360 650 l 1,1,-1
 430 650 l 1,2,-1
 430 125 l 2,3,4
 430 58 430 58 387.5 21.5 c 128,-1,5
 345 -15 345 -15 260.5 -15 c 128,-1,6
 176 -15 176 -15 133 21.5 c 128,-1,7
 90 58 90 58 90 125 c 2,8,-1
 90 650 l 1,9,-1
 160 650 l 1,10,-1
 160 125 l 2,11,12
 160 45 160 45 260 45 c 128,-1,13
 360 45 360 45 360 125 c 2,0,-1
199 755 m 1,14,-1
 161 793 l 1,15,-1
 215 847 l 1,16,-1
 338 724 l 1,17,-1
 312 698 l 1,18,-1
 199 755 l 1,14,-1
EndSplineSet
EndChar

StartChar: Uacute
Encoding: 218 218 155
Width: 520
GlyphClass: 2
Flags: W
LayerCount: 2
Fore
SplineSet
360 125 m 2,0,-1
 360 650 l 1,1,-1
 430 650 l 1,2,-1
 430 125 l 2,3,4
 430 58 430 58 387.5 21.5 c 128,-1,5
 345 -15 345 -15 260.5 -15 c 128,-1,6
 176 -15 176 -15 133 21.5 c 128,-1,7
 90 58 90 58 90 125 c 2,8,-1
 90 650 l 1,9,-1
 160 650 l 1,10,-1
 160 125 l 2,11,12
 160 45 160 45 260 45 c 128,-1,13
 360 45 360 45 360 125 c 2,0,-1
368 793 m 1,14,-1
 330 755 l 1,15,-1
 217 698 l 1,16,-1
 191 724 l 1,17,-1
 314 847 l 1,18,-1
 368 793 l 1,14,-1
EndSplineSet
EndChar

StartChar: Ucircumflex
Encoding: 219 219 156
Width: 520
GlyphClass: 2
Flags: W
LayerCount: 2
Fore
SplineSet
360 125 m 2,0,-1
 360 650 l 1,1,-1
 430 650 l 1,2,-1
 430 125 l 2,3,4
 430 58 430 58 387.5 21.5 c 128,-1,5
 345 -15 345 -15 260.5 -15 c 128,-1,6
 176 -15 176 -15 133 21.5 c 128,-1,7
 90 58 90 58 90 125 c 2,8,-1
 90 650 l 1,9,-1
 160 650 l 1,10,-1
 160 125 l 2,11,12
 160 45 160 45 260 45 c 128,-1,13
 360 45 360 45 360 125 c 2,0,-1
260 760 m 1,14,-1
 172 698 l 1,15,-1
 146 724 l 1,16,-1
 244 837 l 1,17,-1
 276 837 l 1,18,-1
 374 724 l 1,19,-1
 348 698 l 1,20,-1
 260 760 l 1,14,-1
EndSplineSet
EndChar

StartChar: Udieresis
Encoding: 220 220 157
Width: 520
GlyphClass: 2
Flags: W
LayerCount: 2
Fore
SplineSet
360 125 m 2,0,-1
 360 650 l 1,1,-1
 430 650 l 1,2,-1
 430 125 l 2,3,4
 430 58 430 58 387.5 21.5 c 128,-1,5
 345 -15 345 -15 260.5 -15 c 128,-1,6
 176 -15 176 -15 133 21.5 c 128,-1,7
 90 58 90 58 90 125 c 2,8,-1
 90 650 l 1,9,-1
 160 650 l 1,10,-1
 160 125 l 2,11,12
 160 45 160 45 260 45 c 128,-1,13
 360 45 360 45 360 125 c 2,0,-1
225 715 m 1,14,-1
 155 715 l 1,15,-1
 155 825 l 1,16,-1
 225 825 l 1,17,-1
 225 715 l 1,14,-1
365 715 m 1,18,-1
 295 715 l 1,19,-1
 295 825 l 1,20,-1
 365 825 l 1,21,-1
 365 715 l 1,18,-1
EndSplineSet
EndChar

StartChar: Yacute
Encoding: 221 221 158
Width: 450
GlyphClass: 2
Flags: W
LayerCount: 2
Fore
SplineSet
260 0 m 1,0,-1
 190 0 l 1,1,-1
 190 233 l 1,2,-1
 25 650 l 1,3,-1
 99 650 l 1,4,-1
 225 315 l 1,5,-1
 351 650 l 1,6,-1
 425 650 l 1,7,-1
 260 232 l 1,8,-1
 260 0 l 1,0,-1
333 793 m 1,9,-1
 295 755 l 1,10,-1
 182 698 l 1,11,-1
 156 724 l 1,12,-1
 279 847 l 1,13,-1
 333 793 l 1,9,-1
EndSplineSet
EndChar

StartChar: Thorn
Encoding: 222 222 159
Width: 460
GlyphClass: 2
Flags: W
LayerCount: 2
Fore
SplineSet
160 0 m 1,0,-1
 90 0 l 1,1,-1
 90 650 l 1,2,-1
 160 650 l 1,3,-1
 160 550 l 1,4,-1
 241 550 l 2,5,6
 319 550 319 550 359.5 513 c 128,-1,7
 400 476 400 476 400 410 c 2,8,-1
 400 240 l 2,9,10
 400 173 400 173 360 136.5 c 128,-1,11
 320 100 320 100 241 100 c 2,12,-1
 160 100 l 1,13,-1
 160 0 l 1,0,-1
330 240 m 2,14,-1
 330 410 l 2,15,16
 330 448 330 448 307 469 c 128,-1,17
 284 490 284 490 241 490 c 2,18,-1
 160 490 l 1,19,-1
 160 160 l 1,20,-1
 241 160 l 2,21,22
 330 160 330 160 330 240 c 2,14,-1
EndSplineSet
EndChar

StartChar: germandbls
Encoding: 223 223 160
Width: 523
GlyphClass: 2
Flags: W
LayerCount: 2
Fore
SplineSet
428 525 m 2,0,-1
 428 435 l 2,1,2
 428 350 428 350 357 326 c 1,3,4
 438 304 438 304 438 215 c 2,5,-1
 438 140 l 2,6,7
 438 0 438 0 269 0 c 2,8,-1
 220 0 l 1,9,-1
 220 60 l 1,10,-1
 269 60 l 2,11,12
 318 60 318 60 343 80 c 128,-1,13
 368 100 368 100 368 136 c 2,14,-1
 368 215 l 2,15,16
 368 247 368 247 344 273.5 c 128,-1,17
 320 300 320 300 279 300 c 2,18,-1
 248 300 l 1,19,-1
 248 350 l 1,20,-1
 269 350 l 2,21,22
 311 350 311 350 334.5 376 c 128,-1,23
 358 402 358 402 358 435 c 2,24,-1
 358 529 l 2,25,26
 358 565 358 565 334.5 585 c 128,-1,27
 311 605 311 605 264 605 c 128,-1,28
 217 605 217 605 193.5 585 c 128,-1,29
 170 565 170 565 170 529 c 2,30,-1
 170 0 l 1,31,-1
 100 0 l 1,32,-1
 100 525 l 2,33,34
 100 665 100 665 261 665 c 0,35,36
 345 665 345 665 386.5 628.5 c 128,-1,37
 428 592 428 592 428 525 c 2,0,-1
EndSplineSet
EndChar

StartChar: agrave
Encoding: 224 224 161
Width: 500
GlyphClass: 2
Flags: W
LayerCount: 2
Fore
SplineSet
410 0 m 1,0,-1
 380 0 l 1,1,-1
 354 64 l 1,2,3
 333 28 333 28 299 6.5 c 128,-1,4
 265 -15 265 -15 224 -15 c 0,5,6
 80 -15 80 -15 80 125 c 2,7,-1
 80 225 l 2,8,9
 80 365 80 365 224 365 c 2,10,-1
 340 365 l 1,11,-1
 340 529 l 2,12,13
 340 565 340 565 317 585 c 128,-1,14
 294 605 294 605 249 605 c 0,15,16
 160 605 160 605 160 529 c 2,17,-1
 160 470 l 1,18,-1
 90 470 l 1,19,-1
 90 525 l 2,20,21
 90 592 90 592 129.5 628.5 c 128,-1,22
 169 665 169 665 249 665 c 128,-1,23
 329 665 329 665 369.5 628.5 c 128,-1,24
 410 592 410 592 410 525 c 2,25,-1
 410 0 l 1,0,-1
340 305 m 1,26,-1
 224 305 l 2,27,28
 182 305 182 305 166 284 c 128,-1,29
 150 263 150 263 150 225 c 2,30,-1
 150 125 l 2,31,32
 150 87 150 87 166 66 c 128,-1,33
 182 45 182 45 224 45 c 128,-1,34
 266 45 266 45 302 77.5 c 128,-1,35
 338 110 338 110 340 142 c 1,36,-1
 340 305 l 1,26,-1
189 755 m 1,37,-1
 151 793 l 1,38,-1
 205 847 l 1,39,-1
 328 724 l 1,40,-1
 302 698 l 1,41,-1
 189 755 l 1,37,-1
EndSplineSet
EndChar

StartChar: aacute
Encoding: 225 225 162
Width: 500
GlyphClass: 2
Flags: W
LayerCount: 2
Fore
SplineSet
410 0 m 1,0,-1
 380 0 l 1,1,-1
 354 64 l 1,2,3
 333 28 333 28 299 6.5 c 128,-1,4
 265 -15 265 -15 224 -15 c 0,5,6
 80 -15 80 -15 80 125 c 2,7,-1
 80 225 l 2,8,9
 80 365 80 365 224 365 c 2,10,-1
 340 365 l 1,11,-1
 340 529 l 2,12,13
 340 565 340 565 317 585 c 128,-1,14
 294 605 294 605 249 605 c 0,15,16
 160 605 160 605 160 529 c 2,17,-1
 160 470 l 1,18,-1
 90 470 l 1,19,-1
 90 525 l 2,20,21
 90 592 90 592 129.5 628.5 c 128,-1,22
 169 665 169 665 249 665 c 128,-1,23
 329 665 329 665 369.5 628.5 c 128,-1,24
 410 592 410 592 410 525 c 2,25,-1
 410 0 l 1,0,-1
340 305 m 1,26,-1
 224 305 l 2,27,28
 182 305 182 305 166 284 c 128,-1,29
 150 263 150 263 150 225 c 2,30,-1
 150 125 l 2,31,32
 150 87 150 87 166 66 c 128,-1,33
 182 45 182 45 224 45 c 128,-1,34
 266 45 266 45 302 77.5 c 128,-1,35
 338 110 338 110 340 142 c 1,36,-1
 340 305 l 1,26,-1
369 793 m 1,37,-1
 331 755 l 1,38,-1
 218 698 l 1,39,-1
 192 724 l 1,40,-1
 315 847 l 1,41,-1
 369 793 l 1,37,-1
EndSplineSet
EndChar

StartChar: acircumflex
Encoding: 226 226 163
Width: 500
GlyphClass: 2
Flags: W
LayerCount: 2
Fore
SplineSet
410 0 m 1,0,-1
 380 0 l 1,1,-1
 354 64 l 1,2,3
 333 28 333 28 299 6.5 c 128,-1,4
 265 -15 265 -15 224 -15 c 0,5,6
 80 -15 80 -15 80 125 c 2,7,-1
 80 225 l 2,8,9
 80 365 80 365 224 365 c 2,10,-1
 340 365 l 1,11,-1
 340 529 l 2,12,13
 340 565 340 565 317 585 c 128,-1,14
 294 605 294 605 249 605 c 0,15,16
 160 605 160 605 160 529 c 2,17,-1
 160 470 l 1,18,-1
 90 470 l 1,19,-1
 90 525 l 2,20,21
 90 592 90 592 129.5 628.5 c 128,-1,22
 169 665 169 665 249 665 c 128,-1,23
 329 665 329 665 369.5 628.5 c 128,-1,24
 410 592 410 592 410 525 c 2,25,-1
 410 0 l 1,0,-1
340 305 m 1,26,-1
 224 305 l 2,27,28
 182 305 182 305 166 284 c 128,-1,29
 150 263 150 263 150 225 c 2,30,-1
 150 125 l 2,31,32
 150 87 150 87 166 66 c 128,-1,33
 182 45 182 45 224 45 c 128,-1,34
 266 45 266 45 302 77.5 c 128,-1,35
 338 110 338 110 340 142 c 1,36,-1
 340 305 l 1,26,-1
250 760 m 1,37,-1
 162 698 l 1,38,-1
 136 724 l 1,39,-1
 234 837 l 1,40,-1
 266 837 l 1,41,-1
 364 724 l 1,42,-1
 338 698 l 1,43,-1
 250 760 l 1,37,-1
EndSplineSet
EndChar

StartChar: atilde
Encoding: 227 227 164
Width: 500
GlyphClass: 2
Flags: W
LayerCount: 2
Fore
SplineSet
410 0 m 1,0,-1
 380 0 l 1,1,-1
 354 64 l 1,2,3
 333 28 333 28 299 6.5 c 128,-1,4
 265 -15 265 -15 224 -15 c 0,5,6
 80 -15 80 -15 80 125 c 2,7,-1
 80 225 l 2,8,9
 80 365 80 365 224 365 c 2,10,-1
 340 365 l 1,11,-1
 340 529 l 2,12,13
 340 565 340 565 317 585 c 128,-1,14
 294 605 294 605 249 605 c 0,15,16
 160 605 160 605 160 529 c 2,17,-1
 160 470 l 1,18,-1
 90 470 l 1,19,-1
 90 525 l 2,20,21
 90 592 90 592 129.5 628.5 c 128,-1,22
 169 665 169 665 249 665 c 128,-1,23
 329 665 329 665 369.5 628.5 c 128,-1,24
 410 592 410 592 410 525 c 2,25,-1
 410 0 l 1,0,-1
340 305 m 1,26,-1
 224 305 l 2,27,28
 182 305 182 305 166 284 c 128,-1,29
 150 263 150 263 150 225 c 2,30,-1
 150 125 l 2,31,32
 150 87 150 87 166 66 c 128,-1,33
 182 45 182 45 224 45 c 128,-1,34
 266 45 266 45 302 77.5 c 128,-1,35
 338 110 338 110 340 142 c 1,36,-1
 340 305 l 1,26,-1
293 759 m 0,37,38
 278 759 278 759 250 740 c 128,-1,39
 222 721 222 721 196.5 721 c 128,-1,40
 171 721 171 721 153 741 c 128,-1,41
 135 761 135 761 132 795 c 1,42,-1
 173 809 l 1,43,44
 183 781 183 781 207 781 c 0,45,46
 222 781 222 781 250 800 c 128,-1,47
 278 819 278 819 303.5 819 c 128,-1,48
 329 819 329 819 347 799 c 128,-1,49
 365 779 365 779 368 745 c 1,50,-1
 327 731 l 1,51,52
 317 759 317 759 293 759 c 0,37,38
EndSplineSet
EndChar

StartChar: adieresis
Encoding: 228 228 165
Width: 500
GlyphClass: 2
Flags: W
LayerCount: 2
Fore
SplineSet
410 0 m 1,0,-1
 380 0 l 1,1,-1
 354 64 l 1,2,3
 333 28 333 28 299 6.5 c 128,-1,4
 265 -15 265 -15 224 -15 c 0,5,6
 80 -15 80 -15 80 125 c 2,7,-1
 80 225 l 2,8,9
 80 365 80 365 224 365 c 2,10,-1
 340 365 l 1,11,-1
 340 529 l 2,12,13
 340 565 340 565 317 585 c 128,-1,14
 294 605 294 605 249 605 c 0,15,16
 160 605 160 605 160 529 c 2,17,-1
 160 470 l 1,18,-1
 90 470 l 1,19,-1
 90 525 l 2,20,21
 90 592 90 592 129.5 628.5 c 128,-1,22
 169 665 169 665 249 665 c 128,-1,23
 329 665 329 665 369.5 628.5 c 128,-1,24
 410 592 410 592 410 525 c 2,25,-1
 410 0 l 1,0,-1
340 305 m 1,26,-1
 224 305 l 2,27,28
 182 305 182 305 166 284 c 128,-1,29
 150 263 150 263 150 225 c 2,30,-1
 150 125 l 2,31,32
 150 87 150 87 166 66 c 128,-1,33
 182 45 182 45 224 45 c 128,-1,34
 266 45 266 45 302 77.5 c 128,-1,35
 338 110 338 110 340 142 c 1,36,-1
 340 305 l 1,26,-1
215 715 m 1,37,-1
 145 715 l 1,38,-1
 145 825 l 1,39,-1
 215 825 l 1,40,-1
 215 715 l 1,37,-1
355 715 m 1,41,-1
 285 715 l 1,42,-1
 285 825 l 1,43,-1
 355 825 l 1,44,-1
 355 715 l 1,41,-1
EndSplineSet
EndChar

StartChar: aring
Encoding: 229 229 166
Width: 500
GlyphClass: 2
Flags: W
LayerCount: 2
Fore
SplineSet
410 0 m 1,0,-1
 380 0 l 1,1,-1
 354 64 l 1,2,3
 333 28 333 28 299 6.5 c 128,-1,4
 265 -15 265 -15 224 -15 c 0,5,6
 80 -15 80 -15 80 125 c 2,7,-1
 80 225 l 2,8,9
 80 365 80 365 224 365 c 2,10,-1
 340 365 l 1,11,-1
 340 529 l 2,12,13
 340 565 340 565 317 585 c 128,-1,14
 294 605 294 605 249 605 c 0,15,16
 160 605 160 605 160 529 c 2,17,-1
 160 470 l 1,18,-1
 90 470 l 1,19,-1
 90 525 l 2,20,21
 90 592 90 592 129.5 628.5 c 128,-1,22
 169 665 169 665 249 665 c 128,-1,23
 329 665 329 665 369.5 628.5 c 128,-1,24
 410 592 410 592 410 525 c 2,25,-1
 410 0 l 1,0,-1
340 305 m 1,26,-1
 224 305 l 2,27,28
 182 305 182 305 166 284 c 128,-1,29
 150 263 150 263 150 225 c 2,30,-1
 150 125 l 2,31,32
 150 87 150 87 166 66 c 128,-1,33
 182 45 182 45 224 45 c 128,-1,34
 266 45 266 45 302 77.5 c 128,-1,35
 338 110 338 110 340 142 c 1,36,-1
 340 305 l 1,26,-1
335 780 m 2,37,-1
 335 760 l 2,38,39
 335 685 335 685 250 685 c 128,-1,40
 165 685 165 685 165 760 c 2,41,-1
 165 780 l 2,42,43
 165 855 165 855 250 855 c 128,-1,44
 335 855 335 855 335 780 c 2,37,-1
215 780 m 2,45,-1
 215 760 l 2,46,47
 215 729 215 729 250 729 c 128,-1,48
 285 729 285 729 285 760 c 2,49,-1
 285 780 l 2,50,51
 285 811 285 811 250 811 c 128,-1,52
 215 811 215 811 215 780 c 2,45,-1
EndSplineSet
EndChar

StartChar: ae
Encoding: 230 230 167
Width: 755
GlyphClass: 2
Flags: W
LayerCount: 2
Fore
SplineSet
600 125 m 2,0,-1
 600 180 l 1,1,-1
 670 180 l 1,2,-1
 670 125 l 2,3,4
 670 58 670 58 629 21.5 c 128,-1,5
 588 -15 588 -15 506 -15 c 0,6,7
 387 -15 387 -15 352 61 c 1,8,9
 305 -15 305 -15 224 -15 c 0,10,11
 80 -15 80 -15 80 125 c 2,12,-1
 80 225 l 2,13,14
 80 365 80 365 224 365 c 2,15,-1
 340 365 l 1,16,-1
 340 531 l 2,17,18
 340 565 340 565 316.5 585 c 128,-1,19
 293 605 293 605 249 605 c 128,-1,20
 205 605 205 605 182.5 584.5 c 128,-1,21
 160 564 160 564 160 529 c 2,22,-1
 160 470 l 1,23,-1
 90 470 l 1,24,-1
 90 525 l 2,25,26
 90 592 90 592 130 628.5 c 128,-1,27
 170 665 170 665 251.5 665 c 128,-1,28
 333 665 333 665 375 623 c 1,29,30
 417 665 417 665 501.5 665 c 128,-1,31
 586 665 586 665 628 628.5 c 128,-1,32
 670 592 670 592 670 525 c 2,33,-1
 670 305 l 1,34,-1
 410 305 l 1,35,-1
 410 125 l 2,36,37
 410 45 410 45 505 45 c 128,-1,38
 600 45 600 45 600 125 c 2,0,-1
340 145 m 2,39,-1
 340 305 l 1,40,-1
 224 305 l 2,41,42
 182 305 182 305 166 284 c 128,-1,43
 150 263 150 263 150 225 c 2,44,-1
 150 125 l 2,45,46
 150 87 150 87 166 66 c 128,-1,47
 182 45 182 45 224.5 45 c 128,-1,48
 267 45 267 45 303.5 79 c 128,-1,49
 340 113 340 113 340 145 c 2,39,-1
410 531 m 2,50,-1
 410 365 l 1,51,-1
 600 365 l 1,52,-1
 600 525 l 2,53,54
 600 605 600 605 504 605 c 0,55,56
 459 605 459 605 434.5 585.5 c 128,-1,57
 410 566 410 566 410 531 c 2,50,-1
EndSplineSet
EndChar

StartChar: ccedilla
Encoding: 231 231 168
Width: 490
GlyphClass: 2
Flags: W
LayerCount: 2
Fore
SplineSet
345 125 m 2,0,-1
 345 180 l 1,1,-1
 415 180 l 1,2,-1
 415 125 l 2,3,4
 415 -8 415 -8 264 -14 c 1,5,-1
 255 -62 l 1,6,-1
 260 -62 l 2,7,8
 301 -62 301 -62 322.5 -83.5 c 128,-1,9
 344 -105 344 -105 344 -141 c 2,10,-1
 344 -164 l 2,11,12
 344 -240 344 -240 254.5 -240 c 128,-1,13
 165 -240 165 -240 165 -164 c 2,14,-1
 165 -156 l 1,15,-1
 213 -156 l 1,16,-1
 213 -166 l 2,17,18
 213 -197 213 -197 254.5 -197 c 128,-1,19
 296 -197 296 -197 296 -166 c 2,20,-1
 296 -141 l 2,21,22
 296 -127 296 -127 286 -116 c 128,-1,23
 276 -105 276 -105 260 -105 c 2,24,-1
 200 -105 l 1,25,-1
 218 -13 l 1,26,27
 152 -6 152 -6 118.5 29.5 c 128,-1,28
 85 65 85 65 85 125 c 2,29,-1
 85 525 l 2,30,31
 85 592 85 592 126 628.5 c 128,-1,32
 167 665 167 665 249 665 c 128,-1,33
 331 665 331 665 373 628.5 c 128,-1,34
 415 592 415 592 415 525 c 2,35,-1
 415 430 l 1,36,-1
 345 430 l 1,37,-1
 345 525 l 2,38,39
 345 605 345 605 250 605 c 128,-1,40
 155 605 155 605 155 525 c 2,41,-1
 155 125 l 2,42,43
 155 45 155 45 250 45 c 128,-1,44
 345 45 345 45 345 125 c 2,0,-1
EndSplineSet
EndChar

StartChar: egrave
Encoding: 232 232 169
Width: 500
GlyphClass: 2
Flags: W
LayerCount: 2
Fore
SplineSet
345 125 m 2,0,-1
 345 180 l 1,1,-1
 415 180 l 1,2,-1
 415 125 l 2,3,4
 415 58 415 58 374 21.5 c 128,-1,5
 333 -15 333 -15 251 -15 c 128,-1,6
 169 -15 169 -15 127 21.5 c 128,-1,7
 85 58 85 58 85 125 c 2,8,-1
 85 525 l 2,9,10
 85 592 85 592 126 628.5 c 128,-1,11
 167 665 167 665 249 665 c 128,-1,12
 331 665 331 665 373 628.5 c 128,-1,13
 415 592 415 592 415 525 c 2,14,-1
 415 305 l 1,15,-1
 155 305 l 1,16,-1
 155 125 l 2,17,18
 155 45 155 45 250 45 c 128,-1,19
 345 45 345 45 345 125 c 2,0,-1
155 525 m 2,20,-1
 155 365 l 1,21,-1
 345 365 l 1,22,-1
 345 525 l 2,23,24
 345 605 345 605 250 605 c 128,-1,25
 155 605 155 605 155 525 c 2,20,-1
189 755 m 1,26,-1
 151 793 l 1,27,-1
 205 847 l 1,28,-1
 328 724 l 1,29,-1
 302 698 l 1,30,-1
 189 755 l 1,26,-1
EndSplineSet
EndChar

StartChar: eacute
Encoding: 233 233 170
Width: 500
GlyphClass: 2
Flags: W
LayerCount: 2
Fore
SplineSet
345 125 m 2,0,-1
 345 180 l 1,1,-1
 415 180 l 1,2,-1
 415 125 l 2,3,4
 415 58 415 58 374 21.5 c 128,-1,5
 333 -15 333 -15 251 -15 c 128,-1,6
 169 -15 169 -15 127 21.5 c 128,-1,7
 85 58 85 58 85 125 c 2,8,-1
 85 525 l 2,9,10
 85 592 85 592 126 628.5 c 128,-1,11
 167 665 167 665 249 665 c 128,-1,12
 331 665 331 665 373 628.5 c 128,-1,13
 415 592 415 592 415 525 c 2,14,-1
 415 305 l 1,15,-1
 155 305 l 1,16,-1
 155 125 l 2,17,18
 155 45 155 45 250 45 c 128,-1,19
 345 45 345 45 345 125 c 2,0,-1
155 525 m 2,20,-1
 155 365 l 1,21,-1
 345 365 l 1,22,-1
 345 525 l 2,23,24
 345 605 345 605 250 605 c 128,-1,25
 155 605 155 605 155 525 c 2,20,-1
369 793 m 1,26,-1
 331 755 l 1,27,-1
 218 698 l 1,28,-1
 192 724 l 1,29,-1
 315 847 l 1,30,-1
 369 793 l 1,26,-1
EndSplineSet
EndChar

StartChar: ecircumflex
Encoding: 234 234 171
Width: 500
GlyphClass: 2
Flags: W
LayerCount: 2
Fore
SplineSet
345 125 m 2,0,-1
 345 180 l 1,1,-1
 415 180 l 1,2,-1
 415 125 l 2,3,4
 415 58 415 58 374 21.5 c 128,-1,5
 333 -15 333 -15 251 -15 c 128,-1,6
 169 -15 169 -15 127 21.5 c 128,-1,7
 85 58 85 58 85 125 c 2,8,-1
 85 525 l 2,9,10
 85 592 85 592 126 628.5 c 128,-1,11
 167 665 167 665 249 665 c 128,-1,12
 331 665 331 665 373 628.5 c 128,-1,13
 415 592 415 592 415 525 c 2,14,-1
 415 305 l 1,15,-1
 155 305 l 1,16,-1
 155 125 l 2,17,18
 155 45 155 45 250 45 c 128,-1,19
 345 45 345 45 345 125 c 2,0,-1
155 525 m 2,20,-1
 155 365 l 1,21,-1
 345 365 l 1,22,-1
 345 525 l 2,23,24
 345 605 345 605 250 605 c 128,-1,25
 155 605 155 605 155 525 c 2,20,-1
250 760 m 1,26,-1
 162 698 l 1,27,-1
 136 724 l 1,28,-1
 234 837 l 1,29,-1
 266 837 l 1,30,-1
 364 724 l 1,31,-1
 338 698 l 1,32,-1
 250 760 l 1,26,-1
EndSplineSet
EndChar

StartChar: edieresis
Encoding: 235 235 172
Width: 500
GlyphClass: 2
Flags: W
LayerCount: 2
Fore
SplineSet
345 125 m 2,0,-1
 345 180 l 1,1,-1
 415 180 l 1,2,-1
 415 125 l 2,3,4
 415 58 415 58 374 21.5 c 128,-1,5
 333 -15 333 -15 251 -15 c 128,-1,6
 169 -15 169 -15 127 21.5 c 128,-1,7
 85 58 85 58 85 125 c 2,8,-1
 85 525 l 2,9,10
 85 592 85 592 126 628.5 c 128,-1,11
 167 665 167 665 249 665 c 128,-1,12
 331 665 331 665 373 628.5 c 128,-1,13
 415 592 415 592 415 525 c 2,14,-1
 415 305 l 1,15,-1
 155 305 l 1,16,-1
 155 125 l 2,17,18
 155 45 155 45 250 45 c 128,-1,19
 345 45 345 45 345 125 c 2,0,-1
155 525 m 2,20,-1
 155 365 l 1,21,-1
 345 365 l 1,22,-1
 345 525 l 2,23,24
 345 605 345 605 250 605 c 128,-1,25
 155 605 155 605 155 525 c 2,20,-1
215 715 m 1,26,-1
 145 715 l 1,27,-1
 145 825 l 1,28,-1
 215 825 l 1,29,-1
 215 715 l 1,26,-1
355 715 m 1,30,-1
 285 715 l 1,31,-1
 285 825 l 1,32,-1
 355 825 l 1,33,-1
 355 715 l 1,30,-1
EndSplineSet
EndChar

StartChar: igrave
Encoding: 236 236 173
Width: 270
GlyphClass: 2
Flags: W
LayerCount: 2
Fore
SplineSet
170 0 m 1,0,-1
 100 0 l 1,1,-1
 100 650 l 1,2,-1
 170 650 l 1,3,-1
 170 0 l 1,0,-1
85 755 m 1,4,-1
 47 793 l 1,5,-1
 101 847 l 1,6,-1
 224 724 l 1,7,-1
 198 698 l 1,8,-1
 85 755 l 1,4,-1
EndSplineSet
EndChar

StartChar: iacute
Encoding: 237 237 174
Width: 270
GlyphClass: 2
Flags: W
LayerCount: 2
Fore
SplineSet
170 0 m 1,0,-1
 100 0 l 1,1,-1
 100 650 l 1,2,-1
 170 650 l 1,3,-1
 170 0 l 1,0,-1
234 793 m 1,4,-1
 196 755 l 1,5,-1
 83 698 l 1,6,-1
 57 724 l 1,7,-1
 180 847 l 1,8,-1
 234 793 l 1,4,-1
EndSplineSet
EndChar

StartChar: icircumflex
Encoding: 238 238 175
Width: 270
GlyphClass: 2
Flags: W
LayerCount: 2
Fore
SplineSet
170 0 m 1,0,-1
 100 0 l 1,1,-1
 100 650 l 1,2,-1
 170 650 l 1,3,-1
 170 0 l 1,0,-1
135 760 m 1,4,-1
 47 698 l 1,5,-1
 21 724 l 1,6,-1
 119 837 l 1,7,-1
 151 837 l 1,8,-1
 249 724 l 1,9,-1
 223 698 l 1,10,-1
 135 760 l 1,4,-1
EndSplineSet
EndChar

StartChar: idieresis
Encoding: 239 239 176
Width: 270
GlyphClass: 2
Flags: W
LayerCount: 2
Fore
SplineSet
170 0 m 1,0,-1
 100 0 l 1,1,-1
 100 650 l 1,2,-1
 170 650 l 1,3,-1
 170 0 l 1,0,-1
100 715 m 1,4,-1
 30 715 l 1,5,-1
 30 825 l 1,6,-1
 100 825 l 1,7,-1
 100 715 l 1,4,-1
240 715 m 1,8,-1
 170 715 l 1,9,-1
 170 825 l 1,10,-1
 240 825 l 1,11,-1
 240 715 l 1,8,-1
EndSplineSet
EndChar

StartChar: eth
Encoding: 240 240 177
Width: 505
GlyphClass: 2
Flags: W
LayerCount: 2
Fore
SplineSet
31 305 m 1,0,-1
 31 355 l 1,1,-1
 100 355 l 1,2,-1
 100 650 l 1,3,-1
 261 650 l 2,4,5
 339 650 339 650 379.5 613 c 128,-1,6
 420 576 420 576 420 510 c 2,7,-1
 420 140 l 2,8,9
 420 73 420 73 380 36.5 c 128,-1,10
 340 0 340 0 261 0 c 2,11,-1
 100 0 l 1,12,-1
 100 305 l 1,13,-1
 31 305 l 1,0,-1
350 140 m 2,14,-1
 350 510 l 2,15,16
 350 542 350 542 326.5 566 c 128,-1,17
 303 590 303 590 261 590 c 2,18,-1
 170 590 l 1,19,-1
 170 355 l 1,20,-1
 291 355 l 1,21,-1
 291 305 l 1,22,-1
 170 305 l 1,23,-1
 170 60 l 1,24,-1
 261 60 l 2,25,26
 303 60 303 60 326.5 83.5 c 128,-1,27
 350 107 350 107 350 140 c 2,14,-1
EndSplineSet
EndChar

StartChar: ntilde
Encoding: 241 241 178
Width: 525
GlyphClass: 2
Flags: W
LayerCount: 2
Fore
SplineSet
170 0 m 1,0,-1
 100 0 l 1,1,-1
 100 650 l 1,2,-1
 130 650 l 1,3,-1
 155 585 l 1,4,5
 203 665 203 665 288 665 c 0,6,7
 435 665 435 665 435 525 c 2,8,-1
 435 0 l 1,9,-1
 365 0 l 1,10,-1
 365 525 l 2,11,12
 365 563 365 563 348.5 584 c 128,-1,13
 332 605 332 605 288 605 c 128,-1,14
 244 605 244 605 207 571 c 128,-1,15
 170 537 170 537 170 505 c 2,16,-1
 170 0 l 1,0,-1
320 759 m 0,17,18
 305 759 305 759 277 740 c 128,-1,19
 249 721 249 721 223.5 721 c 128,-1,20
 198 721 198 721 180 741 c 128,-1,21
 162 761 162 761 159 795 c 1,22,-1
 200 809 l 1,23,24
 210 781 210 781 234 781 c 0,25,26
 249 781 249 781 277 800 c 128,-1,27
 305 819 305 819 330.5 819 c 128,-1,28
 356 819 356 819 374 799 c 128,-1,29
 392 779 392 779 395 745 c 1,30,-1
 354 731 l 1,31,32
 344 759 344 759 320 759 c 0,17,18
EndSplineSet
EndChar

StartChar: ograve
Encoding: 242 242 179
Width: 510
GlyphClass: 2
Flags: W
LayerCount: 2
Fore
SplineSet
425 525 m 2,0,-1
 425 125 l 2,1,2
 425 58 425 58 382.5 21.5 c 128,-1,3
 340 -15 340 -15 255.5 -15 c 128,-1,4
 171 -15 171 -15 128 21.5 c 128,-1,5
 85 58 85 58 85 125 c 2,6,-1
 85 525 l 2,7,8
 85 592 85 592 127.5 628.5 c 128,-1,9
 170 665 170 665 254.5 665 c 128,-1,10
 339 665 339 665 382 628.5 c 128,-1,11
 425 592 425 592 425 525 c 2,0,-1
355 125 m 2,12,-1
 355 525 l 2,13,14
 355 605 355 605 255 605 c 128,-1,15
 155 605 155 605 155 525 c 2,16,-1
 155 125 l 2,17,18
 155 45 155 45 255 45 c 128,-1,19
 355 45 355 45 355 125 c 2,12,-1
194 755 m 1,20,-1
 156 793 l 1,21,-1
 210 847 l 1,22,-1
 333 724 l 1,23,-1
 307 698 l 1,24,-1
 194 755 l 1,20,-1
EndSplineSet
EndChar

StartChar: oacute
Encoding: 243 243 180
Width: 510
GlyphClass: 2
Flags: W
LayerCount: 2
Fore
SplineSet
425 525 m 2,0,-1
 425 125 l 2,1,2
 425 58 425 58 382.5 21.5 c 128,-1,3
 340 -15 340 -15 255.5 -15 c 128,-1,4
 171 -15 171 -15 128 21.5 c 128,-1,5
 85 58 85 58 85 125 c 2,6,-1
 85 525 l 2,7,8
 85 592 85 592 127.5 628.5 c 128,-1,9
 170 665 170 665 254.5 665 c 128,-1,10
 339 665 339 665 382 628.5 c 128,-1,11
 425 592 425 592 425 525 c 2,0,-1
355 125 m 2,12,-1
 355 525 l 2,13,14
 355 605 355 605 255 605 c 128,-1,15
 155 605 155 605 155 525 c 2,16,-1
 155 125 l 2,17,18
 155 45 155 45 255 45 c 128,-1,19
 355 45 355 45 355 125 c 2,12,-1
374 793 m 1,20,-1
 336 755 l 1,21,-1
 223 698 l 1,22,-1
 197 724 l 1,23,-1
 320 847 l 1,24,-1
 374 793 l 1,20,-1
EndSplineSet
EndChar

StartChar: ocircumflex
Encoding: 244 244 181
Width: 510
GlyphClass: 2
Flags: W
LayerCount: 2
Fore
SplineSet
425 525 m 2,0,-1
 425 125 l 2,1,2
 425 58 425 58 382.5 21.5 c 128,-1,3
 340 -15 340 -15 255.5 -15 c 128,-1,4
 171 -15 171 -15 128 21.5 c 128,-1,5
 85 58 85 58 85 125 c 2,6,-1
 85 525 l 2,7,8
 85 592 85 592 127.5 628.5 c 128,-1,9
 170 665 170 665 254.5 665 c 128,-1,10
 339 665 339 665 382 628.5 c 128,-1,11
 425 592 425 592 425 525 c 2,0,-1
355 125 m 2,12,-1
 355 525 l 2,13,14
 355 605 355 605 255 605 c 128,-1,15
 155 605 155 605 155 525 c 2,16,-1
 155 125 l 2,17,18
 155 45 155 45 255 45 c 128,-1,19
 355 45 355 45 355 125 c 2,12,-1
255 760 m 1,20,-1
 167 698 l 1,21,-1
 141 724 l 1,22,-1
 239 837 l 1,23,-1
 271 837 l 1,24,-1
 369 724 l 1,25,-1
 343 698 l 1,26,-1
 255 760 l 1,20,-1
EndSplineSet
EndChar

StartChar: otilde
Encoding: 245 245 182
Width: 510
GlyphClass: 2
Flags: W
LayerCount: 2
Fore
SplineSet
425 525 m 2,0,-1
 425 125 l 2,1,2
 425 58 425 58 382.5 21.5 c 128,-1,3
 340 -15 340 -15 255.5 -15 c 128,-1,4
 171 -15 171 -15 128 21.5 c 128,-1,5
 85 58 85 58 85 125 c 2,6,-1
 85 525 l 2,7,8
 85 592 85 592 127.5 628.5 c 128,-1,9
 170 665 170 665 254.5 665 c 128,-1,10
 339 665 339 665 382 628.5 c 128,-1,11
 425 592 425 592 425 525 c 2,0,-1
355 125 m 2,12,-1
 355 525 l 2,13,14
 355 605 355 605 255 605 c 128,-1,15
 155 605 155 605 155 525 c 2,16,-1
 155 125 l 2,17,18
 155 45 155 45 255 45 c 128,-1,19
 355 45 355 45 355 125 c 2,12,-1
298 759 m 0,20,21
 283 759 283 759 255 740 c 128,-1,22
 227 721 227 721 201.5 721 c 128,-1,23
 176 721 176 721 158 741 c 128,-1,24
 140 761 140 761 137 795 c 1,25,-1
 178 809 l 1,26,27
 188 781 188 781 212 781 c 0,28,29
 227 781 227 781 255 800 c 128,-1,30
 283 819 283 819 308.5 819 c 128,-1,31
 334 819 334 819 352 799 c 128,-1,32
 370 779 370 779 373 745 c 1,33,-1
 332 731 l 1,34,35
 322 759 322 759 298 759 c 0,20,21
EndSplineSet
EndChar

StartChar: odieresis
Encoding: 246 246 183
Width: 510
GlyphClass: 2
Flags: W
LayerCount: 2
Fore
SplineSet
425 525 m 2,0,-1
 425 125 l 2,1,2
 425 58 425 58 382.5 21.5 c 128,-1,3
 340 -15 340 -15 255.5 -15 c 128,-1,4
 171 -15 171 -15 128 21.5 c 128,-1,5
 85 58 85 58 85 125 c 2,6,-1
 85 525 l 2,7,8
 85 592 85 592 127.5 628.5 c 128,-1,9
 170 665 170 665 254.5 665 c 128,-1,10
 339 665 339 665 382 628.5 c 128,-1,11
 425 592 425 592 425 525 c 2,0,-1
355 125 m 2,12,-1
 355 525 l 2,13,14
 355 605 355 605 255 605 c 128,-1,15
 155 605 155 605 155 525 c 2,16,-1
 155 125 l 2,17,18
 155 45 155 45 255 45 c 128,-1,19
 355 45 355 45 355 125 c 2,12,-1
220 715 m 1,20,-1
 150 715 l 1,21,-1
 150 825 l 1,22,-1
 220 825 l 1,23,-1
 220 715 l 1,20,-1
360 715 m 1,24,-1
 290 715 l 1,25,-1
 290 825 l 1,26,-1
 360 825 l 1,27,-1
 360 715 l 1,24,-1
EndSplineSet
EndChar

StartChar: divide
Encoding: 247 247 184
Width: 510
GlyphClass: 2
Flags: W
LayerCount: 2
Fore
SplineSet
293 435 m 1,0,-1
 212 435 l 1,1,-1
 212 534 l 1,2,-1
 293 534 l 1,3,-1
 293 435 l 1,0,-1
415 355 m 1,4,-1
 415 295 l 1,5,-1
 95 295 l 1,6,-1
 95 355 l 1,7,-1
 415 355 l 1,4,-1
293 116 m 1,8,-1
 212 116 l 1,9,-1
 212 215 l 1,10,-1
 293 215 l 1,11,-1
 293 116 l 1,8,-1
EndSplineSet
EndChar

StartChar: oslash
Encoding: 248 248 185
Width: 510
GlyphClass: 2
Flags: W
LayerCount: 2
Fore
SplineSet
85 125 m 2,0,-1
 85 525 l 2,1,2
 85 592 85 592 127.5 628.5 c 128,-1,3
 170 665 170 665 254 665 c 0,4,5
 281 665 281 665 308 660 c 1,6,-1
 320 710 l 1,7,-1
 365 710 l 1,8,-1
 351 647 l 1,9,10
 425 614 425 614 425 525 c 2,11,-1
 425 125 l 2,12,13
 425 58 425 58 382.5 21.5 c 128,-1,14
 340 -15 340 -15 256 -15 c 0,15,16
 229 -15 229 -15 201 -10 c 1,17,-1
 190 -60 l 1,18,-1
 145 -60 l 1,19,-1
 159 2 l 1,20,21
 85 36 85 36 85 125 c 2,0,-1
155 125 m 2,22,23
 155 90 155 90 174 71 c 1,24,-1
 295 600 l 1,25,26
 275 605 275 605 254 605 c 0,27,28
 155 605 155 605 155 525 c 2,29,-1
 155 125 l 2,22,23
355 125 m 2,30,-1
 355 525 l 2,31,32
 355 557 355 557 335 579 c 1,33,-1
 215 49 l 1,34,35
 231 45 231 45 256 45 c 0,36,37
 355 45 355 45 355 125 c 2,30,-1
EndSplineSet
EndChar

StartChar: ugrave
Encoding: 249 249 186
Width: 525
GlyphClass: 2
Flags: W
LayerCount: 2
Fore
SplineSet
90 125 m 2,0,-1
 90 650 l 1,1,-1
 160 650 l 1,2,-1
 160 125 l 2,3,4
 160 87 160 87 176.5 66 c 128,-1,5
 193 45 193 45 237 45 c 128,-1,6
 281 45 281 45 318 79 c 128,-1,7
 355 113 355 113 355 145 c 2,8,-1
 355 650 l 1,9,-1
 425 650 l 1,10,-1
 425 0 l 1,11,-1
 395 0 l 1,12,-1
 369 64 l 1,13,14
 347 28 347 28 312.5 6.5 c 128,-1,15
 278 -15 278 -15 237 -15 c 0,16,17
 90 -15 90 -15 90 125 c 2,0,-1
202 755 m 1,18,-1
 164 793 l 1,19,-1
 218 847 l 1,20,-1
 341 724 l 1,21,-1
 315 698 l 1,22,-1
 202 755 l 1,18,-1
EndSplineSet
EndChar

StartChar: uacute
Encoding: 250 250 187
Width: 525
GlyphClass: 2
Flags: W
LayerCount: 2
Fore
SplineSet
90 125 m 2,0,-1
 90 650 l 1,1,-1
 160 650 l 1,2,-1
 160 125 l 2,3,4
 160 87 160 87 176.5 66 c 128,-1,5
 193 45 193 45 237 45 c 128,-1,6
 281 45 281 45 318 79 c 128,-1,7
 355 113 355 113 355 145 c 2,8,-1
 355 650 l 1,9,-1
 425 650 l 1,10,-1
 425 0 l 1,11,-1
 395 0 l 1,12,-1
 369 64 l 1,13,14
 347 28 347 28 312.5 6.5 c 128,-1,15
 278 -15 278 -15 237 -15 c 0,16,17
 90 -15 90 -15 90 125 c 2,0,-1
381 793 m 1,18,-1
 343 755 l 1,19,-1
 230 698 l 1,20,-1
 204 724 l 1,21,-1
 327 847 l 1,22,-1
 381 793 l 1,18,-1
EndSplineSet
EndChar

StartChar: ucircumflex
Encoding: 251 251 188
Width: 525
GlyphClass: 2
Flags: W
LayerCount: 2
Fore
SplineSet
90 125 m 2,0,-1
 90 650 l 1,1,-1
 160 650 l 1,2,-1
 160 125 l 2,3,4
 160 87 160 87 176.5 66 c 128,-1,5
 193 45 193 45 237 45 c 128,-1,6
 281 45 281 45 318 79 c 128,-1,7
 355 113 355 113 355 145 c 2,8,-1
 355 650 l 1,9,-1
 425 650 l 1,10,-1
 425 0 l 1,11,-1
 395 0 l 1,12,-1
 369 64 l 1,13,14
 347 28 347 28 312.5 6.5 c 128,-1,15
 278 -15 278 -15 237 -15 c 0,16,17
 90 -15 90 -15 90 125 c 2,0,-1
262 760 m 1,18,-1
 174 698 l 1,19,-1
 148 724 l 1,20,-1
 246 837 l 1,21,-1
 278 837 l 1,22,-1
 376 724 l 1,23,-1
 350 698 l 1,24,-1
 262 760 l 1,18,-1
EndSplineSet
EndChar

StartChar: udieresis
Encoding: 252 252 189
Width: 525
GlyphClass: 2
Flags: W
LayerCount: 2
Fore
SplineSet
90 125 m 2,0,-1
 90 650 l 1,1,-1
 160 650 l 1,2,-1
 160 125 l 2,3,4
 160 87 160 87 176.5 66 c 128,-1,5
 193 45 193 45 237 45 c 128,-1,6
 281 45 281 45 318 79 c 128,-1,7
 355 113 355 113 355 145 c 2,8,-1
 355 650 l 1,9,-1
 425 650 l 1,10,-1
 425 0 l 1,11,-1
 395 0 l 1,12,-1
 369 64 l 1,13,14
 347 28 347 28 312.5 6.5 c 128,-1,15
 278 -15 278 -15 237 -15 c 0,16,17
 90 -15 90 -15 90 125 c 2,0,-1
227 715 m 1,18,-1
 157 715 l 1,19,-1
 157 825 l 1,20,-1
 227 825 l 1,21,-1
 227 715 l 1,18,-1
367 715 m 1,22,-1
 297 715 l 1,23,-1
 297 825 l 1,24,-1
 367 825 l 1,25,-1
 367 715 l 1,22,-1
EndSplineSet
EndChar

StartChar: yacute
Encoding: 253 253 190
Width: 470
GlyphClass: 2
Flags: W
LayerCount: 2
Fore
SplineSet
271 0 m 1,0,-1
 201 0 l 1,1,-1
 201 184 l 1,2,3
 65 199 65 199 65 322 c 2,4,-1
 65 650 l 1,5,-1
 135 650 l 1,6,-1
 135 322 l 2,7,8
 135 242 135 242 235 242 c 128,-1,9
 335 242 335 242 335 322 c 2,10,-1
 335 650 l 1,11,-1
 405 650 l 1,12,-1
 405 322 l 2,13,14
 405 199 405 199 271 184 c 1,15,-1
 271 0 l 1,0,-1
344 793 m 1,16,-1
 306 755 l 1,17,-1
 193 698 l 1,18,-1
 167 724 l 1,19,-1
 290 847 l 1,20,-1
 344 793 l 1,16,-1
EndSplineSet
EndChar

StartChar: thorn
Encoding: 254 254 191
Width: 460
GlyphClass: 2
Flags: W
LayerCount: 2
Fore
SplineSet
160 0 m 1,0,-1
 90 0 l 1,1,-1
 90 650 l 1,2,-1
 160 650 l 1,3,-1
 160 550 l 1,4,-1
 241 550 l 2,5,6
 319 550 319 550 359.5 513 c 128,-1,7
 400 476 400 476 400 410 c 2,8,-1
 400 240 l 2,9,10
 400 173 400 173 360 136.5 c 128,-1,11
 320 100 320 100 241 100 c 2,12,-1
 160 100 l 1,13,-1
 160 0 l 1,0,-1
330 240 m 2,14,-1
 330 410 l 2,15,16
 330 448 330 448 307 469 c 128,-1,17
 284 490 284 490 241 490 c 2,18,-1
 160 490 l 1,19,-1
 160 160 l 1,20,-1
 241 160 l 2,21,22
 330 160 330 160 330 240 c 2,14,-1
EndSplineSet
EndChar

StartChar: ydieresis
Encoding: 255 255 192
Width: 470
GlyphClass: 2
Flags: W
LayerCount: 2
Fore
SplineSet
271 0 m 1,0,-1
 201 0 l 1,1,-1
 201 184 l 1,2,3
 65 199 65 199 65 322 c 2,4,-1
 65 650 l 1,5,-1
 135 650 l 1,6,-1
 135 322 l 2,7,8
 135 242 135 242 235 242 c 128,-1,9
 335 242 335 242 335 322 c 2,10,-1
 335 650 l 1,11,-1
 405 650 l 1,12,-1
 405 322 l 2,13,14
 405 199 405 199 271 184 c 1,15,-1
 271 0 l 1,0,-1
201 715 m 1,16,-1
 131 715 l 1,17,-1
 131 825 l 1,18,-1
 201 825 l 1,19,-1
 201 715 l 1,16,-1
341 715 m 1,20,-1
 271 715 l 1,21,-1
 271 825 l 1,22,-1
 341 825 l 1,23,-1
 341 715 l 1,20,-1
EndSplineSet
EndChar

StartChar: Amacron
Encoding: 256 256 193
Width: 479
GlyphClass: 2
Flags: W
LayerCount: 2
Fore
SplineSet
187 650 m 1,0,-1
 292 650 l 1,1,-1
 439 0 l 1,2,-1
 369 0 l 1,3,-1
 335 150 l 1,4,-1
 144 150 l 1,5,-1
 110 0 l 1,6,-1
 40 0 l 1,7,-1
 187 650 l 1,0,-1
239 572 m 1,8,-1
 157 210 l 1,9,-1
 321 210 l 1,10,-1
 239 572 l 1,8,-1
131 740 m 1,11,-1
 131 800 l 1,12,-1
 347 800 l 1,13,-1
 347 740 l 1,14,-1
 131 740 l 1,11,-1
EndSplineSet
EndChar

StartChar: amacron
Encoding: 257 257 194
Width: 500
GlyphClass: 2
Flags: W
LayerCount: 2
Fore
SplineSet
410 0 m 1,0,-1
 380 0 l 1,1,-1
 354 64 l 1,2,3
 333 28 333 28 299 6.5 c 128,-1,4
 265 -15 265 -15 224 -15 c 0,5,6
 80 -15 80 -15 80 125 c 2,7,-1
 80 225 l 2,8,9
 80 365 80 365 224 365 c 2,10,-1
 340 365 l 1,11,-1
 340 529 l 2,12,13
 340 565 340 565 317 585 c 128,-1,14
 294 605 294 605 249 605 c 0,15,16
 160 605 160 605 160 529 c 2,17,-1
 160 470 l 1,18,-1
 90 470 l 1,19,-1
 90 525 l 2,20,21
 90 592 90 592 129.5 628.5 c 128,-1,22
 169 665 169 665 249 665 c 128,-1,23
 329 665 329 665 369.5 628.5 c 128,-1,24
 410 592 410 592 410 525 c 2,25,-1
 410 0 l 1,0,-1
340 305 m 1,26,-1
 224 305 l 2,27,28
 182 305 182 305 166 284 c 128,-1,29
 150 263 150 263 150 225 c 2,30,-1
 150 125 l 2,31,32
 150 87 150 87 166 66 c 128,-1,33
 182 45 182 45 224 45 c 128,-1,34
 266 45 266 45 302 77.5 c 128,-1,35
 338 110 338 110 340 142 c 1,36,-1
 340 305 l 1,26,-1
142 740 m 1,37,-1
 142 800 l 1,38,-1
 358 800 l 1,39,-1
 358 740 l 1,40,-1
 142 740 l 1,37,-1
EndSplineSet
EndChar

StartChar: Abreve
Encoding: 258 258 195
Width: 479
GlyphClass: 2
Flags: W
LayerCount: 2
Fore
SplineSet
187 650 m 1,0,-1
 292 650 l 1,1,-1
 439 0 l 1,2,-1
 369 0 l 1,3,-1
 335 150 l 1,4,-1
 144 150 l 1,5,-1
 110 0 l 1,6,-1
 40 0 l 1,7,-1
 187 650 l 1,0,-1
239 572 m 1,8,-1
 157 210 l 1,9,-1
 321 210 l 1,10,-1
 239 572 l 1,8,-1
196 816 m 1,11,-1
 196 796 l 2,12,13
 196 765 196 765 239 765 c 128,-1,14
 282 765 282 765 282 796 c 2,15,-1
 282 816 l 1,16,-1
 337 816 l 1,17,-1
 337 790 l 2,18,19
 337 715 337 715 239 715 c 128,-1,20
 141 715 141 715 141 790 c 2,21,-1
 141 816 l 1,22,-1
 196 816 l 1,11,-1
EndSplineSet
EndChar

StartChar: abreve
Encoding: 259 259 196
Width: 500
GlyphClass: 2
Flags: W
LayerCount: 2
Fore
SplineSet
410 0 m 1,0,-1
 380 0 l 1,1,-1
 354 64 l 1,2,3
 333 28 333 28 299 6.5 c 128,-1,4
 265 -15 265 -15 224 -15 c 0,5,6
 80 -15 80 -15 80 125 c 2,7,-1
 80 225 l 2,8,9
 80 365 80 365 224 365 c 2,10,-1
 340 365 l 1,11,-1
 340 529 l 2,12,13
 340 565 340 565 317 585 c 128,-1,14
 294 605 294 605 249 605 c 0,15,16
 160 605 160 605 160 529 c 2,17,-1
 160 470 l 1,18,-1
 90 470 l 1,19,-1
 90 525 l 2,20,21
 90 592 90 592 129.5 628.5 c 128,-1,22
 169 665 169 665 249 665 c 128,-1,23
 329 665 329 665 369.5 628.5 c 128,-1,24
 410 592 410 592 410 525 c 2,25,-1
 410 0 l 1,0,-1
340 305 m 1,26,-1
 224 305 l 2,27,28
 182 305 182 305 166 284 c 128,-1,29
 150 263 150 263 150 225 c 2,30,-1
 150 125 l 2,31,32
 150 87 150 87 166 66 c 128,-1,33
 182 45 182 45 224 45 c 128,-1,34
 266 45 266 45 302 77.5 c 128,-1,35
 338 110 338 110 340 142 c 1,36,-1
 340 305 l 1,26,-1
207 816 m 1,37,-1
 207 796 l 2,38,39
 207 765 207 765 250 765 c 128,-1,40
 293 765 293 765 293 796 c 2,41,-1
 293 816 l 1,42,-1
 348 816 l 1,43,-1
 348 790 l 2,44,45
 348 715 348 715 250 715 c 128,-1,46
 152 715 152 715 152 790 c 2,47,-1
 152 816 l 1,48,-1
 207 816 l 1,37,-1
EndSplineSet
EndChar

StartChar: Aogonek
Encoding: 260 260 197
Width: 479
GlyphClass: 2
Flags: W
LayerCount: 2
Fore
SplineSet
327 -124 m 2,0,-1
 327 -166 l 2,1,2
 327 -197 327 -197 368.5 -197 c 128,-1,3
 410 -197 410 -197 410 -166 c 2,4,-1
 410 -136 l 1,5,-1
 458 -136 l 1,6,-1
 458 -164 l 2,7,8
 458 -240 458 -240 368.5 -240 c 128,-1,9
 279 -240 279 -240 279 -164 c 2,10,-1
 279 -124 l 2,11,12
 279 -79 279 -79 320 -41 c 1,13,-1
 369 0 l 1,14,-1
 335 150 l 1,15,-1
 144 150 l 1,16,-1
 110 0 l 1,17,-1
 40 0 l 1,18,-1
 187 650 l 1,19,-1
 292 650 l 1,20,-1
 439 0 l 1,21,-1
 376 -51 l 2,22,23
 327 -91 327 -91 327 -124 c 2,0,-1
239 572 m 1,24,-1
 157 210 l 1,25,-1
 321 210 l 1,26,-1
 239 572 l 1,24,-1
EndSplineSet
EndChar

StartChar: aogonek
Encoding: 261 261 198
Width: 500
GlyphClass: 2
Flags: W
LayerCount: 2
Fore
SplineSet
298 -124 m 2,0,-1
 298 -166 l 2,1,2
 298 -197 298 -197 339.5 -197 c 128,-1,3
 381 -197 381 -197 381 -166 c 2,4,-1
 381 -136 l 1,5,-1
 429 -136 l 1,6,-1
 429 -164 l 2,7,8
 429 -240 429 -240 339.5 -240 c 128,-1,9
 250 -240 250 -240 250 -164 c 2,10,-1
 250 -124 l 2,11,12
 250 -75 250 -75 291 -41 c 2,13,-1
 370 25 l 1,14,-1
 354 64 l 1,15,16
 333 28 333 28 299 6.5 c 128,-1,17
 265 -15 265 -15 224 -15 c 0,18,19
 80 -15 80 -15 80 125 c 2,20,-1
 80 225 l 2,21,22
 80 365 80 365 224 365 c 2,23,-1
 340 365 l 1,24,-1
 340 529 l 2,25,26
 340 565 340 565 317 585 c 128,-1,27
 294 605 294 605 249 605 c 0,28,29
 160 605 160 605 160 529 c 2,30,-1
 160 470 l 1,31,-1
 90 470 l 1,32,-1
 90 525 l 2,33,34
 90 592 90 592 129.5 628.5 c 128,-1,35
 169 665 169 665 249 665 c 128,-1,36
 329 665 329 665 369.5 628.5 c 128,-1,37
 410 592 410 592 410 525 c 2,38,-1
 410 0 l 1,39,-1
 347 -51 l 2,40,41
 298 -91 298 -91 298 -124 c 2,0,-1
340 305 m 1,42,-1
 224 305 l 2,43,44
 182 305 182 305 166 284 c 128,-1,45
 150 263 150 263 150 225 c 2,46,-1
 150 125 l 2,47,48
 150 87 150 87 166 66 c 128,-1,49
 182 45 182 45 224 45 c 128,-1,50
 266 45 266 45 302 77.5 c 128,-1,51
 338 110 338 110 340 142 c 1,52,-1
 340 305 l 1,42,-1
EndSplineSet
EndChar

StartChar: Cacute
Encoding: 262 262 199
Width: 490
GlyphClass: 2
Flags: W
LayerCount: 2
Fore
SplineSet
345 125 m 2,0,-1
 345 180 l 1,1,-1
 415 180 l 1,2,-1
 415 125 l 2,3,4
 415 58 415 58 374 21.5 c 128,-1,5
 333 -15 333 -15 251 -15 c 128,-1,6
 169 -15 169 -15 127 21.5 c 128,-1,7
 85 58 85 58 85 125 c 2,8,-1
 85 525 l 2,9,10
 85 592 85 592 126 628.5 c 128,-1,11
 167 665 167 665 249 665 c 128,-1,12
 331 665 331 665 373 628.5 c 128,-1,13
 415 592 415 592 415 525 c 2,14,-1
 415 430 l 1,15,-1
 345 430 l 1,16,-1
 345 525 l 2,17,18
 345 605 345 605 250 605 c 128,-1,19
 155 605 155 605 155 525 c 2,20,-1
 155 125 l 2,21,22
 155 45 155 45 250 45 c 128,-1,23
 345 45 345 45 345 125 c 2,0,-1
333 793 m 1,24,-1
 295 755 l 1,25,-1
 182 698 l 1,26,-1
 156 724 l 1,27,-1
 279 847 l 1,28,-1
 333 793 l 1,24,-1
EndSplineSet
EndChar

StartChar: cacute
Encoding: 263 263 200
Width: 490
GlyphClass: 2
Flags: W
LayerCount: 2
Fore
SplineSet
345 125 m 2,0,-1
 345 180 l 1,1,-1
 415 180 l 1,2,-1
 415 125 l 2,3,4
 415 58 415 58 374 21.5 c 128,-1,5
 333 -15 333 -15 251 -15 c 128,-1,6
 169 -15 169 -15 127 21.5 c 128,-1,7
 85 58 85 58 85 125 c 2,8,-1
 85 525 l 2,9,10
 85 592 85 592 126 628.5 c 128,-1,11
 167 665 167 665 249 665 c 128,-1,12
 331 665 331 665 373 628.5 c 128,-1,13
 415 592 415 592 415 525 c 2,14,-1
 415 430 l 1,15,-1
 345 430 l 1,16,-1
 345 525 l 2,17,18
 345 605 345 605 250 605 c 128,-1,19
 155 605 155 605 155 525 c 2,20,-1
 155 125 l 2,21,22
 155 45 155 45 250 45 c 128,-1,23
 345 45 345 45 345 125 c 2,0,-1
333 793 m 1,24,-1
 295 755 l 1,25,-1
 182 698 l 1,26,-1
 156 724 l 1,27,-1
 279 847 l 1,28,-1
 333 793 l 1,24,-1
EndSplineSet
EndChar

StartChar: Ccircumflex
Encoding: 264 264 201
Width: 490
GlyphClass: 2
Flags: W
LayerCount: 2
Fore
SplineSet
345 125 m 2,0,-1
 345 180 l 1,1,-1
 415 180 l 1,2,-1
 415 125 l 2,3,4
 415 58 415 58 374 21.5 c 128,-1,5
 333 -15 333 -15 251 -15 c 128,-1,6
 169 -15 169 -15 127 21.5 c 128,-1,7
 85 58 85 58 85 125 c 2,8,-1
 85 525 l 2,9,10
 85 592 85 592 126 628.5 c 128,-1,11
 167 665 167 665 249 665 c 128,-1,12
 331 665 331 665 373 628.5 c 128,-1,13
 415 592 415 592 415 525 c 2,14,-1
 415 430 l 1,15,-1
 345 430 l 1,16,-1
 345 525 l 2,17,18
 345 605 345 605 250 605 c 128,-1,19
 155 605 155 605 155 525 c 2,20,-1
 155 125 l 2,21,22
 155 45 155 45 250 45 c 128,-1,23
 345 45 345 45 345 125 c 2,0,-1
245 760 m 1,24,-1
 157 698 l 1,25,-1
 131 724 l 1,26,-1
 229 837 l 1,27,-1
 261 837 l 1,28,-1
 359 724 l 1,29,-1
 333 698 l 1,30,-1
 245 760 l 1,24,-1
EndSplineSet
EndChar

StartChar: ccircumflex
Encoding: 265 265 202
Width: 490
GlyphClass: 2
Flags: W
LayerCount: 2
Fore
SplineSet
345 125 m 2,0,-1
 345 180 l 1,1,-1
 415 180 l 1,2,-1
 415 125 l 2,3,4
 415 58 415 58 374 21.5 c 128,-1,5
 333 -15 333 -15 251 -15 c 128,-1,6
 169 -15 169 -15 127 21.5 c 128,-1,7
 85 58 85 58 85 125 c 2,8,-1
 85 525 l 2,9,10
 85 592 85 592 126 628.5 c 128,-1,11
 167 665 167 665 249 665 c 128,-1,12
 331 665 331 665 373 628.5 c 128,-1,13
 415 592 415 592 415 525 c 2,14,-1
 415 430 l 1,15,-1
 345 430 l 1,16,-1
 345 525 l 2,17,18
 345 605 345 605 250 605 c 128,-1,19
 155 605 155 605 155 525 c 2,20,-1
 155 125 l 2,21,22
 155 45 155 45 250 45 c 128,-1,23
 345 45 345 45 345 125 c 2,0,-1
245 760 m 1,24,-1
 157 698 l 1,25,-1
 131 724 l 1,26,-1
 229 837 l 1,27,-1
 261 837 l 1,28,-1
 359 724 l 1,29,-1
 333 698 l 1,30,-1
 245 760 l 1,24,-1
EndSplineSet
EndChar

StartChar: Cdotaccent
Encoding: 266 266 203
Width: 490
GlyphClass: 2
Flags: W
LayerCount: 2
Fore
SplineSet
345 125 m 2,0,-1
 345 180 l 1,1,-1
 415 180 l 1,2,-1
 415 125 l 2,3,4
 415 58 415 58 374 21.5 c 128,-1,5
 333 -15 333 -15 251 -15 c 128,-1,6
 169 -15 169 -15 127 21.5 c 128,-1,7
 85 58 85 58 85 125 c 2,8,-1
 85 525 l 2,9,10
 85 592 85 592 126 628.5 c 128,-1,11
 167 665 167 665 249 665 c 128,-1,12
 331 665 331 665 373 628.5 c 128,-1,13
 415 592 415 592 415 525 c 2,14,-1
 415 430 l 1,15,-1
 345 430 l 1,16,-1
 345 525 l 2,17,18
 345 605 345 605 250 605 c 128,-1,19
 155 605 155 605 155 525 c 2,20,-1
 155 125 l 2,21,22
 155 45 155 45 250 45 c 128,-1,23
 345 45 345 45 345 125 c 2,0,-1
285 715 m 1,24,-1
 205 715 l 1,25,-1
 205 825 l 1,26,-1
 285 825 l 1,27,-1
 285 715 l 1,24,-1
EndSplineSet
EndChar

StartChar: cdotaccent
Encoding: 267 267 204
Width: 490
GlyphClass: 2
Flags: W
LayerCount: 2
Fore
SplineSet
345 125 m 2,0,-1
 345 180 l 1,1,-1
 415 180 l 1,2,-1
 415 125 l 2,3,4
 415 58 415 58 374 21.5 c 128,-1,5
 333 -15 333 -15 251 -15 c 128,-1,6
 169 -15 169 -15 127 21.5 c 128,-1,7
 85 58 85 58 85 125 c 2,8,-1
 85 525 l 2,9,10
 85 592 85 592 126 628.5 c 128,-1,11
 167 665 167 665 249 665 c 128,-1,12
 331 665 331 665 373 628.5 c 128,-1,13
 415 592 415 592 415 525 c 2,14,-1
 415 430 l 1,15,-1
 345 430 l 1,16,-1
 345 525 l 2,17,18
 345 605 345 605 250 605 c 128,-1,19
 155 605 155 605 155 525 c 2,20,-1
 155 125 l 2,21,22
 155 45 155 45 250 45 c 128,-1,23
 345 45 345 45 345 125 c 2,0,-1
285 715 m 1,24,-1
 205 715 l 1,25,-1
 205 825 l 1,26,-1
 285 825 l 1,27,-1
 285 715 l 1,24,-1
EndSplineSet
EndChar

StartChar: Ccaron
Encoding: 268 268 205
Width: 490
GlyphClass: 2
Flags: W
LayerCount: 2
Fore
SplineSet
345 125 m 2,0,-1
 345 180 l 1,1,-1
 415 180 l 1,2,-1
 415 125 l 2,3,4
 415 58 415 58 374 21.5 c 128,-1,5
 333 -15 333 -15 251 -15 c 128,-1,6
 169 -15 169 -15 127 21.5 c 128,-1,7
 85 58 85 58 85 125 c 2,8,-1
 85 525 l 2,9,10
 85 592 85 592 126 628.5 c 128,-1,11
 167 665 167 665 249 665 c 128,-1,12
 331 665 331 665 373 628.5 c 128,-1,13
 415 592 415 592 415 525 c 2,14,-1
 415 430 l 1,15,-1
 345 430 l 1,16,-1
 345 525 l 2,17,18
 345 605 345 605 250 605 c 128,-1,19
 155 605 155 605 155 525 c 2,20,-1
 155 125 l 2,21,22
 155 45 155 45 250 45 c 128,-1,23
 345 45 345 45 345 125 c 2,0,-1
245 778 m 1,24,-1
 333 840 l 1,25,-1
 359 814 l 1,26,-1
 261 701 l 1,27,-1
 229 701 l 1,28,-1
 131 814 l 1,29,-1
 157 840 l 1,30,-1
 245 778 l 1,24,-1
EndSplineSet
EndChar

StartChar: ccaron
Encoding: 269 269 206
Width: 490
GlyphClass: 2
Flags: W
LayerCount: 2
Fore
SplineSet
345 125 m 2,0,-1
 345 180 l 1,1,-1
 415 180 l 1,2,-1
 415 125 l 2,3,4
 415 58 415 58 374 21.5 c 128,-1,5
 333 -15 333 -15 251 -15 c 128,-1,6
 169 -15 169 -15 127 21.5 c 128,-1,7
 85 58 85 58 85 125 c 2,8,-1
 85 525 l 2,9,10
 85 592 85 592 126 628.5 c 128,-1,11
 167 665 167 665 249 665 c 128,-1,12
 331 665 331 665 373 628.5 c 128,-1,13
 415 592 415 592 415 525 c 2,14,-1
 415 430 l 1,15,-1
 345 430 l 1,16,-1
 345 525 l 2,17,18
 345 605 345 605 250 605 c 128,-1,19
 155 605 155 605 155 525 c 2,20,-1
 155 125 l 2,21,22
 155 45 155 45 250 45 c 128,-1,23
 345 45 345 45 345 125 c 2,0,-1
245 778 m 1,24,-1
 333 840 l 1,25,-1
 359 814 l 1,26,-1
 261 701 l 1,27,-1
 229 701 l 1,28,-1
 131 814 l 1,29,-1
 157 840 l 1,30,-1
 245 778 l 1,24,-1
EndSplineSet
EndChar

StartChar: Dcaron
Encoding: 270 270 207
Width: 505
GlyphClass: 2
Flags: W
LayerCount: 2
Fore
SplineSet
261 0 m 2,0,-1
 100 0 l 1,1,-1
 100 650 l 1,2,-1
 261 650 l 2,3,4
 339 650 339 650 379.5 613 c 128,-1,5
 420 576 420 576 420 510 c 2,6,-1
 420 140 l 2,7,8
 420 73 420 73 380 36.5 c 128,-1,9
 340 0 340 0 261 0 c 2,0,-1
350 140 m 2,10,-1
 350 510 l 2,11,12
 350 542 350 542 326.5 566 c 128,-1,13
 303 590 303 590 261 590 c 2,14,-1
 170 590 l 1,15,-1
 170 60 l 1,16,-1
 261 60 l 2,17,18
 303 60 303 60 326.5 83.5 c 128,-1,19
 350 107 350 107 350 140 c 2,10,-1
252 778 m 1,20,-1
 340 840 l 1,21,-1
 366 814 l 1,22,-1
 268 701 l 1,23,-1
 236 701 l 1,24,-1
 138 814 l 1,25,-1
 164 840 l 1,26,-1
 252 778 l 1,20,-1
EndSplineSet
EndChar

StartChar: dcaron
Encoding: 271 271 208
Width: 505
GlyphClass: 2
Flags: W
LayerCount: 2
Fore
SplineSet
261 0 m 2,0,-1
 100 0 l 1,1,-1
 100 650 l 1,2,-1
 261 650 l 2,3,4
 339 650 339 650 379.5 613 c 128,-1,5
 420 576 420 576 420 510 c 2,6,-1
 420 140 l 2,7,8
 420 73 420 73 380 36.5 c 128,-1,9
 340 0 340 0 261 0 c 2,0,-1
350 140 m 2,10,-1
 350 510 l 2,11,12
 350 548 350 548 327 569 c 128,-1,13
 304 590 304 590 261 590 c 2,14,-1
 170 590 l 1,15,-1
 170 60 l 1,16,-1
 261 60 l 2,17,18
 350 60 350 60 350 140 c 2,10,-1
465 715 m 1,19,-1
 545 715 l 1,20,-1
 545 630 l 1,21,-1
 501 514 l 1,22,-1
 469 520 l 1,23,-1
 489 615 l 1,24,-1
 465 624 l 1,25,-1
 465 715 l 1,19,-1
EndSplineSet
EndChar

StartChar: Dcroat
Encoding: 272 272 209
Width: 500
GlyphClass: 2
Flags: W
LayerCount: 2
Fore
SplineSet
31 305 m 1,0,-1
 31 355 l 1,1,-1
 100 355 l 1,2,-1
 100 650 l 1,3,-1
 261 650 l 2,4,5
 339 650 339 650 379.5 613 c 128,-1,6
 420 576 420 576 420 510 c 2,7,-1
 420 140 l 2,8,9
 420 73 420 73 380 36.5 c 128,-1,10
 340 0 340 0 261 0 c 2,11,-1
 100 0 l 1,12,-1
 100 305 l 1,13,-1
 31 305 l 1,0,-1
350 140 m 2,14,-1
 350 510 l 2,15,16
 350 542 350 542 326.5 566 c 128,-1,17
 303 590 303 590 261 590 c 2,18,-1
 170 590 l 1,19,-1
 170 355 l 1,20,-1
 291 355 l 1,21,-1
 291 305 l 1,22,-1
 170 305 l 1,23,-1
 170 60 l 1,24,-1
 261 60 l 2,25,26
 303 60 303 60 326.5 83.5 c 128,-1,27
 350 107 350 107 350 140 c 2,14,-1
EndSplineSet
EndChar

StartChar: dcroat
Encoding: 273 273 210
Width: 500
GlyphClass: 2
Flags: W
LayerCount: 2
Fore
SplineSet
31 305 m 1,0,-1
 31 355 l 1,1,-1
 100 355 l 1,2,-1
 100 650 l 1,3,-1
 261 650 l 2,4,5
 339 650 339 650 379.5 613 c 128,-1,6
 420 576 420 576 420 510 c 2,7,-1
 420 140 l 2,8,9
 420 73 420 73 380 36.5 c 128,-1,10
 340 0 340 0 261 0 c 2,11,-1
 100 0 l 1,12,-1
 100 305 l 1,13,-1
 31 305 l 1,0,-1
350 140 m 2,14,-1
 350 510 l 2,15,16
 350 542 350 542 326.5 566 c 128,-1,17
 303 590 303 590 261 590 c 2,18,-1
 170 590 l 1,19,-1
 170 355 l 1,20,-1
 291 355 l 1,21,-1
 291 305 l 1,22,-1
 170 305 l 1,23,-1
 170 60 l 1,24,-1
 261 60 l 2,25,26
 303 60 303 60 326.5 83.5 c 128,-1,27
 350 107 350 107 350 140 c 2,14,-1
EndSplineSet
EndChar

StartChar: Emacron
Encoding: 274 274 211
Width: 445
GlyphClass: 2
Flags: W
LayerCount: 2
Fore
SplineSet
395 0 m 1,0,-1
 100 0 l 1,1,-1
 100 650 l 1,2,-1
 385 650 l 1,3,-1
 385 590 l 1,4,-1
 170 590 l 1,5,-1
 170 360 l 1,6,-1
 345 360 l 1,7,-1
 345 300 l 1,8,-1
 170 300 l 1,9,-1
 170 60 l 1,10,-1
 395 60 l 1,11,-1
 395 0 l 1,0,-1
144 740 m 1,12,-1
 144 800 l 1,13,-1
 360 800 l 1,14,-1
 360 740 l 1,15,-1
 144 740 l 1,12,-1
EndSplineSet
EndChar

StartChar: emacron
Encoding: 275 275 212
Width: 500
GlyphClass: 2
Flags: W
LayerCount: 2
Fore
SplineSet
345 125 m 2,0,-1
 345 180 l 1,1,-1
 415 180 l 1,2,-1
 415 125 l 2,3,4
 415 58 415 58 374 21.5 c 128,-1,5
 333 -15 333 -15 251 -15 c 128,-1,6
 169 -15 169 -15 127 21.5 c 128,-1,7
 85 58 85 58 85 125 c 2,8,-1
 85 525 l 2,9,10
 85 592 85 592 126 628.5 c 128,-1,11
 167 665 167 665 249 665 c 128,-1,12
 331 665 331 665 373 628.5 c 128,-1,13
 415 592 415 592 415 525 c 2,14,-1
 415 305 l 1,15,-1
 155 305 l 1,16,-1
 155 125 l 2,17,18
 155 45 155 45 250 45 c 128,-1,19
 345 45 345 45 345 125 c 2,0,-1
155 525 m 2,20,-1
 155 365 l 1,21,-1
 345 365 l 1,22,-1
 345 525 l 2,23,24
 345 605 345 605 250 605 c 128,-1,25
 155 605 155 605 155 525 c 2,20,-1
142 740 m 1,26,-1
 142 800 l 1,27,-1
 358 800 l 1,28,-1
 358 740 l 1,29,-1
 142 740 l 1,26,-1
EndSplineSet
EndChar

StartChar: Ebreve
Encoding: 276 276 213
Width: 445
GlyphClass: 2
Flags: W
LayerCount: 2
Fore
SplineSet
395 0 m 1,0,-1
 100 0 l 1,1,-1
 100 650 l 1,2,-1
 385 650 l 1,3,-1
 385 590 l 1,4,-1
 170 590 l 1,5,-1
 170 360 l 1,6,-1
 345 360 l 1,7,-1
 345 300 l 1,8,-1
 170 300 l 1,9,-1
 170 60 l 1,10,-1
 395 60 l 1,11,-1
 395 0 l 1,0,-1
209 816 m 1,12,-1
 209 796 l 2,13,14
 209 765 209 765 252 765 c 128,-1,15
 295 765 295 765 295 796 c 2,16,-1
 295 816 l 1,17,-1
 350 816 l 1,18,-1
 350 790 l 2,19,20
 350 715 350 715 252 715 c 128,-1,21
 154 715 154 715 154 790 c 2,22,-1
 154 816 l 1,23,-1
 209 816 l 1,12,-1
EndSplineSet
EndChar

StartChar: ebreve
Encoding: 277 277 214
Width: 500
GlyphClass: 2
Flags: W
LayerCount: 2
Fore
SplineSet
345 125 m 2,0,-1
 345 180 l 1,1,-1
 415 180 l 1,2,-1
 415 125 l 2,3,4
 415 58 415 58 374 21.5 c 128,-1,5
 333 -15 333 -15 251 -15 c 128,-1,6
 169 -15 169 -15 127 21.5 c 128,-1,7
 85 58 85 58 85 125 c 2,8,-1
 85 525 l 2,9,10
 85 592 85 592 126 628.5 c 128,-1,11
 167 665 167 665 249 665 c 128,-1,12
 331 665 331 665 373 628.5 c 128,-1,13
 415 592 415 592 415 525 c 2,14,-1
 415 305 l 1,15,-1
 155 305 l 1,16,-1
 155 125 l 2,17,18
 155 45 155 45 250 45 c 128,-1,19
 345 45 345 45 345 125 c 2,0,-1
155 525 m 2,20,-1
 155 365 l 1,21,-1
 345 365 l 1,22,-1
 345 525 l 2,23,24
 345 605 345 605 250 605 c 128,-1,25
 155 605 155 605 155 525 c 2,20,-1
207 816 m 1,26,-1
 207 796 l 2,27,28
 207 765 207 765 250 765 c 128,-1,29
 293 765 293 765 293 796 c 2,30,-1
 293 816 l 1,31,-1
 348 816 l 1,32,-1
 348 790 l 2,33,34
 348 715 348 715 250 715 c 128,-1,35
 152 715 152 715 152 790 c 2,36,-1
 152 816 l 1,37,-1
 207 816 l 1,26,-1
EndSplineSet
EndChar

StartChar: Edotaccent
Encoding: 278 278 215
Width: 445
GlyphClass: 2
Flags: W
LayerCount: 2
Fore
SplineSet
395 0 m 1,0,-1
 100 0 l 1,1,-1
 100 650 l 1,2,-1
 385 650 l 1,3,-1
 385 590 l 1,4,-1
 170 590 l 1,5,-1
 170 360 l 1,6,-1
 345 360 l 1,7,-1
 345 300 l 1,8,-1
 170 300 l 1,9,-1
 170 60 l 1,10,-1
 395 60 l 1,11,-1
 395 0 l 1,0,-1
292 715 m 1,12,-1
 212 715 l 1,13,-1
 212 825 l 1,14,-1
 292 825 l 1,15,-1
 292 715 l 1,12,-1
EndSplineSet
EndChar

StartChar: edotaccent
Encoding: 279 279 216
Width: 500
GlyphClass: 2
Flags: W
LayerCount: 2
Fore
SplineSet
345 125 m 2,0,-1
 345 180 l 1,1,-1
 415 180 l 1,2,-1
 415 125 l 2,3,4
 415 58 415 58 374 21.5 c 128,-1,5
 333 -15 333 -15 251 -15 c 128,-1,6
 169 -15 169 -15 127 21.5 c 128,-1,7
 85 58 85 58 85 125 c 2,8,-1
 85 525 l 2,9,10
 85 592 85 592 126 628.5 c 128,-1,11
 167 665 167 665 249 665 c 128,-1,12
 331 665 331 665 373 628.5 c 128,-1,13
 415 592 415 592 415 525 c 2,14,-1
 415 305 l 1,15,-1
 155 305 l 1,16,-1
 155 125 l 2,17,18
 155 45 155 45 250 45 c 128,-1,19
 345 45 345 45 345 125 c 2,0,-1
155 525 m 2,20,-1
 155 365 l 1,21,-1
 345 365 l 1,22,-1
 345 525 l 2,23,24
 345 605 345 605 250 605 c 128,-1,25
 155 605 155 605 155 525 c 2,20,-1
290 715 m 1,26,-1
 210 715 l 1,27,-1
 210 825 l 1,28,-1
 290 825 l 1,29,-1
 290 715 l 1,26,-1
EndSplineSet
EndChar

StartChar: Eogonek
Encoding: 280 280 217
Width: 445
GlyphClass: 2
Flags: W
LayerCount: 2
Fore
SplineSet
100 0 m 1,0,-1
 100 650 l 1,1,-1
 385 650 l 1,2,-1
 385 590 l 1,3,-1
 170 590 l 1,4,-1
 170 360 l 1,5,-1
 345 360 l 1,6,-1
 345 300 l 1,7,-1
 170 300 l 1,8,-1
 170 60 l 1,9,-1
 395 60 l 1,10,-1
 395 0 l 1,11,-1
 332 -51 l 2,12,13
 283 -91 283 -91 283 -124 c 2,14,-1
 283 -166 l 2,15,16
 283 -197 283 -197 324.5 -197 c 128,-1,17
 366 -197 366 -197 366 -166 c 2,18,-1
 366 -136 l 1,19,-1
 414 -136 l 1,20,-1
 414 -164 l 2,21,22
 414 -240 414 -240 324.5 -240 c 128,-1,23
 235 -240 235 -240 235 -164 c 2,24,-1
 235 -124 l 2,25,26
 235 -79 235 -79 276 -41 c 1,27,-1
 325 0 l 1,28,-1
 100 0 l 1,0,-1
EndSplineSet
EndChar

StartChar: eogonek
Encoding: 281 281 218
Width: 500
GlyphClass: 2
Flags: W
LayerCount: 2
Fore
SplineSet
345 125 m 2,0,-1
 345 180 l 1,1,-1
 415 180 l 1,2,-1
 415 125 l 2,3,4
 415 31 415 31 337 0 c 1,5,-1
 275 -51 l 2,6,7
 226 -91 226 -91 226 -124 c 2,8,-1
 226 -166 l 2,9,10
 226 -197 226 -197 267.5 -197 c 128,-1,11
 309 -197 309 -197 309 -166 c 2,12,-1
 309 -136 l 1,13,-1
 357 -136 l 1,14,-1
 357 -164 l 2,15,16
 357 -240 357 -240 267.5 -240 c 128,-1,17
 178 -240 178 -240 178 -164 c 2,18,-1
 178 -124 l 2,19,20
 178 -79 178 -79 219 -41 c 1,21,-1
 250 -15 l 1,22,23
 168 -14 168 -14 126.5 22 c 128,-1,24
 85 58 85 58 85 125 c 2,25,-1
 85 525 l 2,26,27
 85 592 85 592 126 628.5 c 128,-1,28
 167 665 167 665 249 665 c 128,-1,29
 331 665 331 665 373 628.5 c 128,-1,30
 415 592 415 592 415 525 c 2,31,-1
 415 305 l 1,32,-1
 155 305 l 1,33,-1
 155 125 l 2,34,35
 155 45 155 45 250 45 c 128,-1,36
 345 45 345 45 345 125 c 2,0,-1
155 525 m 2,37,-1
 155 365 l 1,38,-1
 345 365 l 1,39,-1
 345 525 l 2,40,41
 345 605 345 605 250 605 c 128,-1,42
 155 605 155 605 155 525 c 2,37,-1
EndSplineSet
EndChar

StartChar: Ecaron
Encoding: 282 282 219
Width: 445
GlyphClass: 2
Flags: W
LayerCount: 2
Fore
SplineSet
395 0 m 1,0,-1
 100 0 l 1,1,-1
 100 650 l 1,2,-1
 385 650 l 1,3,-1
 385 590 l 1,4,-1
 170 590 l 1,5,-1
 170 360 l 1,6,-1
 345 360 l 1,7,-1
 345 300 l 1,8,-1
 170 300 l 1,9,-1
 170 60 l 1,10,-1
 395 60 l 1,11,-1
 395 0 l 1,0,-1
252 778 m 1,12,-1
 340 840 l 1,13,-1
 366 814 l 1,14,-1
 268 701 l 1,15,-1
 236 701 l 1,16,-1
 138 814 l 1,17,-1
 164 840 l 1,18,-1
 252 778 l 1,12,-1
EndSplineSet
EndChar

StartChar: ecaron
Encoding: 283 283 220
Width: 500
GlyphClass: 2
Flags: W
LayerCount: 2
Fore
SplineSet
345 125 m 2,0,-1
 345 180 l 1,1,-1
 415 180 l 1,2,-1
 415 125 l 2,3,4
 415 58 415 58 374 21.5 c 128,-1,5
 333 -15 333 -15 251 -15 c 128,-1,6
 169 -15 169 -15 127 21.5 c 128,-1,7
 85 58 85 58 85 125 c 2,8,-1
 85 525 l 2,9,10
 85 592 85 592 126 628.5 c 128,-1,11
 167 665 167 665 249 665 c 128,-1,12
 331 665 331 665 373 628.5 c 128,-1,13
 415 592 415 592 415 525 c 2,14,-1
 415 305 l 1,15,-1
 155 305 l 1,16,-1
 155 125 l 2,17,18
 155 45 155 45 250 45 c 128,-1,19
 345 45 345 45 345 125 c 2,0,-1
155 525 m 2,20,-1
 155 365 l 1,21,-1
 345 365 l 1,22,-1
 345 525 l 2,23,24
 345 605 345 605 250 605 c 128,-1,25
 155 605 155 605 155 525 c 2,20,-1
250 778 m 1,26,-1
 338 840 l 1,27,-1
 364 814 l 1,28,-1
 266 701 l 1,29,-1
 234 701 l 1,30,-1
 136 814 l 1,31,-1
 162 840 l 1,32,-1
 250 778 l 1,26,-1
EndSplineSet
EndChar

StartChar: Gcircumflex
Encoding: 284 284 221
Width: 500
GlyphClass: 2
Flags: W
LayerCount: 2
Fore
SplineSet
233 270 m 1,0,-1
 233 330 l 1,1,-1
 415 330 l 1,2,-1
 415 0 l 1,3,-1
 385 0 l 1,4,-1
 359 64 l 1,5,6
 338 28 338 28 304 6.5 c 128,-1,7
 270 -15 270 -15 230 -15 c 0,8,9
 85 -15 85 -15 85 125 c 2,10,-1
 85 525 l 2,11,12
 85 592 85 592 126 628.5 c 128,-1,13
 167 665 167 665 249 665 c 128,-1,14
 331 665 331 665 373 628.5 c 128,-1,15
 415 592 415 592 415 525 c 2,16,-1
 415 470 l 1,17,-1
 345 470 l 1,18,-1
 345 525 l 2,19,20
 345 605 345 605 250 605 c 128,-1,21
 155 605 155 605 155 525 c 2,22,-1
 155 125 l 2,23,24
 155 87 155 87 171 66 c 128,-1,25
 187 45 187 45 229.5 45 c 128,-1,26
 272 45 272 45 308.5 79 c 128,-1,27
 345 113 345 113 345 145 c 2,28,-1
 345 270 l 1,29,-1
 233 270 l 1,0,-1
250 760 m 1,30,-1
 162 698 l 1,31,-1
 136 724 l 1,32,-1
 234 837 l 1,33,-1
 266 837 l 1,34,-1
 364 724 l 1,35,-1
 338 698 l 1,36,-1
 250 760 l 1,30,-1
EndSplineSet
EndChar

StartChar: gcircumflex
Encoding: 285 285 222
Width: 500
GlyphClass: 2
Flags: W
LayerCount: 2
Fore
SplineSet
233 270 m 1,0,-1
 233 330 l 1,1,-1
 415 330 l 1,2,-1
 415 125 l 2,3,4
 415 58 415 58 374 21.5 c 128,-1,5
 333 -15 333 -15 251 -15 c 128,-1,6
 169 -15 169 -15 127 21.5 c 128,-1,7
 85 58 85 58 85 125 c 2,8,-1
 85 525 l 2,9,10
 85 592 85 592 126 628.5 c 128,-1,11
 167 665 167 665 249 665 c 128,-1,12
 331 665 331 665 373 628.5 c 128,-1,13
 415 592 415 592 415 525 c 2,14,-1
 415 470 l 1,15,-1
 345 470 l 1,16,-1
 345 525 l 2,17,18
 345 605 345 605 250 605 c 128,-1,19
 155 605 155 605 155 525 c 2,20,-1
 155 125 l 2,21,22
 155 45 155 45 250 45 c 128,-1,23
 345 45 345 45 345 125 c 2,24,-1
 345 270 l 1,25,-1
 233 270 l 1,0,-1
250 760 m 1,26,-1
 162 698 l 1,27,-1
 136 724 l 1,28,-1
 234 837 l 1,29,-1
 266 837 l 1,30,-1
 364 724 l 1,31,-1
 338 698 l 1,32,-1
 250 760 l 1,26,-1
EndSplineSet
EndChar

StartChar: Gbreve
Encoding: 286 286 223
Width: 500
GlyphClass: 2
Flags: W
LayerCount: 2
Fore
SplineSet
233 270 m 1,0,-1
 233 330 l 1,1,-1
 415 330 l 1,2,-1
 415 0 l 1,3,-1
 385 0 l 1,4,-1
 359 64 l 1,5,6
 338 28 338 28 304 6.5 c 128,-1,7
 270 -15 270 -15 230 -15 c 0,8,9
 85 -15 85 -15 85 125 c 2,10,-1
 85 525 l 2,11,12
 85 592 85 592 126 628.5 c 128,-1,13
 167 665 167 665 249 665 c 128,-1,14
 331 665 331 665 373 628.5 c 128,-1,15
 415 592 415 592 415 525 c 2,16,-1
 415 470 l 1,17,-1
 345 470 l 1,18,-1
 345 525 l 2,19,20
 345 605 345 605 250 605 c 128,-1,21
 155 605 155 605 155 525 c 2,22,-1
 155 125 l 2,23,24
 155 87 155 87 171 66 c 128,-1,25
 187 45 187 45 229.5 45 c 128,-1,26
 272 45 272 45 308.5 79 c 128,-1,27
 345 113 345 113 345 145 c 2,28,-1
 345 270 l 1,29,-1
 233 270 l 1,0,-1
207 816 m 1,30,-1
 207 796 l 2,31,32
 207 765 207 765 250 765 c 128,-1,33
 293 765 293 765 293 796 c 2,34,-1
 293 816 l 1,35,-1
 348 816 l 1,36,-1
 348 790 l 2,37,38
 348 715 348 715 250 715 c 128,-1,39
 152 715 152 715 152 790 c 2,40,-1
 152 816 l 1,41,-1
 207 816 l 1,30,-1
EndSplineSet
EndChar

StartChar: gbreve
Encoding: 287 287 224
Width: 500
GlyphClass: 2
Flags: W
LayerCount: 2
Fore
SplineSet
233 270 m 1,0,-1
 233 330 l 1,1,-1
 415 330 l 1,2,-1
 415 125 l 2,3,4
 415 58 415 58 374 21.5 c 128,-1,5
 333 -15 333 -15 251 -15 c 128,-1,6
 169 -15 169 -15 127 21.5 c 128,-1,7
 85 58 85 58 85 125 c 2,8,-1
 85 525 l 2,9,10
 85 592 85 592 126 628.5 c 128,-1,11
 167 665 167 665 249 665 c 128,-1,12
 331 665 331 665 373 628.5 c 128,-1,13
 415 592 415 592 415 525 c 2,14,-1
 415 470 l 1,15,-1
 345 470 l 1,16,-1
 345 525 l 2,17,18
 345 605 345 605 250 605 c 128,-1,19
 155 605 155 605 155 525 c 2,20,-1
 155 125 l 2,21,22
 155 45 155 45 250 45 c 128,-1,23
 345 45 345 45 345 125 c 2,24,-1
 345 270 l 1,25,-1
 233 270 l 1,0,-1
207 816 m 1,26,-1
 207 796 l 2,27,28
 207 765 207 765 250 765 c 128,-1,29
 293 765 293 765 293 796 c 2,30,-1
 293 816 l 1,31,-1
 348 816 l 1,32,-1
 348 790 l 2,33,34
 348 715 348 715 250 715 c 128,-1,35
 152 715 152 715 152 790 c 2,36,-1
 152 816 l 1,37,-1
 207 816 l 1,26,-1
EndSplineSet
EndChar

StartChar: Gdotaccent
Encoding: 288 288 225
Width: 500
GlyphClass: 2
Flags: W
LayerCount: 2
Fore
SplineSet
233 270 m 1,0,-1
 233 330 l 1,1,-1
 415 330 l 1,2,-1
 415 0 l 1,3,-1
 385 0 l 1,4,-1
 359 64 l 1,5,6
 338 28 338 28 304 6.5 c 128,-1,7
 270 -15 270 -15 230 -15 c 0,8,9
 85 -15 85 -15 85 125 c 2,10,-1
 85 525 l 2,11,12
 85 592 85 592 126 628.5 c 128,-1,13
 167 665 167 665 249 665 c 128,-1,14
 331 665 331 665 373 628.5 c 128,-1,15
 415 592 415 592 415 525 c 2,16,-1
 415 470 l 1,17,-1
 345 470 l 1,18,-1
 345 525 l 2,19,20
 345 605 345 605 250 605 c 128,-1,21
 155 605 155 605 155 525 c 2,22,-1
 155 125 l 2,23,24
 155 87 155 87 171 66 c 128,-1,25
 187 45 187 45 229.5 45 c 128,-1,26
 272 45 272 45 308.5 79 c 128,-1,27
 345 113 345 113 345 145 c 2,28,-1
 345 270 l 1,29,-1
 233 270 l 1,0,-1
290 715 m 1,30,-1
 210 715 l 1,31,-1
 210 825 l 1,32,-1
 290 825 l 1,33,-1
 290 715 l 1,30,-1
EndSplineSet
EndChar

StartChar: gdotaccent
Encoding: 289 289 226
Width: 500
GlyphClass: 2
Flags: W
LayerCount: 2
Fore
SplineSet
233 270 m 1,0,-1
 233 330 l 1,1,-1
 415 330 l 1,2,-1
 415 125 l 2,3,4
 415 58 415 58 374 21.5 c 128,-1,5
 333 -15 333 -15 251 -15 c 128,-1,6
 169 -15 169 -15 127 21.5 c 128,-1,7
 85 58 85 58 85 125 c 2,8,-1
 85 525 l 2,9,10
 85 592 85 592 126 628.5 c 128,-1,11
 167 665 167 665 249 665 c 128,-1,12
 331 665 331 665 373 628.5 c 128,-1,13
 415 592 415 592 415 525 c 2,14,-1
 415 470 l 1,15,-1
 345 470 l 1,16,-1
 345 525 l 2,17,18
 345 605 345 605 250 605 c 128,-1,19
 155 605 155 605 155 525 c 2,20,-1
 155 125 l 2,21,22
 155 45 155 45 250 45 c 128,-1,23
 345 45 345 45 345 125 c 2,24,-1
 345 270 l 1,25,-1
 233 270 l 1,0,-1
290 715 m 1,26,-1
 210 715 l 1,27,-1
 210 825 l 1,28,-1
 290 825 l 1,29,-1
 290 715 l 1,26,-1
EndSplineSet
EndChar

StartChar: uni0122
Encoding: 290 290 227
Width: 500
GlyphClass: 2
Flags: W
LayerCount: 2
Fore
SplineSet
233 270 m 1,0,-1
 233 330 l 1,1,-1
 415 330 l 1,2,-1
 415 0 l 1,3,-1
 385 0 l 1,4,-1
 359 64 l 1,5,6
 338 28 338 28 304 6.5 c 128,-1,7
 270 -15 270 -15 230 -15 c 0,8,9
 85 -15 85 -15 85 125 c 2,10,-1
 85 525 l 2,11,12
 85 592 85 592 126 628.5 c 128,-1,13
 167 665 167 665 249 665 c 128,-1,14
 331 665 331 665 373 628.5 c 128,-1,15
 415 592 415 592 415 525 c 2,16,-1
 415 470 l 1,17,-1
 345 470 l 1,18,-1
 345 525 l 2,19,20
 345 605 345 605 250 605 c 128,-1,21
 155 605 155 605 155 525 c 2,22,-1
 155 125 l 2,23,24
 155 87 155 87 171 66 c 128,-1,25
 187 45 187 45 229.5 45 c 128,-1,26
 272 45 272 45 308.5 79 c 128,-1,27
 345 113 345 113 345 145 c 2,28,-1
 345 270 l 1,29,-1
 233 270 l 1,0,-1
220 -55 m 1,30,-1
 300 -55 l 1,31,-1
 300 -140 l 1,32,-1
 256 -256 l 1,33,-1
 224 -250 l 1,34,-1
 244 -155 l 1,35,-1
 220 -146 l 1,36,-1
 220 -55 l 1,30,-1
EndSplineSet
EndChar

StartChar: uni0123
Encoding: 291 291 228
Width: 500
GlyphClass: 2
Flags: W
LayerCount: 2
Fore
SplineSet
233 270 m 1,0,-1
 233 330 l 1,1,-1
 415 330 l 1,2,-1
 415 125 l 2,3,4
 415 58 415 58 374 21.5 c 128,-1,5
 333 -15 333 -15 251 -15 c 128,-1,6
 169 -15 169 -15 127 21.5 c 128,-1,7
 85 58 85 58 85 125 c 2,8,-1
 85 525 l 2,9,10
 85 592 85 592 126 628.5 c 128,-1,11
 167 665 167 665 249 665 c 128,-1,12
 331 665 331 665 373 628.5 c 128,-1,13
 415 592 415 592 415 525 c 2,14,-1
 415 470 l 1,15,-1
 345 470 l 1,16,-1
 345 525 l 2,17,18
 345 605 345 605 250 605 c 128,-1,19
 155 605 155 605 155 525 c 2,20,-1
 155 125 l 2,21,22
 155 45 155 45 250 45 c 128,-1,23
 345 45 345 45 345 125 c 2,24,-1
 345 270 l 1,25,-1
 233 270 l 1,0,-1
300 715 m 1,26,-1
 220 715 l 1,27,-1
 220 800 l 1,28,-1
 264 916 l 1,29,-1
 296 910 l 1,30,-1
 276 815 l 1,31,-1
 300 806 l 1,32,-1
 300 715 l 1,26,-1
EndSplineSet
EndChar

StartChar: Hcircumflex
Encoding: 292 292 229
Width: 537
GlyphClass: 2
Flags: W
LayerCount: 2
Fore
SplineSet
170 0 m 1,0,-1
 100 0 l 1,1,-1
 100 650 l 1,2,-1
 170 650 l 1,3,-1
 170 360 l 1,4,-1
 367 360 l 1,5,-1
 367 650 l 1,6,-1
 437 650 l 1,7,-1
 437 0 l 1,8,-1
 367 0 l 1,9,-1
 367 300 l 1,10,-1
 170 300 l 1,11,-1
 170 0 l 1,0,-1
268 760 m 1,12,-1
 180 698 l 1,13,-1
 154 724 l 1,14,-1
 252 837 l 1,15,-1
 284 837 l 1,16,-1
 382 724 l 1,17,-1
 356 698 l 1,18,-1
 268 760 l 1,12,-1
EndSplineSet
EndChar

StartChar: hcircumflex
Encoding: 293 293 230
Width: 537
GlyphClass: 2
Flags: W
LayerCount: 2
Fore
SplineSet
170 0 m 1,0,-1
 100 0 l 1,1,-1
 100 650 l 1,2,-1
 170 650 l 1,3,-1
 170 360 l 1,4,-1
 367 360 l 1,5,-1
 367 650 l 1,6,-1
 437 650 l 1,7,-1
 437 0 l 1,8,-1
 367 0 l 1,9,-1
 367 300 l 1,10,-1
 170 300 l 1,11,-1
 170 0 l 1,0,-1
268 760 m 1,12,-1
 180 698 l 1,13,-1
 154 724 l 1,14,-1
 252 837 l 1,15,-1
 284 837 l 1,16,-1
 382 724 l 1,17,-1
 356 698 l 1,18,-1
 268 760 l 1,12,-1
EndSplineSet
EndChar

StartChar: Hbar
Encoding: 294 294 231
Width: 537
GlyphClass: 2
Flags: W
LayerCount: 2
Fore
SplineSet
47 505 m 1,0,-1
 47 555 l 1,1,-1
 100 555 l 1,2,-1
 100 650 l 1,3,-1
 170 650 l 1,4,-1
 170 555 l 1,5,-1
 367 555 l 1,6,-1
 367 650 l 1,7,-1
 437 650 l 1,8,-1
 437 555 l 1,9,-1
 489 555 l 1,10,-1
 489 505 l 1,11,-1
 437 505 l 1,12,-1
 437 0 l 1,13,-1
 367 0 l 1,14,-1
 367 300 l 1,15,-1
 170 300 l 1,16,-1
 170 0 l 1,17,-1
 100 0 l 1,18,-1
 100 505 l 1,19,-1
 47 505 l 1,0,-1
170 360 m 1,20,-1
 367 360 l 1,21,-1
 367 505 l 1,22,-1
 170 505 l 1,23,-1
 170 360 l 1,20,-1
EndSplineSet
EndChar

StartChar: hbar
Encoding: 295 295 232
Width: 537
GlyphClass: 2
Flags: W
LayerCount: 2
Fore
SplineSet
47 505 m 1,0,-1
 47 555 l 1,1,-1
 100 555 l 1,2,-1
 100 650 l 1,3,-1
 170 650 l 1,4,-1
 170 555 l 1,5,-1
 367 555 l 1,6,-1
 367 650 l 1,7,-1
 437 650 l 1,8,-1
 437 555 l 1,9,-1
 489 555 l 1,10,-1
 489 505 l 1,11,-1
 437 505 l 1,12,-1
 437 0 l 1,13,-1
 367 0 l 1,14,-1
 367 300 l 1,15,-1
 170 300 l 1,16,-1
 170 0 l 1,17,-1
 100 0 l 1,18,-1
 100 505 l 1,19,-1
 47 505 l 1,0,-1
170 360 m 1,20,-1
 367 360 l 1,21,-1
 367 505 l 1,22,-1
 170 505 l 1,23,-1
 170 360 l 1,20,-1
EndSplineSet
EndChar

StartChar: Itilde
Encoding: 296 296 233
Width: 310
GlyphClass: 2
Flags: W
LayerCount: 2
Fore
SplineSet
240 60 m 1,0,-1
 240 0 l 1,1,-1
 70 0 l 1,2,-1
 70 60 l 1,3,-1
 120 60 l 1,4,-1
 120 590 l 1,5,-1
 70 590 l 1,6,-1
 70 650 l 1,7,-1
 240 650 l 1,8,-1
 240 590 l 1,9,-1
 190 590 l 1,10,-1
 190 60 l 1,11,-1
 240 60 l 1,0,-1
198 759 m 0,12,13
 183 759 183 759 155 740 c 128,-1,14
 127 721 127 721 101.5 721 c 128,-1,15
 76 721 76 721 58 741 c 128,-1,16
 40 761 40 761 37 795 c 1,17,-1
 78 809 l 1,18,19
 88 781 88 781 112 781 c 0,20,21
 127 781 127 781 155 800 c 128,-1,22
 183 819 183 819 208.5 819 c 128,-1,23
 234 819 234 819 252 799 c 128,-1,24
 270 779 270 779 273 745 c 1,25,-1
 232 731 l 1,26,27
 222 759 222 759 198 759 c 0,12,13
EndSplineSet
EndChar

StartChar: itilde
Encoding: 297 297 234
Width: 270
GlyphClass: 2
Flags: W
LayerCount: 2
Fore
SplineSet
170 0 m 1,0,-1
 100 0 l 1,1,-1
 100 650 l 1,2,-1
 170 650 l 1,3,-1
 170 0 l 1,0,-1
178 759 m 0,4,5
 163 759 163 759 135 740 c 128,-1,6
 107 721 107 721 81.5 721 c 128,-1,7
 56 721 56 721 38 741 c 128,-1,8
 20 761 20 761 17 795 c 1,9,-1
 58 809 l 1,10,11
 68 781 68 781 92 781 c 0,12,13
 107 781 107 781 135 800 c 128,-1,14
 163 819 163 819 188.5 819 c 128,-1,15
 214 819 214 819 232 799 c 128,-1,16
 250 779 250 779 253 745 c 1,17,-1
 212 731 l 1,18,19
 202 759 202 759 178 759 c 0,4,5
EndSplineSet
EndChar

StartChar: Imacron
Encoding: 298 298 235
Width: 310
GlyphClass: 2
Flags: W
LayerCount: 2
Fore
SplineSet
240 60 m 1,0,-1
 240 0 l 1,1,-1
 70 0 l 1,2,-1
 70 60 l 1,3,-1
 120 60 l 1,4,-1
 120 590 l 1,5,-1
 70 590 l 1,6,-1
 70 650 l 1,7,-1
 240 650 l 1,8,-1
 240 590 l 1,9,-1
 190 590 l 1,10,-1
 190 60 l 1,11,-1
 240 60 l 1,0,-1
47 740 m 1,12,-1
 47 800 l 1,13,-1
 263 800 l 1,14,-1
 263 740 l 1,15,-1
 47 740 l 1,12,-1
EndSplineSet
EndChar

StartChar: imacron
Encoding: 299 299 236
Width: 270
GlyphClass: 2
Flags: W
LayerCount: 2
Fore
SplineSet
170 0 m 1,0,-1
 100 0 l 1,1,-1
 100 650 l 1,2,-1
 170 650 l 1,3,-1
 170 0 l 1,0,-1
27 740 m 1,4,-1
 27 800 l 1,5,-1
 243 800 l 1,6,-1
 243 740 l 1,7,-1
 27 740 l 1,4,-1
EndSplineSet
EndChar

StartChar: Ibreve
Encoding: 300 300 237
Width: 310
GlyphClass: 2
Flags: W
LayerCount: 2
Fore
SplineSet
240 60 m 1,0,-1
 240 0 l 1,1,-1
 70 0 l 1,2,-1
 70 60 l 1,3,-1
 120 60 l 1,4,-1
 120 590 l 1,5,-1
 70 590 l 1,6,-1
 70 650 l 1,7,-1
 240 650 l 1,8,-1
 240 590 l 1,9,-1
 190 590 l 1,10,-1
 190 60 l 1,11,-1
 240 60 l 1,0,-1
112 816 m 1,12,-1
 112 796 l 2,13,14
 112 765 112 765 155 765 c 128,-1,15
 198 765 198 765 198 796 c 2,16,-1
 198 816 l 1,17,-1
 253 816 l 1,18,-1
 253 790 l 2,19,20
 253 715 253 715 155 715 c 128,-1,21
 57 715 57 715 57 790 c 2,22,-1
 57 816 l 1,23,-1
 112 816 l 1,12,-1
EndSplineSet
EndChar

StartChar: ibreve
Encoding: 301 301 238
Width: 270
GlyphClass: 2
Flags: W
LayerCount: 2
Fore
SplineSet
170 0 m 1,0,-1
 100 0 l 1,1,-1
 100 650 l 1,2,-1
 170 650 l 1,3,-1
 170 0 l 1,0,-1
92 816 m 1,4,-1
 92 796 l 2,5,6
 92 765 92 765 135 765 c 128,-1,7
 178 765 178 765 178 796 c 2,8,-1
 178 816 l 1,9,-1
 233 816 l 1,10,-1
 233 790 l 2,11,12
 233 715 233 715 135 715 c 128,-1,13
 37 715 37 715 37 790 c 2,14,-1
 37 816 l 1,15,-1
 92 816 l 1,4,-1
EndSplineSet
EndChar

StartChar: Iogonek
Encoding: 302 302 239
Width: 310
GlyphClass: 2
Flags: W
LayerCount: 2
Fore
SplineSet
70 0 m 1,0,-1
 70 60 l 1,1,-1
 120 60 l 1,2,-1
 120 590 l 1,3,-1
 70 590 l 1,4,-1
 70 650 l 1,5,-1
 240 650 l 1,6,-1
 240 590 l 1,7,-1
 190 590 l 1,8,-1
 190 60 l 1,9,-1
 240 60 l 1,10,-1
 240 0 l 1,11,-1
 177 -51 l 2,12,13
 128 -91 128 -91 128 -124 c 2,14,-1
 128 -166 l 2,15,16
 128 -197 128 -197 169.5 -197 c 128,-1,17
 211 -197 211 -197 211 -166 c 2,18,-1
 211 -136 l 1,19,-1
 259 -136 l 1,20,-1
 259 -164 l 2,21,22
 259 -240 259 -240 169.5 -240 c 128,-1,23
 80 -240 80 -240 80 -164 c 2,24,-1
 80 -124 l 2,25,26
 80 -79 80 -79 121 -41 c 1,27,-1
 170 0 l 1,28,-1
 70 0 l 1,0,-1
EndSplineSet
EndChar

StartChar: iogonek
Encoding: 303 303 240
Width: 270
GlyphClass: 2
Flags: W
LayerCount: 2
Fore
SplineSet
170 0 m 1,0,-1
 100 0 l 1,1,-1
 100 650 l 1,2,-1
 170 650 l 1,3,-1
 170 0 l 1,0,-1
58 -124 m 2,4,-1
 58 -166 l 2,5,6
 58 -197 58 -197 99.5 -197 c 128,-1,7
 141 -197 141 -197 141 -166 c 2,8,-1
 141 -136 l 1,9,-1
 189 -136 l 1,10,-1
 189 -164 l 2,11,12
 189 -240 189 -240 99.5 -240 c 128,-1,13
 10 -240 10 -240 10 -164 c 2,14,-1
 10 -124 l 2,15,16
 10 -79 10 -79 51 -41 c 1,17,-1
 100 0 l 1,18,-1
 170 0 l 1,19,-1
 107 -51 l 2,20,21
 58 -91 58 -91 58 -124 c 2,4,-1
EndSplineSet
EndChar

StartChar: Idotaccent
Encoding: 304 304 241
Width: 310
GlyphClass: 2
Flags: W
LayerCount: 2
Fore
SplineSet
240 60 m 1,0,-1
 240 0 l 1,1,-1
 70 0 l 1,2,-1
 70 60 l 1,3,-1
 120 60 l 1,4,-1
 120 590 l 1,5,-1
 70 590 l 1,6,-1
 70 650 l 1,7,-1
 240 650 l 1,8,-1
 240 590 l 1,9,-1
 190 590 l 1,10,-1
 190 60 l 1,11,-1
 240 60 l 1,0,-1
195 715 m 1,12,-1
 115 715 l 1,13,-1
 115 825 l 1,14,-1
 195 825 l 1,15,-1
 195 715 l 1,12,-1
EndSplineSet
EndChar

StartChar: dotlessi
Encoding: 305 305 242
Width: 270
GlyphClass: 2
Flags: W
LayerCount: 2
Fore
SplineSet
170 0 m 1,0,-1
 100 0 l 1,1,-1
 100 650 l 1,2,-1
 170 650 l 1,3,-1
 170 0 l 1,0,-1
EndSplineSet
EndChar

StartChar: IJ
Encoding: 306 306 243
Width: 690
GlyphClass: 2
Flags: W
LayerCount: 2
Fore
SplineSet
240 60 m 1,0,-1
 240 0 l 1,1,-1
 70 0 l 1,2,-1
 70 60 l 1,3,-1
 120 60 l 1,4,-1
 120 590 l 1,5,-1
 70 590 l 1,6,-1
 70 650 l 1,7,-1
 240 650 l 1,8,-1
 240 590 l 1,9,-1
 190 590 l 1,10,-1
 190 60 l 1,11,-1
 240 60 l 1,0,-1
400 650 m 1,12,-1
 600 650 l 1,13,-1
 600 115 l 2,14,15
 600 51 600 51 564 18 c 128,-1,16
 528 -15 528 -15 464 -15 c 128,-1,17
 400 -15 400 -15 365 18 c 128,-1,18
 330 51 330 51 330 115 c 2,19,-1
 330 180 l 1,20,-1
 400 180 l 1,21,-1
 400 111 l 2,22,23
 400 45 400 45 464 45 c 0,24,25
 530 45 530 45 530 111 c 2,26,-1
 530 590 l 1,27,-1
 400 590 l 1,28,-1
 400 650 l 1,12,-1
EndSplineSet
EndChar

StartChar: ij
Encoding: 307 307 244
Width: 650
GlyphClass: 2
Flags: W
LayerCount: 2
Fore
SplineSet
170 0 m 1,0,-1
 100 0 l 1,1,-1
 100 650 l 1,2,-1
 170 650 l 1,3,-1
 170 0 l 1,0,-1
490 650 m 1,4,-1
 560 650 l 1,5,-1
 560 115 l 2,6,7
 560 51 560 51 524 18 c 128,-1,8
 488 -15 488 -15 424 -15 c 128,-1,9
 360 -15 360 -15 325 18 c 128,-1,10
 290 51 290 51 290 115 c 2,11,-1
 290 180 l 1,12,-1
 360 180 l 1,13,-1
 360 111 l 2,14,15
 360 45 360 45 424 45 c 0,16,17
 490 45 490 45 490 111 c 2,18,-1
 490 650 l 1,4,-1
EndSplineSet
EndChar

StartChar: Jcircumflex
Encoding: 308 308 245
Width: 380
GlyphClass: 2
Flags: W
LayerCount: 2
Fore
SplineSet
90 650 m 1,0,-1
 290 650 l 1,1,-1
 290 115 l 2,2,3
 290 51 290 51 254 18 c 128,-1,4
 218 -15 218 -15 154 -15 c 128,-1,5
 90 -15 90 -15 55 18 c 128,-1,6
 20 51 20 51 20 115 c 2,7,-1
 20 180 l 1,8,-1
 90 180 l 1,9,-1
 90 111 l 2,10,11
 90 45 90 45 154 45 c 0,12,13
 220 45 220 45 220 111 c 2,14,-1
 220 590 l 1,15,-1
 90 590 l 1,16,-1
 90 650 l 1,0,-1
256 760 m 1,17,-1
 168 698 l 1,18,-1
 142 724 l 1,19,-1
 240 837 l 1,20,-1
 272 837 l 1,21,-1
 370 724 l 1,22,-1
 344 698 l 1,23,-1
 256 760 l 1,17,-1
EndSplineSet
EndChar

StartChar: jcircumflex
Encoding: 309 309 246
Width: 380
GlyphClass: 2
Flags: W
LayerCount: 2
Fore
SplineSet
220 650 m 1,0,-1
 290 650 l 1,1,-1
 290 115 l 2,2,3
 290 51 290 51 254 18 c 128,-1,4
 218 -15 218 -15 154 -15 c 128,-1,5
 90 -15 90 -15 55 18 c 128,-1,6
 20 51 20 51 20 115 c 2,7,-1
 20 180 l 1,8,-1
 90 180 l 1,9,-1
 90 111 l 2,10,11
 90 45 90 45 154 45 c 0,12,13
 220 45 220 45 220 111 c 2,14,-1
 220 650 l 1,0,-1
255 760 m 1,15,-1
 167 698 l 1,16,-1
 141 724 l 1,17,-1
 239 837 l 1,18,-1
 271 837 l 1,19,-1
 369 724 l 1,20,-1
 343 698 l 1,21,-1
 255 760 l 1,15,-1
EndSplineSet
EndChar

StartChar: uni0136
Encoding: 310 310 247
Width: 455
GlyphClass: 2
Flags: W
LayerCount: 2
Fore
SplineSet
171 0 m 1,0,-1
 101 0 l 1,1,-1
 101 650 l 1,2,-1
 171 650 l 1,3,-1
 171 374 l 1,4,-1
 345 650 l 1,5,-1
 423 650 l 1,6,-1
 246 370 l 1,7,-1
 435 0 l 1,8,-1
 358 0 l 1,9,-1
 204 303 l 1,10,-1
 171 250 l 1,11,-1
 171 0 l 1,0,-1
187 -55 m 1,12,-1
 267 -55 l 1,13,-1
 267 -140 l 1,14,-1
 223 -256 l 1,15,-1
 191 -250 l 1,16,-1
 211 -155 l 1,17,-1
 187 -146 l 1,18,-1
 187 -55 l 1,12,-1
EndSplineSet
EndChar

StartChar: uni0137
Encoding: 311 311 248
Width: 455
GlyphClass: 2
Flags: W
LayerCount: 2
Fore
SplineSet
171 0 m 1,0,-1
 101 0 l 1,1,-1
 101 650 l 1,2,-1
 171 650 l 1,3,-1
 171 374 l 1,4,-1
 345 650 l 1,5,-1
 423 650 l 1,6,-1
 246 370 l 1,7,-1
 435 0 l 1,8,-1
 358 0 l 1,9,-1
 204 303 l 1,10,-1
 171 250 l 1,11,-1
 171 0 l 1,0,-1
187 -55 m 1,12,-1
 267 -55 l 1,13,-1
 267 -140 l 1,14,-1
 223 -256 l 1,15,-1
 191 -250 l 1,16,-1
 211 -155 l 1,17,-1
 187 -146 l 1,18,-1
 187 -55 l 1,12,-1
EndSplineSet
EndChar

StartChar: kgreenlandic
Encoding: 312 312 249
Width: 455
GlyphClass: 2
Flags: W
LayerCount: 2
Fore
SplineSet
171 0 m 1,0,-1
 101 0 l 1,1,-1
 101 650 l 1,2,-1
 171 650 l 1,3,-1
 171 374 l 1,4,-1
 345 650 l 1,5,-1
 423 650 l 1,6,-1
 246 370 l 1,7,-1
 435 0 l 1,8,-1
 358 0 l 1,9,-1
 204 303 l 1,10,-1
 171 250 l 1,11,-1
 171 0 l 1,0,-1
EndSplineSet
EndChar

StartChar: Lacute
Encoding: 313 313 250
Width: 373
GlyphClass: 2
Flags: W
LayerCount: 2
Fore
SplineSet
100 0 m 1,0,-1
 100 650 l 1,1,-1
 170 650 l 1,2,-1
 170 60 l 1,3,-1
 353 60 l 1,4,-1
 353 0 l 1,5,-1
 100 0 l 1,0,-1
229 793 m 1,6,-1
 191 755 l 1,7,-1
 78 698 l 1,8,-1
 52 724 l 1,9,-1
 175 847 l 1,10,-1
 229 793 l 1,6,-1
EndSplineSet
EndChar

StartChar: lacute
Encoding: 314 314 251
Width: 373
GlyphClass: 2
Flags: W
LayerCount: 2
Fore
SplineSet
100 0 m 1,0,-1
 100 650 l 1,1,-1
 170 650 l 1,2,-1
 170 60 l 1,3,-1
 353 60 l 1,4,-1
 353 0 l 1,5,-1
 100 0 l 1,0,-1
229 793 m 1,6,-1
 191 755 l 1,7,-1
 78 698 l 1,8,-1
 52 724 l 1,9,-1
 175 847 l 1,10,-1
 229 793 l 1,6,-1
EndSplineSet
EndChar

StartChar: uni013B
Encoding: 315 315 252
Width: 373
GlyphClass: 2
Flags: W
LayerCount: 2
Fore
SplineSet
100 0 m 1,0,-1
 100 650 l 1,1,-1
 170 650 l 1,2,-1
 170 60 l 1,3,-1
 353 60 l 1,4,-1
 353 0 l 1,5,-1
 100 0 l 1,0,-1
190 -55 m 1,6,-1
 270 -55 l 1,7,-1
 270 -140 l 1,8,-1
 226 -256 l 1,9,-1
 194 -250 l 1,10,-1
 214 -155 l 1,11,-1
 190 -146 l 1,12,-1
 190 -55 l 1,6,-1
EndSplineSet
EndChar

StartChar: uni013C
Encoding: 316 316 253
Width: 373
GlyphClass: 2
Flags: W
LayerCount: 2
Fore
SplineSet
100 0 m 1,0,-1
 100 650 l 1,1,-1
 170 650 l 1,2,-1
 170 60 l 1,3,-1
 353 60 l 1,4,-1
 353 0 l 1,5,-1
 100 0 l 1,0,-1
190 -55 m 1,6,-1
 270 -55 l 1,7,-1
 270 -140 l 1,8,-1
 226 -256 l 1,9,-1
 194 -250 l 1,10,-1
 214 -155 l 1,11,-1
 190 -146 l 1,12,-1
 190 -55 l 1,6,-1
EndSplineSet
EndChar

StartChar: Lcaron
Encoding: 317 317 254
Width: 373
GlyphClass: 2
Flags: W
LayerCount: 2
Fore
SplineSet
100 0 m 1,0,-1
 100 650 l 1,1,-1
 170 650 l 1,2,-1
 170 60 l 1,3,-1
 353 60 l 1,4,-1
 353 0 l 1,5,-1
 100 0 l 1,0,-1
293 715 m 1,6,-1
 373 715 l 1,7,-1
 373 630 l 1,8,-1
 329 514 l 1,9,-1
 297 520 l 1,10,-1
 317 615 l 1,11,-1
 293 624 l 1,12,-1
 293 715 l 1,6,-1
EndSplineSet
EndChar

StartChar: lcaron
Encoding: 318 318 255
Width: 373
GlyphClass: 2
Flags: W
LayerCount: 2
Fore
SplineSet
100 0 m 1,0,-1
 100 650 l 1,1,-1
 170 650 l 1,2,-1
 170 60 l 1,3,-1
 353 60 l 1,4,-1
 353 0 l 1,5,-1
 100 0 l 1,0,-1
293 715 m 1,6,-1
 373 715 l 1,7,-1
 373 630 l 1,8,-1
 329 514 l 1,9,-1
 297 520 l 1,10,-1
 317 615 l 1,11,-1
 293 624 l 1,12,-1
 293 715 l 1,6,-1
EndSplineSet
EndChar

StartChar: Ldot
Encoding: 319 319 256
Width: 373
GlyphClass: 2
Flags: W
LayerCount: 2
Fore
SplineSet
100 0 m 1,0,-1
 100 650 l 1,1,-1
 170 650 l 1,2,-1
 170 60 l 1,3,-1
 353 60 l 1,4,-1
 353 0 l 1,5,-1
 100 0 l 1,0,-1
343 270 m 1,6,-1
 253 270 l 1,7,-1
 253 380 l 1,8,-1
 343 380 l 1,9,-1
 343 270 l 1,6,-1
EndSplineSet
EndChar

StartChar: ldot
Encoding: 320 320 257
Width: 373
GlyphClass: 2
Flags: W
LayerCount: 2
Fore
SplineSet
100 0 m 1,0,-1
 100 650 l 1,1,-1
 170 650 l 1,2,-1
 170 60 l 1,3,-1
 353 60 l 1,4,-1
 353 0 l 1,5,-1
 100 0 l 1,0,-1
343 270 m 1,6,-1
 253 270 l 1,7,-1
 253 380 l 1,8,-1
 343 380 l 1,9,-1
 343 270 l 1,6,-1
EndSplineSet
EndChar

StartChar: Lslash
Encoding: 321 321 258
Width: 373
GlyphClass: 2
Flags: W
LayerCount: 2
Fore
SplineSet
100 650 m 1,0,-1
 170 650 l 1,1,-1
 170 375 l 1,2,-1
 250 416 l 1,3,-1
 273 371 l 1,4,-1
 170 318 l 1,5,-1
 170 60 l 1,6,-1
 353 60 l 1,7,-1
 353 0 l 1,8,-1
 100 0 l 1,9,-1
 100 283 l 1,10,-1
 24 244 l 1,11,-1
 1 289 l 1,12,-1
 100 339 l 1,13,-1
 100 650 l 1,0,-1
EndSplineSet
EndChar

StartChar: lslash
Encoding: 322 322 259
Width: 373
GlyphClass: 2
Flags: W
LayerCount: 2
Fore
SplineSet
100 650 m 1,0,-1
 170 650 l 1,1,-1
 170 375 l 1,2,-1
 250 416 l 1,3,-1
 273 371 l 1,4,-1
 170 318 l 1,5,-1
 170 60 l 1,6,-1
 353 60 l 1,7,-1
 353 0 l 1,8,-1
 100 0 l 1,9,-1
 100 283 l 1,10,-1
 24 244 l 1,11,-1
 1 289 l 1,12,-1
 100 339 l 1,13,-1
 100 650 l 1,0,-1
EndSplineSet
EndChar

StartChar: Nacute
Encoding: 323 323 260
Width: 557
GlyphClass: 2
Flags: W
LayerCount: 2
Fore
SplineSet
170 0 m 1,0,-1
 100 0 l 1,1,-1
 100 650 l 1,2,-1
 170 650 l 1,3,-1
 387 150 l 1,4,-1
 387 650 l 1,5,-1
 457 650 l 1,6,-1
 457 0 l 1,7,-1
 387 0 l 1,8,-1
 170 500 l 1,9,-1
 170 0 l 1,0,-1
367 793 m 1,10,-1
 329 755 l 1,11,-1
 216 698 l 1,12,-1
 190 724 l 1,13,-1
 313 847 l 1,14,-1
 367 793 l 1,10,-1
EndSplineSet
EndChar

StartChar: nacute
Encoding: 324 324 261
Width: 525
GlyphClass: 2
Flags: W
LayerCount: 2
Fore
SplineSet
170 0 m 1,0,-1
 100 0 l 1,1,-1
 100 650 l 1,2,-1
 130 650 l 1,3,-1
 155 585 l 1,4,5
 203 665 203 665 288 665 c 0,6,7
 435 665 435 665 435 525 c 2,8,-1
 435 0 l 1,9,-1
 365 0 l 1,10,-1
 365 525 l 2,11,12
 365 563 365 563 348.5 584 c 128,-1,13
 332 605 332 605 288 605 c 128,-1,14
 244 605 244 605 207 571 c 128,-1,15
 170 537 170 537 170 505 c 2,16,-1
 170 0 l 1,0,-1
351 793 m 1,17,-1
 313 755 l 1,18,-1
 200 698 l 1,19,-1
 174 724 l 1,20,-1
 297 847 l 1,21,-1
 351 793 l 1,17,-1
EndSplineSet
EndChar

StartChar: uni0145
Encoding: 325 325 262
Width: 557
GlyphClass: 2
Flags: W
LayerCount: 2
Fore
SplineSet
170 0 m 1,0,-1
 100 0 l 1,1,-1
 100 650 l 1,2,-1
 170 650 l 1,3,-1
 387 150 l 1,4,-1
 387 650 l 1,5,-1
 457 650 l 1,6,-1
 457 0 l 1,7,-1
 387 0 l 1,8,-1
 170 500 l 1,9,-1
 170 0 l 1,0,-1
238 -55 m 1,10,-1
 318 -55 l 1,11,-1
 318 -140 l 1,12,-1
 274 -256 l 1,13,-1
 242 -250 l 1,14,-1
 262 -155 l 1,15,-1
 238 -146 l 1,16,-1
 238 -55 l 1,10,-1
EndSplineSet
EndChar

StartChar: uni0146
Encoding: 326 326 263
Width: 525
GlyphClass: 2
Flags: W
LayerCount: 2
Fore
SplineSet
170 0 m 1,0,-1
 100 0 l 1,1,-1
 100 650 l 1,2,-1
 130 650 l 1,3,-1
 155 585 l 1,4,5
 203 665 203 665 288 665 c 0,6,7
 435 665 435 665 435 525 c 2,8,-1
 435 0 l 1,9,-1
 365 0 l 1,10,-1
 365 525 l 2,11,12
 365 563 365 563 348.5 584 c 128,-1,13
 332 605 332 605 288 605 c 128,-1,14
 244 605 244 605 207 571 c 128,-1,15
 170 537 170 537 170 505 c 2,16,-1
 170 0 l 1,0,-1
222 -55 m 1,17,-1
 302 -55 l 1,18,-1
 302 -140 l 1,19,-1
 258 -256 l 1,20,-1
 226 -250 l 1,21,-1
 246 -155 l 1,22,-1
 222 -146 l 1,23,-1
 222 -55 l 1,17,-1
EndSplineSet
EndChar

StartChar: Ncaron
Encoding: 327 327 264
Width: 557
GlyphClass: 2
Flags: W
LayerCount: 2
Fore
SplineSet
170 0 m 1,0,-1
 100 0 l 1,1,-1
 100 650 l 1,2,-1
 170 650 l 1,3,-1
 387 150 l 1,4,-1
 387 650 l 1,5,-1
 457 650 l 1,6,-1
 457 0 l 1,7,-1
 387 0 l 1,8,-1
 170 500 l 1,9,-1
 170 0 l 1,0,-1
278 778 m 1,10,-1
 366 840 l 1,11,-1
 392 814 l 1,12,-1
 294 701 l 1,13,-1
 262 701 l 1,14,-1
 164 814 l 1,15,-1
 190 840 l 1,16,-1
 278 778 l 1,10,-1
EndSplineSet
EndChar

StartChar: ncaron
Encoding: 328 328 265
Width: 525
GlyphClass: 2
Flags: W
LayerCount: 2
Fore
SplineSet
170 0 m 1,0,-1
 100 0 l 1,1,-1
 100 650 l 1,2,-1
 130 650 l 1,3,-1
 155 585 l 1,4,5
 203 665 203 665 288 665 c 0,6,7
 435 665 435 665 435 525 c 2,8,-1
 435 0 l 1,9,-1
 365 0 l 1,10,-1
 365 525 l 2,11,12
 365 563 365 563 348.5 584 c 128,-1,13
 332 605 332 605 288 605 c 128,-1,14
 244 605 244 605 207 571 c 128,-1,15
 170 537 170 537 170 505 c 2,16,-1
 170 0 l 1,0,-1
262 778 m 1,17,-1
 350 840 l 1,18,-1
 376 814 l 1,19,-1
 278 701 l 1,20,-1
 246 701 l 1,21,-1
 148 814 l 1,22,-1
 174 840 l 1,23,-1
 262 778 l 1,17,-1
EndSplineSet
EndChar

StartChar: napostrophe
Encoding: 329 329 266
Width: 525
GlyphClass: 2
Flags: W
LayerCount: 2
Fore
SplineSet
170 0 m 1,0,-1
 100 0 l 1,1,-1
 100 650 l 1,2,-1
 130 650 l 1,3,-1
 155 585 l 1,4,5
 203 665 203 665 288 665 c 0,6,7
 435 665 435 665 435 525 c 2,8,-1
 435 0 l 1,9,-1
 365 0 l 1,10,-1
 365 525 l 2,11,12
 365 563 365 563 348.5 584 c 128,-1,13
 332 605 332 605 288 605 c 128,-1,14
 244 605 244 605 207 571 c 128,-1,15
 170 537 170 537 170 505 c 2,16,-1
 170 0 l 1,0,-1
-40 716 m 1,17,-1
 40 716 l 1,18,-1
 40 631 l 1,19,-1
 -4 515 l 1,20,-1
 -36 521 l 1,21,-1
 -16 616 l 1,22,-1
 -40 625 l 1,23,-1
 -40 716 l 1,17,-1
EndSplineSet
EndChar

StartChar: Eng
Encoding: 330 330 267
Width: 557
GlyphClass: 2
Flags: W
LayerCount: 2
Fore
SplineSet
170 0 m 1,0,-1
 100 0 l 1,1,-1
 100 650 l 1,2,-1
 170 650 l 1,3,-1
 387 150 l 1,4,-1
 387 650 l 1,5,-1
 457 650 l 1,6,-1
 457 -135 l 2,7,8
 457 -199 457 -199 421 -232 c 128,-1,9
 385 -265 385 -265 321 -265 c 128,-1,10
 257 -265 257 -265 222 -232 c 128,-1,11
 187 -199 187 -199 187 -135 c 2,12,-1
 187 -110 l 1,13,-1
 257 -110 l 1,14,-1
 257 -139 l 2,15,16
 257 -205 257 -205 321 -205 c 0,17,18
 387 -205 387 -205 387 -139 c 2,19,-1
 387 0 l 1,20,-1
 170 500 l 1,21,-1
 170 0 l 1,0,-1
EndSplineSet
EndChar

StartChar: eng
Encoding: 331 331 268
Width: 525
GlyphClass: 2
Flags: W
LayerCount: 2
Fore
SplineSet
170 0 m 1,0,-1
 100 0 l 1,1,-1
 100 650 l 1,2,-1
 130 650 l 1,3,-1
 155 585 l 1,4,5
 203 665 203 665 288 665 c 0,6,7
 435 665 435 665 435 525 c 2,8,-1
 435 -135 l 2,9,10
 435 -199 435 -199 399 -232 c 128,-1,11
 363 -265 363 -265 299 -265 c 128,-1,12
 235 -265 235 -265 200 -232 c 128,-1,13
 165 -199 165 -199 165 -135 c 2,14,-1
 165 -110 l 1,15,-1
 235 -110 l 1,16,-1
 235 -139 l 2,17,18
 235 -205 235 -205 299 -205 c 0,19,20
 365 -205 365 -205 365 -139 c 2,21,-1
 365 525 l 2,22,23
 365 563 365 563 348.5 584 c 128,-1,24
 332 605 332 605 288 605 c 128,-1,25
 244 605 244 605 207 571 c 128,-1,26
 170 537 170 537 170 505 c 2,27,-1
 170 0 l 1,0,-1
EndSplineSet
EndChar

StartChar: Omacron
Encoding: 332 332 269
Width: 510
GlyphClass: 2
Flags: W
LayerCount: 2
Fore
SplineSet
425 525 m 2,0,-1
 425 125 l 2,1,2
 425 58 425 58 382.5 21.5 c 128,-1,3
 340 -15 340 -15 255.5 -15 c 128,-1,4
 171 -15 171 -15 128 21.5 c 128,-1,5
 85 58 85 58 85 125 c 2,6,-1
 85 525 l 2,7,8
 85 592 85 592 127.5 628.5 c 128,-1,9
 170 665 170 665 254.5 665 c 128,-1,10
 339 665 339 665 382 628.5 c 128,-1,11
 425 592 425 592 425 525 c 2,0,-1
355 125 m 2,12,-1
 355 525 l 2,13,14
 355 605 355 605 255 605 c 128,-1,15
 155 605 155 605 155 525 c 2,16,-1
 155 125 l 2,17,18
 155 45 155 45 255 45 c 128,-1,19
 355 45 355 45 355 125 c 2,12,-1
147 740 m 1,20,-1
 147 800 l 1,21,-1
 363 800 l 1,22,-1
 363 740 l 1,23,-1
 147 740 l 1,20,-1
EndSplineSet
EndChar

StartChar: omacron
Encoding: 333 333 270
Width: 510
GlyphClass: 2
Flags: W
LayerCount: 2
Fore
SplineSet
425 525 m 2,0,-1
 425 125 l 2,1,2
 425 58 425 58 382.5 21.5 c 128,-1,3
 340 -15 340 -15 255.5 -15 c 128,-1,4
 171 -15 171 -15 128 21.5 c 128,-1,5
 85 58 85 58 85 125 c 2,6,-1
 85 525 l 2,7,8
 85 592 85 592 127.5 628.5 c 128,-1,9
 170 665 170 665 254.5 665 c 128,-1,10
 339 665 339 665 382 628.5 c 128,-1,11
 425 592 425 592 425 525 c 2,0,-1
355 125 m 2,12,-1
 355 525 l 2,13,14
 355 605 355 605 255 605 c 128,-1,15
 155 605 155 605 155 525 c 2,16,-1
 155 125 l 2,17,18
 155 45 155 45 255 45 c 128,-1,19
 355 45 355 45 355 125 c 2,12,-1
147 740 m 1,20,-1
 147 800 l 1,21,-1
 363 800 l 1,22,-1
 363 740 l 1,23,-1
 147 740 l 1,20,-1
EndSplineSet
EndChar

StartChar: Obreve
Encoding: 334 334 271
Width: 510
GlyphClass: 2
Flags: W
LayerCount: 2
Fore
SplineSet
425 525 m 2,0,-1
 425 125 l 2,1,2
 425 58 425 58 382.5 21.5 c 128,-1,3
 340 -15 340 -15 255.5 -15 c 128,-1,4
 171 -15 171 -15 128 21.5 c 128,-1,5
 85 58 85 58 85 125 c 2,6,-1
 85 525 l 2,7,8
 85 592 85 592 127.5 628.5 c 128,-1,9
 170 665 170 665 254.5 665 c 128,-1,10
 339 665 339 665 382 628.5 c 128,-1,11
 425 592 425 592 425 525 c 2,0,-1
355 125 m 2,12,-1
 355 525 l 2,13,14
 355 605 355 605 255 605 c 128,-1,15
 155 605 155 605 155 525 c 2,16,-1
 155 125 l 2,17,18
 155 45 155 45 255 45 c 128,-1,19
 355 45 355 45 355 125 c 2,12,-1
212 816 m 1,20,-1
 212 796 l 2,21,22
 212 765 212 765 255 765 c 128,-1,23
 298 765 298 765 298 796 c 2,24,-1
 298 816 l 1,25,-1
 353 816 l 1,26,-1
 353 790 l 2,27,28
 353 715 353 715 255 715 c 128,-1,29
 157 715 157 715 157 790 c 2,30,-1
 157 816 l 1,31,-1
 212 816 l 1,20,-1
EndSplineSet
EndChar

StartChar: obreve
Encoding: 335 335 272
Width: 510
GlyphClass: 2
Flags: W
LayerCount: 2
Fore
SplineSet
425 525 m 2,0,-1
 425 125 l 2,1,2
 425 58 425 58 382.5 21.5 c 128,-1,3
 340 -15 340 -15 255.5 -15 c 128,-1,4
 171 -15 171 -15 128 21.5 c 128,-1,5
 85 58 85 58 85 125 c 2,6,-1
 85 525 l 2,7,8
 85 592 85 592 127.5 628.5 c 128,-1,9
 170 665 170 665 254.5 665 c 128,-1,10
 339 665 339 665 382 628.5 c 128,-1,11
 425 592 425 592 425 525 c 2,0,-1
355 125 m 2,12,-1
 355 525 l 2,13,14
 355 605 355 605 255 605 c 128,-1,15
 155 605 155 605 155 525 c 2,16,-1
 155 125 l 2,17,18
 155 45 155 45 255 45 c 128,-1,19
 355 45 355 45 355 125 c 2,12,-1
212 816 m 1,20,-1
 212 796 l 2,21,22
 212 765 212 765 255 765 c 128,-1,23
 298 765 298 765 298 796 c 2,24,-1
 298 816 l 1,25,-1
 353 816 l 1,26,-1
 353 790 l 2,27,28
 353 715 353 715 255 715 c 128,-1,29
 157 715 157 715 157 790 c 2,30,-1
 157 816 l 1,31,-1
 212 816 l 1,20,-1
EndSplineSet
EndChar

StartChar: Ohungarumlaut
Encoding: 336 336 273
Width: 510
GlyphClass: 2
Flags: W
LayerCount: 2
Fore
SplineSet
425 525 m 2,0,-1
 425 125 l 2,1,2
 425 58 425 58 382.5 21.5 c 128,-1,3
 340 -15 340 -15 255.5 -15 c 128,-1,4
 171 -15 171 -15 128 21.5 c 128,-1,5
 85 58 85 58 85 125 c 2,6,-1
 85 525 l 2,7,8
 85 592 85 592 127.5 628.5 c 128,-1,9
 170 665 170 665 254.5 665 c 128,-1,10
 339 665 339 665 382 628.5 c 128,-1,11
 425 592 425 592 425 525 c 2,0,-1
355 125 m 2,12,-1
 355 525 l 2,13,14
 355 605 355 605 255 605 c 128,-1,15
 155 605 155 605 155 525 c 2,16,-1
 155 125 l 2,17,18
 155 45 155 45 255 45 c 128,-1,19
 355 45 355 45 355 125 c 2,12,-1
284 793 m 1,20,-1
 246 755 l 1,21,-1
 133 698 l 1,22,-1
 107 724 l 1,23,-1
 230 847 l 1,24,-1
 284 793 l 1,20,-1
464 793 m 1,25,-1
 426 755 l 1,26,-1
 313 698 l 1,27,-1
 287 724 l 1,28,-1
 410 847 l 1,29,-1
 464 793 l 1,25,-1
EndSplineSet
EndChar

StartChar: ohungarumlaut
Encoding: 337 337 274
Width: 510
GlyphClass: 2
Flags: W
LayerCount: 2
Fore
SplineSet
425 525 m 2,0,-1
 425 125 l 2,1,2
 425 58 425 58 382.5 21.5 c 128,-1,3
 340 -15 340 -15 255.5 -15 c 128,-1,4
 171 -15 171 -15 128 21.5 c 128,-1,5
 85 58 85 58 85 125 c 2,6,-1
 85 525 l 2,7,8
 85 592 85 592 127.5 628.5 c 128,-1,9
 170 665 170 665 254.5 665 c 128,-1,10
 339 665 339 665 382 628.5 c 128,-1,11
 425 592 425 592 425 525 c 2,0,-1
355 125 m 2,12,-1
 355 525 l 2,13,14
 355 605 355 605 255 605 c 128,-1,15
 155 605 155 605 155 525 c 2,16,-1
 155 125 l 2,17,18
 155 45 155 45 255 45 c 128,-1,19
 355 45 355 45 355 125 c 2,12,-1
284 793 m 1,20,-1
 246 755 l 1,21,-1
 133 698 l 1,22,-1
 107 724 l 1,23,-1
 230 847 l 1,24,-1
 284 793 l 1,20,-1
464 793 m 1,25,-1
 426 755 l 1,26,-1
 313 698 l 1,27,-1
 287 724 l 1,28,-1
 410 847 l 1,29,-1
 464 793 l 1,25,-1
EndSplineSet
EndChar

StartChar: OE
Encoding: 338 338 275
Width: 700
GlyphClass: 2
Flags: W
LayerCount: 2
Fore
SplineSet
425 525 m 2,0,-1
 425 360 l 1,1,-1
 600 360 l 1,2,-1
 600 300 l 1,3,-1
 425 300 l 1,4,-1
 425 125 l 2,5,6
 425 88 425 88 411 60 c 1,7,-1
 650 60 l 1,8,-1
 650 0 l 1,9,-1
 346 0 l 1,10,11
 310 -15 310 -15 256 -15 c 0,12,13
 171 -15 171 -15 128 21.5 c 128,-1,14
 85 58 85 58 85 125 c 2,15,-1
 85 525 l 2,16,17
 85 592 85 592 127.5 628.5 c 128,-1,18
 170 665 170 665 254 665 c 0,19,20
 308 665 308 665 345 650 c 1,21,-1
 640 650 l 1,22,-1
 640 590 l 1,23,-1
 411 590 l 1,24,25
 425 560 425 560 425 525 c 2,0,-1
355 125 m 2,26,-1
 355 525 l 2,27,28
 355 605 355 605 255 605 c 128,-1,29
 155 605 155 605 155 525 c 2,30,-1
 155 125 l 2,31,32
 155 45 155 45 255 45 c 128,-1,33
 355 45 355 45 355 125 c 2,26,-1
EndSplineSet
EndChar

StartChar: oe
Encoding: 339 339 276
Width: 770
GlyphClass: 2
Flags: W
LayerCount: 2
Fore
SplineSet
615 125 m 2,0,-1
 615 180 l 1,1,-1
 685 180 l 1,2,-1
 685 125 l 2,3,4
 685 58 685 58 644 21.5 c 128,-1,5
 603 -15 603 -15 515.5 -15 c 128,-1,6
 428 -15 428 -15 390 37 c 1,7,8
 352 -15 352 -15 261.5 -15 c 128,-1,9
 171 -15 171 -15 128 21.5 c 128,-1,10
 85 58 85 58 85 125 c 2,11,-1
 85 525 l 2,12,13
 85 592 85 592 127.5 628.5 c 128,-1,14
 170 665 170 665 261 665 c 128,-1,15
 352 665 352 665 389 612 c 1,16,17
 425 665 425 665 513 665 c 128,-1,18
 601 665 601 665 643 628.5 c 128,-1,19
 685 592 685 592 685 525 c 2,20,-1
 685 305 l 1,21,-1
 425 305 l 1,22,-1
 425 125 l 2,23,24
 425 45 425 45 520 45 c 128,-1,25
 615 45 615 45 615 125 c 2,0,-1
355 125 m 2,26,-1
 355 525 l 2,27,28
 355 605 355 605 255 605 c 128,-1,29
 155 605 155 605 155 525 c 2,30,-1
 155 125 l 2,31,32
 155 45 155 45 255 45 c 128,-1,33
 355 45 355 45 355 125 c 2,26,-1
425 525 m 2,34,-1
 425 365 l 1,35,-1
 615 365 l 1,36,-1
 615 525 l 2,37,38
 615 605 615 605 520 605 c 128,-1,39
 425 605 425 605 425 525 c 2,34,-1
EndSplineSet
EndChar

StartChar: Racute
Encoding: 340 340 277
Width: 485
GlyphClass: 2
Flags: W
LayerCount: 2
Fore
SplineSet
170 0 m 1,0,-1
 100 0 l 1,1,-1
 100 650 l 1,2,-1
 251 650 l 2,3,4
 329 650 329 650 369.5 613 c 128,-1,5
 410 576 410 576 410 510 c 2,6,-1
 410 370 l 2,7,8
 410 268 410 268 322 240 c 1,9,-1
 445 0 l 1,10,-1
 368 0 l 1,11,-1
 251 230 l 1,12,-1
 170 230 l 1,13,-1
 170 0 l 1,0,-1
340 370 m 2,14,-1
 340 510 l 2,15,16
 340 548 340 548 317 569 c 128,-1,17
 294 590 294 590 251 590 c 2,18,-1
 170 590 l 1,19,-1
 170 290 l 1,20,-1
 251 290 l 2,21,22
 340 290 340 290 340 370 c 2,14,-1
341 793 m 1,23,-1
 303 755 l 1,24,-1
 190 698 l 1,25,-1
 164 724 l 1,26,-1
 287 847 l 1,27,-1
 341 793 l 1,23,-1
EndSplineSet
EndChar

StartChar: racute
Encoding: 341 341 278
Width: 400
GlyphClass: 2
Flags: W
LayerCount: 2
Fore
SplineSet
170 0 m 1,0,-1
 100 0 l 1,1,-1
 100 650 l 1,2,-1
 130 650 l 1,3,-1
 159 576 l 1,4,5
 191 665 191 665 261 665 c 0,6,7
 380 665 380 665 380 535 c 2,8,-1
 380 470 l 1,9,-1
 313 470 l 1,10,-1
 313 539 l 2,11,12
 313 605 313 605 258 605 c 0,13,14
 225 605 225 605 197.5 567 c 128,-1,15
 170 529 170 529 170 457 c 2,16,-1
 170 0 l 1,0,-1
338 793 m 1,17,-1
 300 755 l 1,18,-1
 187 698 l 1,19,-1
 161 724 l 1,20,-1
 284 847 l 1,21,-1
 338 793 l 1,17,-1
EndSplineSet
EndChar

StartChar: uni0156
Encoding: 342 342 279
Width: 485
GlyphClass: 2
Flags: W
LayerCount: 2
Fore
SplineSet
170 0 m 1,0,-1
 100 0 l 1,1,-1
 100 650 l 1,2,-1
 251 650 l 2,3,4
 329 650 329 650 369.5 613 c 128,-1,5
 410 576 410 576 410 510 c 2,6,-1
 410 370 l 2,7,8
 410 268 410 268 322 240 c 1,9,-1
 445 0 l 1,10,-1
 368 0 l 1,11,-1
 251 230 l 1,12,-1
 170 230 l 1,13,-1
 170 0 l 1,0,-1
340 370 m 2,14,-1
 340 510 l 2,15,16
 340 548 340 548 317 569 c 128,-1,17
 294 590 294 590 251 590 c 2,18,-1
 170 590 l 1,19,-1
 170 290 l 1,20,-1
 251 290 l 2,21,22
 340 290 340 290 340 370 c 2,14,-1
202 -55 m 1,23,-1
 282 -55 l 1,24,-1
 282 -140 l 1,25,-1
 238 -256 l 1,26,-1
 206 -250 l 1,27,-1
 226 -155 l 1,28,-1
 202 -146 l 1,29,-1
 202 -55 l 1,23,-1
EndSplineSet
EndChar

StartChar: uni0157
Encoding: 343 343 280
Width: 400
GlyphClass: 2
Flags: W
LayerCount: 2
Fore
SplineSet
170 0 m 1,0,-1
 100 0 l 1,1,-1
 100 650 l 1,2,-1
 130 650 l 1,3,-1
 159 576 l 1,4,5
 191 665 191 665 261 665 c 0,6,7
 380 665 380 665 380 535 c 2,8,-1
 380 470 l 1,9,-1
 313 470 l 1,10,-1
 313 539 l 2,11,12
 313 605 313 605 258 605 c 0,13,14
 225 605 225 605 197.5 567 c 128,-1,15
 170 529 170 529 170 457 c 2,16,-1
 170 0 l 1,0,-1
95 -55 m 1,17,-1
 175 -55 l 1,18,-1
 175 -140 l 1,19,-1
 131 -256 l 1,20,-1
 99 -250 l 1,21,-1
 119 -155 l 1,22,-1
 95 -146 l 1,23,-1
 95 -55 l 1,17,-1
EndSplineSet
EndChar

StartChar: Rcaron
Encoding: 344 344 281
Width: 485
GlyphClass: 2
Flags: W
LayerCount: 2
Fore
SplineSet
170 0 m 1,0,-1
 100 0 l 1,1,-1
 100 650 l 1,2,-1
 251 650 l 2,3,4
 329 650 329 650 369.5 613 c 128,-1,5
 410 576 410 576 410 510 c 2,6,-1
 410 370 l 2,7,8
 410 268 410 268 322 240 c 1,9,-1
 445 0 l 1,10,-1
 368 0 l 1,11,-1
 251 230 l 1,12,-1
 170 230 l 1,13,-1
 170 0 l 1,0,-1
340 370 m 2,14,-1
 340 510 l 2,15,16
 340 548 340 548 317 569 c 128,-1,17
 294 590 294 590 251 590 c 2,18,-1
 170 590 l 1,19,-1
 170 290 l 1,20,-1
 251 290 l 2,21,22
 340 290 340 290 340 370 c 2,14,-1
242 778 m 1,23,-1
 330 840 l 1,24,-1
 356 814 l 1,25,-1
 258 701 l 1,26,-1
 226 701 l 1,27,-1
 128 814 l 1,28,-1
 154 840 l 1,29,-1
 242 778 l 1,23,-1
EndSplineSet
EndChar

StartChar: rcaron
Encoding: 345 345 282
Width: 400
GlyphClass: 2
Flags: W
LayerCount: 2
Fore
SplineSet
170 0 m 1,0,-1
 100 0 l 1,1,-1
 100 650 l 1,2,-1
 130 650 l 1,3,-1
 159 576 l 1,4,5
 191 665 191 665 261 665 c 0,6,7
 380 665 380 665 380 535 c 2,8,-1
 380 470 l 1,9,-1
 313 470 l 1,10,-1
 313 539 l 2,11,12
 313 605 313 605 258 605 c 0,13,14
 225 605 225 605 197.5 567 c 128,-1,15
 170 529 170 529 170 457 c 2,16,-1
 170 0 l 1,0,-1
240 778 m 1,17,-1
 328 840 l 1,18,-1
 354 814 l 1,19,-1
 256 701 l 1,20,-1
 224 701 l 1,21,-1
 126 814 l 1,22,-1
 152 840 l 1,23,-1
 240 778 l 1,17,-1
EndSplineSet
EndChar

StartChar: Sacute
Encoding: 346 346 283
Width: 498
GlyphClass: 2
Flags: W
LayerCount: 2
Fore
SplineSet
418 125 m 0,0,1
 418 -15 418 -15 249 -15 c 128,-1,2
 80 -15 80 -15 80 125 c 2,3,-1
 80 210 l 1,4,-1
 150 210 l 1,5,-1
 150 121 l 2,6,7
 150 85 150 85 175 65 c 128,-1,8
 200 45 200 45 249 45 c 128,-1,9
 298 45 298 45 323 65 c 128,-1,10
 348 85 348 85 348 119.5 c 128,-1,11
 348 154 348 154 340.5 174.5 c 128,-1,12
 333 195 333 195 310 218 c 2,13,-1
 134 390 l 2,14,15
 103 421 103 421 91.5 450.5 c 128,-1,16
 80 480 80 480 80 525 c 0,17,18
 80 592 80 592 121.5 628.5 c 128,-1,19
 163 665 163 665 247 665 c 0,20,21
 408 665 408 665 408 525 c 2,22,-1
 408 440 l 1,23,-1
 338 440 l 1,24,-1
 338 529 l 2,25,26
 338 565 338 565 314.5 585 c 128,-1,27
 291 605 291 605 244 605 c 128,-1,28
 197 605 197 605 173.5 585 c 128,-1,29
 150 565 150 565 150 530 c 128,-1,30
 150 495 150 495 157 475 c 128,-1,31
 164 455 164 455 188 433 c 2,32,-1
 367 261 l 1,33,34
 396 229 396 229 407 199.5 c 128,-1,35
 418 170 418 170 418 125 c 0,0,1
337 793 m 1,36,-1
 299 755 l 1,37,-1
 186 698 l 1,38,-1
 160 724 l 1,39,-1
 283 847 l 1,40,-1
 337 793 l 1,36,-1
EndSplineSet
EndChar

StartChar: sacute
Encoding: 347 347 284
Width: 498
GlyphClass: 2
Flags: W
LayerCount: 2
Fore
SplineSet
418 125 m 0,0,1
 418 -15 418 -15 249 -15 c 128,-1,2
 80 -15 80 -15 80 125 c 2,3,-1
 80 210 l 1,4,-1
 150 210 l 1,5,-1
 150 121 l 2,6,7
 150 85 150 85 175 65 c 128,-1,8
 200 45 200 45 249 45 c 128,-1,9
 298 45 298 45 323 65 c 128,-1,10
 348 85 348 85 348 119.5 c 128,-1,11
 348 154 348 154 340.5 174.5 c 128,-1,12
 333 195 333 195 310 218 c 2,13,-1
 134 390 l 2,14,15
 103 421 103 421 91.5 450.5 c 128,-1,16
 80 480 80 480 80 525 c 0,17,18
 80 592 80 592 121.5 628.5 c 128,-1,19
 163 665 163 665 247 665 c 0,20,21
 408 665 408 665 408 525 c 2,22,-1
 408 440 l 1,23,-1
 338 440 l 1,24,-1
 338 529 l 2,25,26
 338 565 338 565 314.5 585 c 128,-1,27
 291 605 291 605 244 605 c 128,-1,28
 197 605 197 605 173.5 585 c 128,-1,29
 150 565 150 565 150 530 c 128,-1,30
 150 495 150 495 157 475 c 128,-1,31
 164 455 164 455 188 433 c 2,32,-1
 367 261 l 1,33,34
 396 229 396 229 407 199.5 c 128,-1,35
 418 170 418 170 418 125 c 0,0,1
337 793 m 1,36,-1
 299 755 l 1,37,-1
 186 698 l 1,38,-1
 160 724 l 1,39,-1
 283 847 l 1,40,-1
 337 793 l 1,36,-1
EndSplineSet
EndChar

StartChar: Scircumflex
Encoding: 348 348 285
Width: 498
GlyphClass: 2
Flags: W
LayerCount: 2
Fore
SplineSet
418 125 m 0,0,1
 418 -15 418 -15 249 -15 c 128,-1,2
 80 -15 80 -15 80 125 c 2,3,-1
 80 210 l 1,4,-1
 150 210 l 1,5,-1
 150 121 l 2,6,7
 150 85 150 85 175 65 c 128,-1,8
 200 45 200 45 249 45 c 128,-1,9
 298 45 298 45 323 65 c 128,-1,10
 348 85 348 85 348 119.5 c 128,-1,11
 348 154 348 154 340.5 174.5 c 128,-1,12
 333 195 333 195 310 218 c 2,13,-1
 134 390 l 2,14,15
 103 421 103 421 91.5 450.5 c 128,-1,16
 80 480 80 480 80 525 c 0,17,18
 80 592 80 592 121.5 628.5 c 128,-1,19
 163 665 163 665 247 665 c 0,20,21
 408 665 408 665 408 525 c 2,22,-1
 408 440 l 1,23,-1
 338 440 l 1,24,-1
 338 529 l 2,25,26
 338 565 338 565 314.5 585 c 128,-1,27
 291 605 291 605 244 605 c 128,-1,28
 197 605 197 605 173.5 585 c 128,-1,29
 150 565 150 565 150 530 c 128,-1,30
 150 495 150 495 157 475 c 128,-1,31
 164 455 164 455 188 433 c 2,32,-1
 367 261 l 1,33,34
 396 229 396 229 407 199.5 c 128,-1,35
 418 170 418 170 418 125 c 0,0,1
249 760 m 1,36,-1
 161 698 l 1,37,-1
 135 724 l 1,38,-1
 233 837 l 1,39,-1
 265 837 l 1,40,-1
 363 724 l 1,41,-1
 337 698 l 1,42,-1
 249 760 l 1,36,-1
EndSplineSet
EndChar

StartChar: scircumflex
Encoding: 349 349 286
Width: 498
GlyphClass: 2
Flags: W
LayerCount: 2
Fore
SplineSet
418 125 m 0,0,1
 418 -15 418 -15 249 -15 c 128,-1,2
 80 -15 80 -15 80 125 c 2,3,-1
 80 210 l 1,4,-1
 150 210 l 1,5,-1
 150 121 l 2,6,7
 150 85 150 85 175 65 c 128,-1,8
 200 45 200 45 249 45 c 128,-1,9
 298 45 298 45 323 65 c 128,-1,10
 348 85 348 85 348 119.5 c 128,-1,11
 348 154 348 154 340.5 174.5 c 128,-1,12
 333 195 333 195 310 218 c 2,13,-1
 134 390 l 2,14,15
 103 421 103 421 91.5 450.5 c 128,-1,16
 80 480 80 480 80 525 c 0,17,18
 80 592 80 592 121.5 628.5 c 128,-1,19
 163 665 163 665 247 665 c 0,20,21
 408 665 408 665 408 525 c 2,22,-1
 408 440 l 1,23,-1
 338 440 l 1,24,-1
 338 529 l 2,25,26
 338 565 338 565 314.5 585 c 128,-1,27
 291 605 291 605 244 605 c 128,-1,28
 197 605 197 605 173.5 585 c 128,-1,29
 150 565 150 565 150 530 c 128,-1,30
 150 495 150 495 157 475 c 128,-1,31
 164 455 164 455 188 433 c 2,32,-1
 367 261 l 1,33,34
 396 229 396 229 407 199.5 c 128,-1,35
 418 170 418 170 418 125 c 0,0,1
249 760 m 1,36,-1
 161 698 l 1,37,-1
 135 724 l 1,38,-1
 233 837 l 1,39,-1
 265 837 l 1,40,-1
 363 724 l 1,41,-1
 337 698 l 1,42,-1
 249 760 l 1,36,-1
EndSplineSet
EndChar

StartChar: Scedilla
Encoding: 350 350 287
Width: 498
GlyphClass: 2
Flags: W
LayerCount: 2
Fore
SplineSet
418 125 m 0,0,1
 418 -11 418 -11 258 -15 c 1,2,-1
 249 -62 l 1,3,-1
 254 -62 l 2,4,5
 295 -62 295 -62 316.5 -83.5 c 128,-1,6
 338 -105 338 -105 338 -141 c 2,7,-1
 338 -164 l 2,8,9
 338 -240 338 -240 248.5 -240 c 128,-1,10
 159 -240 159 -240 159 -164 c 2,11,-1
 159 -156 l 1,12,-1
 207 -156 l 1,13,-1
 207 -166 l 2,14,15
 207 -197 207 -197 248.5 -197 c 128,-1,16
 290 -197 290 -197 290 -166 c 2,17,-1
 290 -141 l 2,18,19
 290 -127 290 -127 280 -116 c 128,-1,20
 270 -105 270 -105 254 -105 c 2,21,-1
 194 -105 l 1,22,-1
 212 -13 l 1,23,24
 80 3 80 3 80 125 c 2,25,-1
 80 210 l 1,26,-1
 150 210 l 1,27,-1
 150 121 l 2,28,29
 150 85 150 85 175 65 c 128,-1,30
 200 45 200 45 249 45 c 128,-1,31
 298 45 298 45 323 65 c 128,-1,32
 348 85 348 85 348 119.5 c 128,-1,33
 348 154 348 154 340.5 174.5 c 128,-1,34
 333 195 333 195 310 218 c 2,35,-1
 134 390 l 2,36,37
 103 421 103 421 91.5 450.5 c 128,-1,38
 80 480 80 480 80 525 c 0,39,40
 80 592 80 592 121.5 628.5 c 128,-1,41
 163 665 163 665 247 665 c 0,42,43
 408 665 408 665 408 525 c 2,44,-1
 408 440 l 1,45,-1
 338 440 l 1,46,-1
 338 529 l 2,47,48
 338 565 338 565 314.5 585 c 128,-1,49
 291 605 291 605 244 605 c 128,-1,50
 197 605 197 605 173.5 585 c 128,-1,51
 150 565 150 565 150 530 c 128,-1,52
 150 495 150 495 157 475 c 128,-1,53
 164 455 164 455 188 433 c 2,54,-1
 367 261 l 1,55,56
 396 229 396 229 407 199.5 c 128,-1,57
 418 170 418 170 418 125 c 0,0,1
EndSplineSet
EndChar

StartChar: scedilla
Encoding: 351 351 288
Width: 498
GlyphClass: 2
Flags: W
LayerCount: 2
Fore
SplineSet
418 125 m 0,0,1
 418 -11 418 -11 258 -15 c 1,2,-1
 249 -62 l 1,3,-1
 254 -62 l 2,4,5
 295 -62 295 -62 316.5 -83.5 c 128,-1,6
 338 -105 338 -105 338 -141 c 2,7,-1
 338 -164 l 2,8,9
 338 -240 338 -240 248.5 -240 c 128,-1,10
 159 -240 159 -240 159 -164 c 2,11,-1
 159 -156 l 1,12,-1
 207 -156 l 1,13,-1
 207 -166 l 2,14,15
 207 -197 207 -197 248.5 -197 c 128,-1,16
 290 -197 290 -197 290 -166 c 2,17,-1
 290 -141 l 2,18,19
 290 -127 290 -127 280 -116 c 128,-1,20
 270 -105 270 -105 254 -105 c 2,21,-1
 194 -105 l 1,22,-1
 212 -13 l 1,23,24
 80 3 80 3 80 125 c 2,25,-1
 80 210 l 1,26,-1
 150 210 l 1,27,-1
 150 121 l 2,28,29
 150 85 150 85 175 65 c 128,-1,30
 200 45 200 45 249 45 c 128,-1,31
 298 45 298 45 323 65 c 128,-1,32
 348 85 348 85 348 119.5 c 128,-1,33
 348 154 348 154 340.5 174.5 c 128,-1,34
 333 195 333 195 310 218 c 2,35,-1
 134 390 l 2,36,37
 103 421 103 421 91.5 450.5 c 128,-1,38
 80 480 80 480 80 525 c 0,39,40
 80 592 80 592 121.5 628.5 c 128,-1,41
 163 665 163 665 247 665 c 0,42,43
 408 665 408 665 408 525 c 2,44,-1
 408 440 l 1,45,-1
 338 440 l 1,46,-1
 338 529 l 2,47,48
 338 565 338 565 314.5 585 c 128,-1,49
 291 605 291 605 244 605 c 128,-1,50
 197 605 197 605 173.5 585 c 128,-1,51
 150 565 150 565 150 530 c 128,-1,52
 150 495 150 495 157 475 c 128,-1,53
 164 455 164 455 188 433 c 2,54,-1
 367 261 l 1,55,56
 396 229 396 229 407 199.5 c 128,-1,57
 418 170 418 170 418 125 c 0,0,1
EndSplineSet
EndChar

StartChar: Scaron
Encoding: 352 352 289
Width: 498
GlyphClass: 2
Flags: W
LayerCount: 2
Fore
SplineSet
418 125 m 0,0,1
 418 -15 418 -15 249 -15 c 128,-1,2
 80 -15 80 -15 80 125 c 2,3,-1
 80 210 l 1,4,-1
 150 210 l 1,5,-1
 150 121 l 2,6,7
 150 85 150 85 175 65 c 128,-1,8
 200 45 200 45 249 45 c 128,-1,9
 298 45 298 45 323 65 c 128,-1,10
 348 85 348 85 348 119.5 c 128,-1,11
 348 154 348 154 340.5 174.5 c 128,-1,12
 333 195 333 195 310 218 c 2,13,-1
 134 390 l 2,14,15
 103 421 103 421 91.5 450.5 c 128,-1,16
 80 480 80 480 80 525 c 0,17,18
 80 592 80 592 121.5 628.5 c 128,-1,19
 163 665 163 665 247 665 c 0,20,21
 408 665 408 665 408 525 c 2,22,-1
 408 440 l 1,23,-1
 338 440 l 1,24,-1
 338 529 l 2,25,26
 338 565 338 565 314.5 585 c 128,-1,27
 291 605 291 605 244 605 c 128,-1,28
 197 605 197 605 173.5 585 c 128,-1,29
 150 565 150 565 150 530 c 128,-1,30
 150 495 150 495 157 475 c 128,-1,31
 164 455 164 455 188 433 c 2,32,-1
 367 261 l 1,33,34
 396 229 396 229 407 199.5 c 128,-1,35
 418 170 418 170 418 125 c 0,0,1
249 778 m 1,36,-1
 337 840 l 1,37,-1
 363 814 l 1,38,-1
 265 701 l 1,39,-1
 233 701 l 1,40,-1
 135 814 l 1,41,-1
 161 840 l 1,42,-1
 249 778 l 1,36,-1
EndSplineSet
EndChar

StartChar: scaron
Encoding: 353 353 290
Width: 498
GlyphClass: 2
Flags: W
LayerCount: 2
Fore
SplineSet
418 125 m 0,0,1
 418 -15 418 -15 249 -15 c 128,-1,2
 80 -15 80 -15 80 125 c 2,3,-1
 80 210 l 1,4,-1
 150 210 l 1,5,-1
 150 121 l 2,6,7
 150 85 150 85 175 65 c 128,-1,8
 200 45 200 45 249 45 c 128,-1,9
 298 45 298 45 323 65 c 128,-1,10
 348 85 348 85 348 119.5 c 128,-1,11
 348 154 348 154 340.5 174.5 c 128,-1,12
 333 195 333 195 310 218 c 2,13,-1
 134 390 l 2,14,15
 103 421 103 421 91.5 450.5 c 128,-1,16
 80 480 80 480 80 525 c 0,17,18
 80 592 80 592 121.5 628.5 c 128,-1,19
 163 665 163 665 247 665 c 0,20,21
 408 665 408 665 408 525 c 2,22,-1
 408 440 l 1,23,-1
 338 440 l 1,24,-1
 338 529 l 2,25,26
 338 565 338 565 314.5 585 c 128,-1,27
 291 605 291 605 244 605 c 128,-1,28
 197 605 197 605 173.5 585 c 128,-1,29
 150 565 150 565 150 530 c 128,-1,30
 150 495 150 495 157 475 c 128,-1,31
 164 455 164 455 188 433 c 2,32,-1
 367 261 l 1,33,34
 396 229 396 229 407 199.5 c 128,-1,35
 418 170 418 170 418 125 c 0,0,1
249 778 m 1,36,-1
 337 840 l 1,37,-1
 363 814 l 1,38,-1
 265 701 l 1,39,-1
 233 701 l 1,40,-1
 135 814 l 1,41,-1
 161 840 l 1,42,-1
 249 778 l 1,36,-1
EndSplineSet
EndChar

StartChar: uni0162
Encoding: 354 354 291
Width: 433
GlyphClass: 2
Flags: W
LayerCount: 2
Fore
SplineSet
360 650 m 1,0,-1
 360 590 l 1,1,-1
 230 590 l 1,2,-1
 230 0 l 1,3,-1
 219 0 l 1,4,-1
 207 -62 l 1,5,-1
 212 -62 l 2,6,7
 253 -62 253 -62 274.5 -83.5 c 128,-1,8
 296 -105 296 -105 296 -141 c 2,9,-1
 296 -164 l 2,10,11
 296 -240 296 -240 206.5 -240 c 128,-1,12
 117 -240 117 -240 117 -164 c 2,13,-1
 117 -156 l 1,14,-1
 165 -156 l 1,15,-1
 165 -166 l 2,16,17
 165 -197 165 -197 206.5 -197 c 128,-1,18
 248 -197 248 -197 248 -166 c 2,19,-1
 248 -141 l 2,20,21
 248 -127 248 -127 238 -116 c 128,-1,22
 228 -105 228 -105 212 -105 c 2,23,-1
 152 -105 l 1,24,-1
 172 0 l 1,25,-1
 160 0 l 1,26,-1
 160 590 l 1,27,-1
 30 590 l 1,28,-1
 30 650 l 1,29,-1
 360 650 l 1,0,-1
EndSplineSet
EndChar

StartChar: uni0163
Encoding: 355 355 292
Width: 353
GlyphClass: 2
Flags: W
LayerCount: 2
Fore
SplineSet
85 650 m 1,0,-1
 305 650 l 1,1,-1
 305 590 l 1,2,-1
 155 590 l 1,3,-1
 155 111 l 2,4,5
 155 83 155 83 169.5 64 c 128,-1,6
 184 45 184 45 210.5 45 c 128,-1,7
 237 45 237 45 251 63.5 c 128,-1,8
 265 82 265 82 265 111 c 2,9,-1
 265 230 l 1,10,-1
 335 230 l 1,11,-1
 335 115 l 2,12,13
 335 54 335 54 304.5 21 c 128,-1,14
 274 -12 274 -12 221 -15 c 1,15,-1
 212 -62 l 1,16,-1
 217 -62 l 2,17,18
 258 -62 258 -62 279.5 -83.5 c 128,-1,19
 301 -105 301 -105 301 -141 c 2,20,-1
 301 -164 l 2,21,22
 301 -240 301 -240 211.5 -240 c 128,-1,23
 122 -240 122 -240 122 -164 c 2,24,-1
 122 -156 l 1,25,-1
 170 -156 l 1,26,-1
 170 -166 l 2,27,28
 170 -197 170 -197 211.5 -197 c 128,-1,29
 253 -197 253 -197 253 -166 c 2,30,-1
 253 -141 l 2,31,32
 253 -127 253 -127 243 -116 c 128,-1,33
 233 -105 233 -105 217 -105 c 2,34,-1
 157 -105 l 1,35,-1
 175 -11 l 1,36,37
 133 -2 133 -2 109 30 c 128,-1,38
 85 62 85 62 85 115 c 2,39,-1
 85 650 l 1,0,-1
EndSplineSet
EndChar

StartChar: Tcaron
Encoding: 356 356 293
Width: 390
GlyphClass: 2
Flags: W
LayerCount: 2
Fore
SplineSet
360 650 m 1,0,-1
 360 590 l 1,1,-1
 230 590 l 1,2,-1
 230 0 l 1,3,-1
 160 0 l 1,4,-1
 160 590 l 1,5,-1
 30 590 l 1,6,-1
 30 650 l 1,7,-1
 360 650 l 1,0,-1
195 778 m 1,8,-1
 283 840 l 1,9,-1
 309 814 l 1,10,-1
 211 701 l 1,11,-1
 179 701 l 1,12,-1
 81 814 l 1,13,-1
 107 840 l 1,14,-1
 195 778 l 1,8,-1
EndSplineSet
EndChar

StartChar: tcaron
Encoding: 357 357 294
Width: 375
GlyphClass: 2
Flags: W
LayerCount: 2
Fore
SplineSet
85 650 m 1,0,-1
 305 650 l 1,1,-1
 305 590 l 1,2,-1
 155 590 l 1,3,-1
 155 111 l 2,4,5
 155 83 155 83 169.5 64 c 128,-1,6
 184 45 184 45 210.5 45 c 128,-1,7
 237 45 237 45 251 63.5 c 128,-1,8
 265 82 265 82 265 111 c 2,9,-1
 265 230 l 1,10,-1
 335 230 l 1,11,-1
 335 115 l 2,12,13
 335 52 335 52 301.5 18.5 c 128,-1,14
 268 -15 268 -15 211 -15 c 128,-1,15
 154 -15 154 -15 119.5 18.5 c 128,-1,16
 85 52 85 52 85 115 c 2,17,-1
 85 650 l 1,0,-1
355 715 m 1,18,-1
 435 715 l 1,19,-1
 435 630 l 1,20,-1
 391 514 l 1,21,-1
 359 520 l 1,22,-1
 379 615 l 1,23,-1
 355 624 l 1,24,-1
 355 715 l 1,18,-1
EndSplineSet
EndChar

StartChar: Tbar
Encoding: 358 358 295
Width: 390
GlyphClass: 2
Flags: W
LayerCount: 2
Fore
SplineSet
26 405 m 1,0,-1
 26 455 l 1,1,-1
 160 455 l 1,2,-1
 160 590 l 1,3,-1
 30 590 l 1,4,-1
 30 650 l 1,5,-1
 360 650 l 1,6,-1
 360 590 l 1,7,-1
 230 590 l 1,8,-1
 230 455 l 1,9,-1
 364 455 l 1,10,-1
 364 405 l 1,11,-1
 230 405 l 1,12,-1
 230 0 l 1,13,-1
 160 0 l 1,14,-1
 160 405 l 1,15,-1
 26 405 l 1,0,-1
EndSplineSet
EndChar

StartChar: tbar
Encoding: 359 359 296
Width: 375
GlyphClass: 2
Flags: W
LayerCount: 2
Fore
SplineSet
20 405 m 1,0,-1
 20 455 l 1,1,-1
 85 455 l 1,2,-1
 85 650 l 1,3,-1
 305 650 l 1,4,-1
 305 590 l 1,5,-1
 155 590 l 1,6,-1
 155 455 l 1,7,-1
 358 455 l 1,8,-1
 358 405 l 1,9,-1
 155 405 l 1,10,-1
 155 111 l 2,11,12
 155 83 155 83 169.5 64 c 128,-1,13
 184 45 184 45 210.5 45 c 128,-1,14
 237 45 237 45 251 63.5 c 128,-1,15
 265 82 265 82 265 111 c 2,16,-1
 265 230 l 1,17,-1
 335 230 l 1,18,-1
 335 115 l 2,19,20
 335 52 335 52 301.5 18.5 c 128,-1,21
 268 -15 268 -15 211 -15 c 128,-1,22
 154 -15 154 -15 119.5 18.5 c 128,-1,23
 85 52 85 52 85 115 c 2,24,-1
 85 405 l 1,25,-1
 20 405 l 1,0,-1
EndSplineSet
EndChar

StartChar: Utilde
Encoding: 360 360 297
Width: 520
GlyphClass: 2
Flags: W
LayerCount: 2
Fore
SplineSet
360 125 m 2,0,-1
 360 650 l 1,1,-1
 430 650 l 1,2,-1
 430 125 l 2,3,4
 430 58 430 58 387.5 21.5 c 128,-1,5
 345 -15 345 -15 260.5 -15 c 128,-1,6
 176 -15 176 -15 133 21.5 c 128,-1,7
 90 58 90 58 90 125 c 2,8,-1
 90 650 l 1,9,-1
 160 650 l 1,10,-1
 160 125 l 2,11,12
 160 45 160 45 260 45 c 128,-1,13
 360 45 360 45 360 125 c 2,0,-1
303 759 m 0,14,15
 288 759 288 759 260 740 c 128,-1,16
 232 721 232 721 206.5 721 c 128,-1,17
 181 721 181 721 163 741 c 128,-1,18
 145 761 145 761 142 795 c 1,19,-1
 183 809 l 1,20,21
 193 781 193 781 217 781 c 0,22,23
 232 781 232 781 260 800 c 128,-1,24
 288 819 288 819 313.5 819 c 128,-1,25
 339 819 339 819 357 799 c 128,-1,26
 375 779 375 779 378 745 c 1,27,-1
 337 731 l 1,28,29
 327 759 327 759 303 759 c 0,14,15
EndSplineSet
EndChar

StartChar: utilde
Encoding: 361 361 298
Width: 525
GlyphClass: 2
Flags: W
LayerCount: 2
Fore
SplineSet
90 125 m 2,0,-1
 90 650 l 1,1,-1
 160 650 l 1,2,-1
 160 125 l 2,3,4
 160 87 160 87 176.5 66 c 128,-1,5
 193 45 193 45 237 45 c 128,-1,6
 281 45 281 45 318 79 c 128,-1,7
 355 113 355 113 355 145 c 2,8,-1
 355 650 l 1,9,-1
 425 650 l 1,10,-1
 425 0 l 1,11,-1
 395 0 l 1,12,-1
 369 64 l 1,13,14
 347 28 347 28 312.5 6.5 c 128,-1,15
 278 -15 278 -15 237 -15 c 0,16,17
 90 -15 90 -15 90 125 c 2,0,-1
305 759 m 0,18,19
 290 759 290 759 262 740 c 128,-1,20
 234 721 234 721 208.5 721 c 128,-1,21
 183 721 183 721 165 741 c 128,-1,22
 147 761 147 761 144 795 c 1,23,-1
 185 809 l 1,24,25
 195 781 195 781 219 781 c 0,26,27
 234 781 234 781 262 800 c 128,-1,28
 290 819 290 819 315.5 819 c 128,-1,29
 341 819 341 819 359 799 c 128,-1,30
 377 779 377 779 380 745 c 1,31,-1
 339 731 l 1,32,33
 329 759 329 759 305 759 c 0,18,19
EndSplineSet
EndChar

StartChar: Umacron
Encoding: 362 362 299
Width: 520
GlyphClass: 2
Flags: W
LayerCount: 2
Fore
SplineSet
360 125 m 2,0,-1
 360 650 l 1,1,-1
 430 650 l 1,2,-1
 430 125 l 2,3,4
 430 58 430 58 387.5 21.5 c 128,-1,5
 345 -15 345 -15 260.5 -15 c 128,-1,6
 176 -15 176 -15 133 21.5 c 128,-1,7
 90 58 90 58 90 125 c 2,8,-1
 90 650 l 1,9,-1
 160 650 l 1,10,-1
 160 125 l 2,11,12
 160 45 160 45 260 45 c 128,-1,13
 360 45 360 45 360 125 c 2,0,-1
152 740 m 1,14,-1
 152 800 l 1,15,-1
 368 800 l 1,16,-1
 368 740 l 1,17,-1
 152 740 l 1,14,-1
EndSplineSet
EndChar

StartChar: umacron
Encoding: 363 363 300
Width: 525
GlyphClass: 2
Flags: W
LayerCount: 2
Fore
SplineSet
90 125 m 2,0,-1
 90 650 l 1,1,-1
 160 650 l 1,2,-1
 160 125 l 2,3,4
 160 87 160 87 176.5 66 c 128,-1,5
 193 45 193 45 237 45 c 128,-1,6
 281 45 281 45 318 79 c 128,-1,7
 355 113 355 113 355 145 c 2,8,-1
 355 650 l 1,9,-1
 425 650 l 1,10,-1
 425 0 l 1,11,-1
 395 0 l 1,12,-1
 369 64 l 1,13,14
 347 28 347 28 312.5 6.5 c 128,-1,15
 278 -15 278 -15 237 -15 c 0,16,17
 90 -15 90 -15 90 125 c 2,0,-1
154 740 m 1,18,-1
 154 800 l 1,19,-1
 370 800 l 1,20,-1
 370 740 l 1,21,-1
 154 740 l 1,18,-1
EndSplineSet
EndChar

StartChar: Ubreve
Encoding: 364 364 301
Width: 520
GlyphClass: 2
Flags: W
LayerCount: 2
Fore
SplineSet
360 125 m 2,0,-1
 360 650 l 1,1,-1
 430 650 l 1,2,-1
 430 125 l 2,3,4
 430 58 430 58 387.5 21.5 c 128,-1,5
 345 -15 345 -15 260.5 -15 c 128,-1,6
 176 -15 176 -15 133 21.5 c 128,-1,7
 90 58 90 58 90 125 c 2,8,-1
 90 650 l 1,9,-1
 160 650 l 1,10,-1
 160 125 l 2,11,12
 160 45 160 45 260 45 c 128,-1,13
 360 45 360 45 360 125 c 2,0,-1
217 816 m 1,14,-1
 217 796 l 2,15,16
 217 765 217 765 260 765 c 128,-1,17
 303 765 303 765 303 796 c 2,18,-1
 303 816 l 1,19,-1
 358 816 l 1,20,-1
 358 790 l 2,21,22
 358 715 358 715 260 715 c 128,-1,23
 162 715 162 715 162 790 c 2,24,-1
 162 816 l 1,25,-1
 217 816 l 1,14,-1
EndSplineSet
EndChar

StartChar: ubreve
Encoding: 365 365 302
Width: 525
GlyphClass: 2
Flags: W
LayerCount: 2
Fore
SplineSet
90 125 m 2,0,-1
 90 650 l 1,1,-1
 160 650 l 1,2,-1
 160 125 l 2,3,4
 160 87 160 87 176.5 66 c 128,-1,5
 193 45 193 45 237 45 c 128,-1,6
 281 45 281 45 318 79 c 128,-1,7
 355 113 355 113 355 145 c 2,8,-1
 355 650 l 1,9,-1
 425 650 l 1,10,-1
 425 0 l 1,11,-1
 395 0 l 1,12,-1
 369 64 l 1,13,14
 347 28 347 28 312.5 6.5 c 128,-1,15
 278 -15 278 -15 237 -15 c 0,16,17
 90 -15 90 -15 90 125 c 2,0,-1
219 816 m 1,18,-1
 219 796 l 2,19,20
 219 765 219 765 262 765 c 128,-1,21
 305 765 305 765 305 796 c 2,22,-1
 305 816 l 1,23,-1
 360 816 l 1,24,-1
 360 790 l 2,25,26
 360 715 360 715 262 715 c 128,-1,27
 164 715 164 715 164 790 c 2,28,-1
 164 816 l 1,29,-1
 219 816 l 1,18,-1
EndSplineSet
EndChar

StartChar: Uring
Encoding: 366 366 303
Width: 520
GlyphClass: 2
Flags: W
LayerCount: 2
Fore
SplineSet
360 125 m 2,0,-1
 360 650 l 1,1,-1
 430 650 l 1,2,-1
 430 125 l 2,3,4
 430 58 430 58 387.5 21.5 c 128,-1,5
 345 -15 345 -15 260.5 -15 c 128,-1,6
 176 -15 176 -15 133 21.5 c 128,-1,7
 90 58 90 58 90 125 c 2,8,-1
 90 650 l 1,9,-1
 160 650 l 1,10,-1
 160 125 l 2,11,12
 160 45 160 45 260 45 c 128,-1,13
 360 45 360 45 360 125 c 2,0,-1
345 780 m 2,14,-1
 345 760 l 2,15,16
 345 685 345 685 260 685 c 128,-1,17
 175 685 175 685 175 760 c 2,18,-1
 175 780 l 2,19,20
 175 855 175 855 260 855 c 128,-1,21
 345 855 345 855 345 780 c 2,14,-1
225 780 m 2,22,-1
 225 760 l 2,23,24
 225 729 225 729 260 729 c 128,-1,25
 295 729 295 729 295 760 c 2,26,-1
 295 780 l 2,27,28
 295 811 295 811 260 811 c 128,-1,29
 225 811 225 811 225 780 c 2,22,-1
EndSplineSet
EndChar

StartChar: uring
Encoding: 367 367 304
Width: 525
GlyphClass: 2
Flags: W
LayerCount: 2
Fore
SplineSet
90 125 m 2,0,-1
 90 650 l 1,1,-1
 160 650 l 1,2,-1
 160 125 l 2,3,4
 160 87 160 87 176.5 66 c 128,-1,5
 193 45 193 45 237 45 c 128,-1,6
 281 45 281 45 318 79 c 128,-1,7
 355 113 355 113 355 145 c 2,8,-1
 355 650 l 1,9,-1
 425 650 l 1,10,-1
 425 0 l 1,11,-1
 395 0 l 1,12,-1
 369 64 l 1,13,14
 347 28 347 28 312.5 6.5 c 128,-1,15
 278 -15 278 -15 237 -15 c 0,16,17
 90 -15 90 -15 90 125 c 2,0,-1
347 780 m 2,18,-1
 347 760 l 2,19,20
 347 685 347 685 262 685 c 128,-1,21
 177 685 177 685 177 760 c 2,22,-1
 177 780 l 2,23,24
 177 855 177 855 262 855 c 128,-1,25
 347 855 347 855 347 780 c 2,18,-1
227 780 m 2,26,-1
 227 760 l 2,27,28
 227 729 227 729 262 729 c 128,-1,29
 297 729 297 729 297 760 c 2,30,-1
 297 780 l 2,31,32
 297 811 297 811 262 811 c 128,-1,33
 227 811 227 811 227 780 c 2,26,-1
EndSplineSet
EndChar

StartChar: Uhungarumlaut
Encoding: 368 368 305
Width: 520
GlyphClass: 2
Flags: W
LayerCount: 2
Fore
SplineSet
360 125 m 2,0,-1
 360 650 l 1,1,-1
 430 650 l 1,2,-1
 430 125 l 2,3,4
 430 58 430 58 387.5 21.5 c 128,-1,5
 345 -15 345 -15 260.5 -15 c 128,-1,6
 176 -15 176 -15 133 21.5 c 128,-1,7
 90 58 90 58 90 125 c 2,8,-1
 90 650 l 1,9,-1
 160 650 l 1,10,-1
 160 125 l 2,11,12
 160 45 160 45 260 45 c 128,-1,13
 360 45 360 45 360 125 c 2,0,-1
289 793 m 1,14,-1
 251 755 l 1,15,-1
 138 698 l 1,16,-1
 112 724 l 1,17,-1
 235 847 l 1,18,-1
 289 793 l 1,14,-1
469 793 m 1,19,-1
 431 755 l 1,20,-1
 318 698 l 1,21,-1
 292 724 l 1,22,-1
 415 847 l 1,23,-1
 469 793 l 1,19,-1
EndSplineSet
EndChar

StartChar: uhungarumlaut
Encoding: 369 369 306
Width: 525
GlyphClass: 2
Flags: W
LayerCount: 2
Fore
SplineSet
90 125 m 2,0,-1
 90 650 l 1,1,-1
 160 650 l 1,2,-1
 160 125 l 2,3,4
 160 87 160 87 176.5 66 c 128,-1,5
 193 45 193 45 237 45 c 128,-1,6
 281 45 281 45 318 79 c 128,-1,7
 355 113 355 113 355 145 c 2,8,-1
 355 650 l 1,9,-1
 425 650 l 1,10,-1
 425 0 l 1,11,-1
 395 0 l 1,12,-1
 369 64 l 1,13,14
 347 28 347 28 312.5 6.5 c 128,-1,15
 278 -15 278 -15 237 -15 c 0,16,17
 90 -15 90 -15 90 125 c 2,0,-1
291 793 m 1,18,-1
 253 755 l 1,19,-1
 140 698 l 1,20,-1
 114 724 l 1,21,-1
 237 847 l 1,22,-1
 291 793 l 1,18,-1
471 793 m 1,23,-1
 433 755 l 1,24,-1
 320 698 l 1,25,-1
 294 724 l 1,26,-1
 417 847 l 1,27,-1
 471 793 l 1,23,-1
EndSplineSet
EndChar

